<mxfile host="Electron" agent="Mozilla/5.0 (Macintosh; Intel Mac OS X 10_15_7) AppleWebKit/537.36 (KHTML, like Gecko) draw.io/24.7.17 Chrome/128.0.6613.36 Electron/32.0.1 Safari/537.36" version="24.7.17" pages="8">
  <diagram name="marketing_mix_modeling" id="L45QYPdUL2Ly8mUyjjdQ">
    <mxGraphModel dx="1026" dy="1762" grid="1" gridSize="10" guides="1" tooltips="1" connect="1" arrows="1" fold="1" page="1" pageScale="1" pageWidth="850" pageHeight="1100" math="0" shadow="0">
      <root>
        <mxCell id="0" />
        <mxCell id="1" parent="0" />
        <mxCell id="f6eU2KvcjWXK0nryhtgM-9" style="edgeStyle=orthogonalEdgeStyle;rounded=0;orthogonalLoop=1;jettySize=auto;html=1;entryX=0;entryY=0.5;entryDx=0;entryDy=0;" parent="1" source="f6eU2KvcjWXK0nryhtgM-1" target="f6eU2KvcjWXK0nryhtgM-8" edge="1">
          <mxGeometry relative="1" as="geometry" />
        </mxCell>
        <mxCell id="f6eU2KvcjWXK0nryhtgM-46" style="edgeStyle=orthogonalEdgeStyle;rounded=0;orthogonalLoop=1;jettySize=auto;html=1;exitX=1;exitY=0.5;exitDx=0;exitDy=0;entryX=0;entryY=0.5;entryDx=0;entryDy=0;" parent="1" source="f6eU2KvcjWXK0nryhtgM-1" target="f6eU2KvcjWXK0nryhtgM-21" edge="1">
          <mxGeometry relative="1" as="geometry" />
        </mxCell>
        <mxCell id="f6eU2KvcjWXK0nryhtgM-48" style="edgeStyle=orthogonalEdgeStyle;rounded=0;orthogonalLoop=1;jettySize=auto;html=1;exitX=1;exitY=0.5;exitDx=0;exitDy=0;entryX=0;entryY=0.5;entryDx=0;entryDy=0;" parent="1" source="f6eU2KvcjWXK0nryhtgM-1" target="f6eU2KvcjWXK0nryhtgM-34" edge="1">
          <mxGeometry relative="1" as="geometry" />
        </mxCell>
        <mxCell id="f6eU2KvcjWXK0nryhtgM-79" style="edgeStyle=orthogonalEdgeStyle;rounded=0;orthogonalLoop=1;jettySize=auto;html=1;exitX=1;exitY=0.5;exitDx=0;exitDy=0;entryX=0;entryY=0.5;entryDx=0;entryDy=0;" parent="1" source="f6eU2KvcjWXK0nryhtgM-1" target="f6eU2KvcjWXK0nryhtgM-74" edge="1">
          <mxGeometry relative="1" as="geometry" />
        </mxCell>
        <mxCell id="f6eU2KvcjWXK0nryhtgM-80" style="edgeStyle=orthogonalEdgeStyle;rounded=0;orthogonalLoop=1;jettySize=auto;html=1;exitX=1;exitY=0.5;exitDx=0;exitDy=0;entryX=0;entryY=0.5;entryDx=0;entryDy=0;" parent="1" source="f6eU2KvcjWXK0nryhtgM-1" target="f6eU2KvcjWXK0nryhtgM-33" edge="1">
          <mxGeometry relative="1" as="geometry" />
        </mxCell>
        <mxCell id="f6eU2KvcjWXK0nryhtgM-1" value="mmm_decay_effect" style="rounded=1;whiteSpace=wrap;html=1;" parent="1" vertex="1">
          <mxGeometry x="70" y="260" width="130" height="40" as="geometry" />
        </mxCell>
        <mxCell id="f6eU2KvcjWXK0nryhtgM-77" style="edgeStyle=orthogonalEdgeStyle;rounded=0;orthogonalLoop=1;jettySize=auto;html=1;exitX=1;exitY=0.5;exitDx=0;exitDy=0;entryX=0;entryY=0.5;entryDx=0;entryDy=0;" parent="1" source="f6eU2KvcjWXK0nryhtgM-7" target="f6eU2KvcjWXK0nryhtgM-75" edge="1">
          <mxGeometry relative="1" as="geometry" />
        </mxCell>
        <mxCell id="f6eU2KvcjWXK0nryhtgM-7" value="mmm_diminishing_returns" style="rounded=1;whiteSpace=wrap;html=1;" parent="1" vertex="1">
          <mxGeometry x="50" y="320" width="150" height="40" as="geometry" />
        </mxCell>
        <mxCell id="f6eU2KvcjWXK0nryhtgM-14" style="edgeStyle=orthogonalEdgeStyle;rounded=0;orthogonalLoop=1;jettySize=auto;html=1;entryX=0.39;entryY=1;entryDx=0;entryDy=0;entryPerimeter=0;" parent="1" source="f6eU2KvcjWXK0nryhtgM-8" target="f6eU2KvcjWXK0nryhtgM-13" edge="1">
          <mxGeometry relative="1" as="geometry">
            <mxPoint x="310" y="180" as="targetPoint" />
          </mxGeometry>
        </mxCell>
        <mxCell id="f6eU2KvcjWXK0nryhtgM-66" style="edgeStyle=orthogonalEdgeStyle;rounded=0;orthogonalLoop=1;jettySize=auto;html=1;exitX=1;exitY=0.5;exitDx=0;exitDy=0;entryX=0.5;entryY=0;entryDx=0;entryDy=0;" parent="1" source="f6eU2KvcjWXK0nryhtgM-8" target="f6eU2KvcjWXK0nryhtgM-44" edge="1">
          <mxGeometry relative="1" as="geometry" />
        </mxCell>
        <mxCell id="f6eU2KvcjWXK0nryhtgM-8" value="mmm_social" style="rounded=1;whiteSpace=wrap;html=1;fillColor=#FFCC99;" parent="1" vertex="1">
          <mxGeometry x="260" y="200" width="100" height="40" as="geometry" />
        </mxCell>
        <mxCell id="f6eU2KvcjWXK0nryhtgM-10" value="mmm_social" style="swimlane;fontStyle=0;childLayout=stackLayout;horizontal=1;startSize=30;horizontalStack=0;resizeParent=1;resizeParentMax=0;resizeLast=0;collapsible=1;marginBottom=0;whiteSpace=wrap;html=1;fillColor=#FFCC99;" parent="1" vertex="1">
          <mxGeometry x="260" y="50" width="100" height="120" as="geometry" />
        </mxCell>
        <mxCell id="f6eU2KvcjWXK0nryhtgM-11" value="impression_date" style="text;strokeColor=none;fillColor=none;align=left;verticalAlign=middle;spacingLeft=4;spacingRight=4;overflow=hidden;points=[[0,0.5],[1,0.5]];portConstraint=eastwest;rotatable=0;whiteSpace=wrap;html=1;" parent="f6eU2KvcjWXK0nryhtgM-10" vertex="1">
          <mxGeometry y="30" width="100" height="30" as="geometry" />
        </mxCell>
        <mxCell id="f6eU2KvcjWXK0nryhtgM-12" value="order_date" style="text;strokeColor=none;fillColor=none;align=left;verticalAlign=middle;spacingLeft=4;spacingRight=4;overflow=hidden;points=[[0,0.5],[1,0.5]];portConstraint=eastwest;rotatable=0;whiteSpace=wrap;html=1;" parent="f6eU2KvcjWXK0nryhtgM-10" vertex="1">
          <mxGeometry y="60" width="100" height="30" as="geometry" />
        </mxCell>
        <mxCell id="f6eU2KvcjWXK0nryhtgM-13" value="device" style="text;strokeColor=none;fillColor=none;align=left;verticalAlign=middle;spacingLeft=4;spacingRight=4;overflow=hidden;points=[[0,0.5],[1,0.5]];portConstraint=eastwest;rotatable=0;whiteSpace=wrap;html=1;" parent="f6eU2KvcjWXK0nryhtgM-10" vertex="1">
          <mxGeometry y="90" width="100" height="30" as="geometry" />
        </mxCell>
        <mxCell id="f6eU2KvcjWXK0nryhtgM-19" value="Social&amp;nbsp;&lt;div&gt;Data&amp;nbsp;&lt;/div&gt;&lt;div&gt;Model&lt;/div&gt;" style="ellipse;whiteSpace=wrap;html=1;aspect=fixed;fillColor=#FFCC99;" parent="1" vertex="1">
          <mxGeometry x="95" y="60" width="80" height="80" as="geometry" />
        </mxCell>
        <mxCell id="f6eU2KvcjWXK0nryhtgM-20" style="edgeStyle=orthogonalEdgeStyle;rounded=0;orthogonalLoop=1;jettySize=auto;html=1;entryX=1;entryY=0.5;entryDx=0;entryDy=0;" parent="1" source="f6eU2KvcjWXK0nryhtgM-12" target="f6eU2KvcjWXK0nryhtgM-19" edge="1">
          <mxGeometry relative="1" as="geometry" />
        </mxCell>
        <mxCell id="f6eU2KvcjWXK0nryhtgM-42" style="edgeStyle=orthogonalEdgeStyle;rounded=0;orthogonalLoop=1;jettySize=auto;html=1;exitX=1;exitY=0.5;exitDx=0;exitDy=0;entryX=0;entryY=0.5;entryDx=0;entryDy=0;" parent="1" source="f6eU2KvcjWXK0nryhtgM-21" target="f6eU2KvcjWXK0nryhtgM-41" edge="1">
          <mxGeometry relative="1" as="geometry" />
        </mxCell>
        <mxCell id="f6eU2KvcjWXK0nryhtgM-21" value="mmm_offline" style="rounded=1;whiteSpace=wrap;html=1;fillColor=#FFFF33;" parent="1" vertex="1">
          <mxGeometry x="260" y="260" width="100" height="40" as="geometry" />
        </mxCell>
        <mxCell id="f6eU2KvcjWXK0nryhtgM-25" value="social_mmm&lt;div&gt;input&lt;/div&gt;" style="swimlane;fontStyle=0;childLayout=stackLayout;horizontal=1;startSize=30;horizontalStack=0;resizeParent=1;resizeParentMax=0;resizeLast=0;collapsible=1;marginBottom=0;whiteSpace=wrap;html=1;fillColor=#FFCC99;" parent="1" vertex="1">
          <mxGeometry x="20" y="130" width="75" height="120" as="geometry" />
        </mxCell>
        <mxCell id="f6eU2KvcjWXK0nryhtgM-26" value="strategey" style="text;strokeColor=none;fillColor=none;align=left;verticalAlign=middle;spacingLeft=4;spacingRight=4;overflow=hidden;points=[[0,0.5],[1,0.5]];portConstraint=eastwest;rotatable=0;whiteSpace=wrap;html=1;" parent="f6eU2KvcjWXK0nryhtgM-25" vertex="1">
          <mxGeometry y="30" width="75" height="30" as="geometry" />
        </mxCell>
        <mxCell id="f6eU2KvcjWXK0nryhtgM-27" value="goal" style="text;strokeColor=none;fillColor=none;align=left;verticalAlign=middle;spacingLeft=4;spacingRight=4;overflow=hidden;points=[[0,0.5],[1,0.5]];portConstraint=eastwest;rotatable=0;whiteSpace=wrap;html=1;" parent="f6eU2KvcjWXK0nryhtgM-25" vertex="1">
          <mxGeometry y="60" width="75" height="30" as="geometry" />
        </mxCell>
        <mxCell id="f6eU2KvcjWXK0nryhtgM-28" value="device" style="text;strokeColor=none;fillColor=none;align=left;verticalAlign=middle;spacingLeft=4;spacingRight=4;overflow=hidden;points=[[0,0.5],[1,0.5]];portConstraint=eastwest;rotatable=0;whiteSpace=wrap;html=1;" parent="f6eU2KvcjWXK0nryhtgM-25" vertex="1">
          <mxGeometry y="90" width="75" height="30" as="geometry" />
        </mxCell>
        <mxCell id="f6eU2KvcjWXK0nryhtgM-32" style="edgeStyle=orthogonalEdgeStyle;rounded=0;orthogonalLoop=1;jettySize=auto;html=1;entryX=0.07;entryY=0.05;entryDx=0;entryDy=0;entryPerimeter=0;" parent="1" source="f6eU2KvcjWXK0nryhtgM-25" target="f6eU2KvcjWXK0nryhtgM-8" edge="1">
          <mxGeometry relative="1" as="geometry" />
        </mxCell>
        <mxCell id="f6eU2KvcjWXK0nryhtgM-33" value="mmm_video" style="rounded=1;whiteSpace=wrap;html=1;fillColor=#FF00FF;" parent="1" vertex="1">
          <mxGeometry x="259" y="330" width="100" height="40" as="geometry" />
        </mxCell>
        <mxCell id="f6eU2KvcjWXK0nryhtgM-130" style="edgeStyle=orthogonalEdgeStyle;rounded=0;orthogonalLoop=1;jettySize=auto;html=1;exitX=1;exitY=1;exitDx=0;exitDy=0;entryX=0;entryY=0.5;entryDx=0;entryDy=0;" parent="1" source="f6eU2KvcjWXK0nryhtgM-34" target="f6eU2KvcjWXK0nryhtgM-126" edge="1">
          <mxGeometry relative="1" as="geometry" />
        </mxCell>
        <mxCell id="f6eU2KvcjWXK0nryhtgM-34" value="mmm_display&lt;div&gt;programmatic&lt;/div&gt;&lt;div&gt;untrackable&lt;/div&gt;" style="rounded=1;whiteSpace=wrap;html=1;fillColor=#66FFFF;" parent="1" vertex="1">
          <mxGeometry x="259" y="460" width="100" height="40" as="geometry" />
        </mxCell>
        <mxCell id="f6eU2KvcjWXK0nryhtgM-50" style="edgeStyle=orthogonalEdgeStyle;rounded=0;orthogonalLoop=1;jettySize=auto;html=1;exitX=0.5;exitY=0;exitDx=0;exitDy=0;entryX=1;entryY=0.25;entryDx=0;entryDy=0;" parent="1" source="f6eU2KvcjWXK0nryhtgM-37" target="f6eU2KvcjWXK0nryhtgM-21" edge="1">
          <mxGeometry relative="1" as="geometry" />
        </mxCell>
        <mxCell id="f6eU2KvcjWXK0nryhtgM-37" value="tv_radio_broadcasting_data" style="swimlane;fontStyle=0;childLayout=stackLayout;horizontal=1;startSize=20;horizontalStack=0;resizeParent=1;resizeParentMax=0;resizeLast=0;collapsible=1;marginBottom=0;whiteSpace=wrap;html=1;fillColor=#FFFF33;" parent="1" vertex="1">
          <mxGeometry x="385" y="100" width="135" height="90" as="geometry" />
        </mxCell>
        <mxCell id="f6eU2KvcjWXK0nryhtgM-38" value="TV GRPs" style="text;strokeColor=none;fillColor=none;align=left;verticalAlign=middle;spacingLeft=4;spacingRight=4;overflow=hidden;points=[[0,0.5],[1,0.5]];portConstraint=eastwest;rotatable=0;whiteSpace=wrap;html=1;" parent="f6eU2KvcjWXK0nryhtgM-37" vertex="1">
          <mxGeometry y="20" width="135" height="30" as="geometry" />
        </mxCell>
        <mxCell id="f6eU2KvcjWXK0nryhtgM-39" value="Radio GRPs" style="text;strokeColor=none;fillColor=none;align=left;verticalAlign=middle;spacingLeft=4;spacingRight=4;overflow=hidden;points=[[0,0.5],[1,0.5]];portConstraint=eastwest;rotatable=0;whiteSpace=wrap;html=1;" parent="f6eU2KvcjWXK0nryhtgM-37" vertex="1">
          <mxGeometry y="50" width="135" height="40" as="geometry" />
        </mxCell>
        <mxCell id="f6eU2KvcjWXK0nryhtgM-45" style="edgeStyle=orthogonalEdgeStyle;rounded=0;orthogonalLoop=1;jettySize=auto;html=1;exitX=1;exitY=0.5;exitDx=0;exitDy=0;entryX=0;entryY=0.5;entryDx=0;entryDy=0;" parent="1" source="f6eU2KvcjWXK0nryhtgM-41" target="f6eU2KvcjWXK0nryhtgM-44" edge="1">
          <mxGeometry relative="1" as="geometry" />
        </mxCell>
        <mxCell id="f6eU2KvcjWXK0nryhtgM-67" style="edgeStyle=orthogonalEdgeStyle;rounded=0;orthogonalLoop=1;jettySize=auto;html=1;exitX=0.5;exitY=1;exitDx=0;exitDy=0;entryX=0.5;entryY=0;entryDx=0;entryDy=0;" parent="1" source="f6eU2KvcjWXK0nryhtgM-41" target="f6eU2KvcjWXK0nryhtgM-62" edge="1">
          <mxGeometry relative="1" as="geometry" />
        </mxCell>
        <mxCell id="f6eU2KvcjWXK0nryhtgM-85" style="edgeStyle=orthogonalEdgeStyle;rounded=0;orthogonalLoop=1;jettySize=auto;html=1;exitX=0.75;exitY=0;exitDx=0;exitDy=0;entryX=0;entryY=0.5;entryDx=0;entryDy=0;" parent="1" source="f6eU2KvcjWXK0nryhtgM-41" target="f6eU2KvcjWXK0nryhtgM-69" edge="1">
          <mxGeometry relative="1" as="geometry" />
        </mxCell>
        <mxCell id="f6eU2KvcjWXK0nryhtgM-41" value="mmm_offline_spot_level" style="rounded=1;whiteSpace=wrap;html=1;fillColor=#FFFF33;" parent="1" vertex="1">
          <mxGeometry x="400" y="260" width="150" height="40" as="geometry" />
        </mxCell>
        <mxCell id="f6eU2KvcjWXK0nryhtgM-115" value="" style="edgeStyle=orthogonalEdgeStyle;rounded=0;orthogonalLoop=1;jettySize=auto;html=1;" parent="1" source="f6eU2KvcjWXK0nryhtgM-44" target="f6eU2KvcjWXK0nryhtgM-114" edge="1">
          <mxGeometry relative="1" as="geometry" />
        </mxCell>
        <mxCell id="f6eU2KvcjWXK0nryhtgM-44" value="mmm_daily_feed" style="rounded=1;whiteSpace=wrap;html=1;fillColor=#7EA6E0;" parent="1" vertex="1">
          <mxGeometry x="600" y="260" width="100" height="40" as="geometry" />
        </mxCell>
        <mxCell id="f6eU2KvcjWXK0nryhtgM-61" style="edgeStyle=orthogonalEdgeStyle;rounded=0;orthogonalLoop=1;jettySize=auto;html=1;exitX=0.5;exitY=0;exitDx=0;exitDy=0;entryX=0.5;entryY=0;entryDx=0;entryDy=0;" parent="1" source="f6eU2KvcjWXK0nryhtgM-57" target="f6eU2KvcjWXK0nryhtgM-41" edge="1">
          <mxGeometry relative="1" as="geometry">
            <Array as="points">
              <mxPoint x="620" y="80" />
              <mxPoint x="510" y="80" />
              <mxPoint x="510" y="260" />
            </Array>
          </mxGeometry>
        </mxCell>
        <mxCell id="f6eU2KvcjWXK0nryhtgM-73" style="edgeStyle=orthogonalEdgeStyle;rounded=0;orthogonalLoop=1;jettySize=auto;html=1;exitX=0.75;exitY=0;exitDx=0;exitDy=0;entryX=0.5;entryY=1;entryDx=0;entryDy=0;" parent="1" source="f6eU2KvcjWXK0nryhtgM-57" target="f6eU2KvcjWXK0nryhtgM-69" edge="1">
          <mxGeometry relative="1" as="geometry" />
        </mxCell>
        <mxCell id="f6eU2KvcjWXK0nryhtgM-57" value="mmm_offline" style="swimlane;fontStyle=0;childLayout=stackLayout;horizontal=1;startSize=30;horizontalStack=0;resizeParent=1;resizeParentMax=0;resizeLast=0;collapsible=1;marginBottom=0;whiteSpace=wrap;html=1;fillColor=#FFFF33;" parent="1" vertex="1">
          <mxGeometry x="550" y="100" width="140" height="110" as="geometry" />
        </mxCell>
        <mxCell id="f6eU2KvcjWXK0nryhtgM-58" value="impression_date" style="text;strokeColor=none;fillColor=none;align=left;verticalAlign=middle;spacingLeft=4;spacingRight=4;overflow=hidden;points=[[0,0.5],[1,0.5]];portConstraint=eastwest;rotatable=0;whiteSpace=wrap;html=1;" parent="f6eU2KvcjWXK0nryhtgM-57" vertex="1">
          <mxGeometry y="30" width="140" height="30" as="geometry" />
        </mxCell>
        <mxCell id="f6eU2KvcjWXK0nryhtgM-59" value="order_date" style="text;strokeColor=none;fillColor=none;align=left;verticalAlign=middle;spacingLeft=4;spacingRight=4;overflow=hidden;points=[[0,0.5],[1,0.5]];portConstraint=eastwest;rotatable=0;whiteSpace=wrap;html=1;" parent="f6eU2KvcjWXK0nryhtgM-57" vertex="1">
          <mxGeometry y="60" width="140" height="30" as="geometry" />
        </mxCell>
        <mxCell id="f6eU2KvcjWXK0nryhtgM-60" value="orders" style="text;strokeColor=none;fillColor=none;align=left;verticalAlign=middle;spacingLeft=4;spacingRight=4;overflow=hidden;points=[[0,0.5],[1,0.5]];portConstraint=eastwest;rotatable=0;whiteSpace=wrap;html=1;" parent="f6eU2KvcjWXK0nryhtgM-57" vertex="1">
          <mxGeometry y="90" width="140" height="20" as="geometry" />
        </mxCell>
        <mxCell id="f6eU2KvcjWXK0nryhtgM-62" value="mmm_offline_spot_level" style="swimlane;fontStyle=0;childLayout=stackLayout;horizontal=1;startSize=30;horizontalStack=0;resizeParent=1;resizeParentMax=0;resizeLast=0;collapsible=1;marginBottom=0;whiteSpace=wrap;html=1;fillColor=#FFFF33;" parent="1" vertex="1">
          <mxGeometry x="407.5" y="330" width="135" height="120" as="geometry" />
        </mxCell>
        <mxCell id="f6eU2KvcjWXK0nryhtgM-63" value="Item 1" style="text;strokeColor=none;fillColor=none;align=left;verticalAlign=middle;spacingLeft=4;spacingRight=4;overflow=hidden;points=[[0,0.5],[1,0.5]];portConstraint=eastwest;rotatable=0;whiteSpace=wrap;html=1;" parent="f6eU2KvcjWXK0nryhtgM-62" vertex="1">
          <mxGeometry y="30" width="135" height="30" as="geometry" />
        </mxCell>
        <mxCell id="f6eU2KvcjWXK0nryhtgM-64" value="Item 2" style="text;strokeColor=none;fillColor=none;align=left;verticalAlign=middle;spacingLeft=4;spacingRight=4;overflow=hidden;points=[[0,0.5],[1,0.5]];portConstraint=eastwest;rotatable=0;whiteSpace=wrap;html=1;" parent="f6eU2KvcjWXK0nryhtgM-62" vertex="1">
          <mxGeometry y="60" width="135" height="30" as="geometry" />
        </mxCell>
        <mxCell id="f6eU2KvcjWXK0nryhtgM-65" value="Item 3" style="text;strokeColor=none;fillColor=none;align=left;verticalAlign=middle;spacingLeft=4;spacingRight=4;overflow=hidden;points=[[0,0.5],[1,0.5]];portConstraint=eastwest;rotatable=0;whiteSpace=wrap;html=1;" parent="f6eU2KvcjWXK0nryhtgM-62" vertex="1">
          <mxGeometry y="90" width="135" height="30" as="geometry" />
        </mxCell>
        <mxCell id="f6eU2KvcjWXK0nryhtgM-68" style="edgeStyle=orthogonalEdgeStyle;rounded=0;orthogonalLoop=1;jettySize=auto;html=1;exitX=1;exitY=0.5;exitDx=0;exitDy=0;entryX=0.5;entryY=1;entryDx=0;entryDy=0;" parent="1" source="f6eU2KvcjWXK0nryhtgM-64" target="f6eU2KvcjWXK0nryhtgM-44" edge="1">
          <mxGeometry relative="1" as="geometry" />
        </mxCell>
        <mxCell id="f6eU2KvcjWXK0nryhtgM-69" value="ma_off_offline_&lt;div&gt;marketing&lt;/div&gt;&lt;div&gt;datamodel&lt;/div&gt;" style="ellipse;whiteSpace=wrap;html=1;aspect=fixed;fillColor=#FFFF33;" parent="1" vertex="1">
          <mxGeometry x="630" y="-40" width="100" height="100" as="geometry" />
        </mxCell>
        <mxCell id="f6eU2KvcjWXK0nryhtgM-74" value="mmm_display&lt;div&gt;buy_direct_untrackable&lt;/div&gt;" style="rounded=1;whiteSpace=wrap;html=1;fillColor=#66FFFF;" parent="1" vertex="1">
          <mxGeometry x="259" y="400" width="121" height="40" as="geometry" />
        </mxCell>
        <mxCell id="f6eU2KvcjWXK0nryhtgM-75" value="mmm_display&lt;div&gt;trackable&lt;/div&gt;" style="rounded=1;whiteSpace=wrap;html=1;fillColor=#66FFFF;" parent="1" vertex="1">
          <mxGeometry x="260" y="520" width="100" height="40" as="geometry" />
        </mxCell>
        <mxCell id="f6eU2KvcjWXK0nryhtgM-86" value="mmm_input&lt;div&gt;buy_direct_untrackable&lt;/div&gt;" style="swimlane;fontStyle=0;childLayout=stackLayout;horizontal=1;startSize=30;horizontalStack=0;resizeParent=1;resizeParentMax=0;resizeLast=0;collapsible=1;marginBottom=0;whiteSpace=wrap;html=1;fillColor=#66FFFF;" parent="1" vertex="1">
          <mxGeometry x="407.5" y="480" width="140" height="120" as="geometry" />
        </mxCell>
        <mxCell id="f6eU2KvcjWXK0nryhtgM-87" value="Item 1" style="text;strokeColor=none;fillColor=none;align=left;verticalAlign=middle;spacingLeft=4;spacingRight=4;overflow=hidden;points=[[0,0.5],[1,0.5]];portConstraint=eastwest;rotatable=0;whiteSpace=wrap;html=1;" parent="f6eU2KvcjWXK0nryhtgM-86" vertex="1">
          <mxGeometry y="30" width="140" height="30" as="geometry" />
        </mxCell>
        <mxCell id="f6eU2KvcjWXK0nryhtgM-88" value="Item 2" style="text;strokeColor=none;fillColor=none;align=left;verticalAlign=middle;spacingLeft=4;spacingRight=4;overflow=hidden;points=[[0,0.5],[1,0.5]];portConstraint=eastwest;rotatable=0;whiteSpace=wrap;html=1;" parent="f6eU2KvcjWXK0nryhtgM-86" vertex="1">
          <mxGeometry y="60" width="140" height="30" as="geometry" />
        </mxCell>
        <mxCell id="f6eU2KvcjWXK0nryhtgM-89" value="Item 3" style="text;strokeColor=none;fillColor=none;align=left;verticalAlign=middle;spacingLeft=4;spacingRight=4;overflow=hidden;points=[[0,0.5],[1,0.5]];portConstraint=eastwest;rotatable=0;whiteSpace=wrap;html=1;" parent="f6eU2KvcjWXK0nryhtgM-86" vertex="1">
          <mxGeometry y="90" width="140" height="30" as="geometry" />
        </mxCell>
        <mxCell id="f6eU2KvcjWXK0nryhtgM-91" style="edgeStyle=orthogonalEdgeStyle;rounded=0;orthogonalLoop=1;jettySize=auto;html=1;exitX=0;exitY=0.5;exitDx=0;exitDy=0;entryX=1;entryY=1;entryDx=0;entryDy=0;" parent="1" source="f6eU2KvcjWXK0nryhtgM-87" target="f6eU2KvcjWXK0nryhtgM-74" edge="1">
          <mxGeometry relative="1" as="geometry" />
        </mxCell>
        <mxCell id="f6eU2KvcjWXK0nryhtgM-92" value="display_data_model&lt;div&gt;dim_publisher_type&lt;/div&gt;" style="swimlane;fontStyle=0;childLayout=stackLayout;horizontal=1;startSize=30;horizontalStack=0;resizeParent=1;resizeParentMax=0;resizeLast=0;collapsible=1;marginBottom=0;whiteSpace=wrap;html=1;fillColor=#66FFFF;" parent="1" vertex="1">
          <mxGeometry x="590" y="480" width="140" height="120" as="geometry" />
        </mxCell>
        <mxCell id="f6eU2KvcjWXK0nryhtgM-93" value="Item 1" style="text;strokeColor=none;fillColor=none;align=left;verticalAlign=middle;spacingLeft=4;spacingRight=4;overflow=hidden;points=[[0,0.5],[1,0.5]];portConstraint=eastwest;rotatable=0;whiteSpace=wrap;html=1;" parent="f6eU2KvcjWXK0nryhtgM-92" vertex="1">
          <mxGeometry y="30" width="140" height="30" as="geometry" />
        </mxCell>
        <mxCell id="f6eU2KvcjWXK0nryhtgM-94" value="Item 2" style="text;strokeColor=none;fillColor=none;align=left;verticalAlign=middle;spacingLeft=4;spacingRight=4;overflow=hidden;points=[[0,0.5],[1,0.5]];portConstraint=eastwest;rotatable=0;whiteSpace=wrap;html=1;" parent="f6eU2KvcjWXK0nryhtgM-92" vertex="1">
          <mxGeometry y="60" width="140" height="30" as="geometry" />
        </mxCell>
        <mxCell id="f6eU2KvcjWXK0nryhtgM-95" value="Item 3" style="text;strokeColor=none;fillColor=none;align=left;verticalAlign=middle;spacingLeft=4;spacingRight=4;overflow=hidden;points=[[0,0.5],[1,0.5]];portConstraint=eastwest;rotatable=0;whiteSpace=wrap;html=1;" parent="f6eU2KvcjWXK0nryhtgM-92" vertex="1">
          <mxGeometry y="90" width="140" height="30" as="geometry" />
        </mxCell>
        <mxCell id="f6eU2KvcjWXK0nryhtgM-105" style="edgeStyle=orthogonalEdgeStyle;rounded=0;orthogonalLoop=1;jettySize=auto;html=1;exitX=0;exitY=0.5;exitDx=0;exitDy=0;entryX=1;entryY=0.5;entryDx=0;entryDy=0;" parent="1" source="f6eU2KvcjWXK0nryhtgM-94" target="f6eU2KvcjWXK0nryhtgM-88" edge="1">
          <mxGeometry relative="1" as="geometry" />
        </mxCell>
        <mxCell id="f6eU2KvcjWXK0nryhtgM-107" value="Merge" style="text;html=1;align=center;verticalAlign=middle;resizable=0;points=[];autosize=1;strokeColor=none;fillColor=none;" parent="1" vertex="1">
          <mxGeometry x="540" y="525" width="60" height="30" as="geometry" />
        </mxCell>
        <mxCell id="f6eU2KvcjWXK0nryhtgM-108" value="mmm_display&lt;div&gt;buy_direct_untrackable&lt;/div&gt;" style="swimlane;fontStyle=0;childLayout=stackLayout;horizontal=1;startSize=30;horizontalStack=0;resizeParent=1;resizeParentMax=0;resizeLast=0;collapsible=1;marginBottom=0;whiteSpace=wrap;html=1;fillColor=#66FFFF;" parent="1" vertex="1">
          <mxGeometry x="35" y="420" width="140" height="120" as="geometry" />
        </mxCell>
        <mxCell id="f6eU2KvcjWXK0nryhtgM-109" value="Item 1" style="text;strokeColor=none;fillColor=none;align=left;verticalAlign=middle;spacingLeft=4;spacingRight=4;overflow=hidden;points=[[0,0.5],[1,0.5]];portConstraint=eastwest;rotatable=0;whiteSpace=wrap;html=1;" parent="f6eU2KvcjWXK0nryhtgM-108" vertex="1">
          <mxGeometry y="30" width="140" height="30" as="geometry" />
        </mxCell>
        <mxCell id="f6eU2KvcjWXK0nryhtgM-110" value="Item 2" style="text;strokeColor=none;fillColor=none;align=left;verticalAlign=middle;spacingLeft=4;spacingRight=4;overflow=hidden;points=[[0,0.5],[1,0.5]];portConstraint=eastwest;rotatable=0;whiteSpace=wrap;html=1;" parent="f6eU2KvcjWXK0nryhtgM-108" vertex="1">
          <mxGeometry y="60" width="140" height="30" as="geometry" />
        </mxCell>
        <mxCell id="f6eU2KvcjWXK0nryhtgM-111" value="Item 3" style="text;strokeColor=none;fillColor=none;align=left;verticalAlign=middle;spacingLeft=4;spacingRight=4;overflow=hidden;points=[[0,0.5],[1,0.5]];portConstraint=eastwest;rotatable=0;whiteSpace=wrap;html=1;" parent="f6eU2KvcjWXK0nryhtgM-108" vertex="1">
          <mxGeometry y="90" width="140" height="30" as="geometry" />
        </mxCell>
        <mxCell id="f6eU2KvcjWXK0nryhtgM-113" style="edgeStyle=orthogonalEdgeStyle;rounded=0;orthogonalLoop=1;jettySize=auto;html=1;exitX=0.25;exitY=0;exitDx=0;exitDy=0;entryX=0.564;entryY=-0.008;entryDx=0;entryDy=0;entryPerimeter=0;" parent="1" source="f6eU2KvcjWXK0nryhtgM-74" target="f6eU2KvcjWXK0nryhtgM-108" edge="1">
          <mxGeometry relative="1" as="geometry" />
        </mxCell>
        <mxCell id="f6eU2KvcjWXK0nryhtgM-114" value="MA_ATT&lt;div&gt;Attribution_data&lt;/div&gt;" style="ellipse;whiteSpace=wrap;html=1;aspect=fixed;fillColor=#7EA6E0;" parent="1" vertex="1">
          <mxGeometry x="750" y="210" width="100" height="100" as="geometry" />
        </mxCell>
        <mxCell id="f6eU2KvcjWXK0nryhtgM-116" value="mmm_input&lt;div&gt;programmatic_untrackable&lt;/div&gt;" style="swimlane;fontStyle=0;childLayout=stackLayout;horizontal=1;startSize=30;horizontalStack=0;resizeParent=1;resizeParentMax=0;resizeLast=0;collapsible=1;marginBottom=0;whiteSpace=wrap;html=1;fillColor=#66FFFF;" parent="1" vertex="1">
          <mxGeometry x="35" y="570" width="140" height="120" as="geometry" />
        </mxCell>
        <mxCell id="f6eU2KvcjWXK0nryhtgM-117" value="Item 1" style="text;strokeColor=none;fillColor=none;align=left;verticalAlign=middle;spacingLeft=4;spacingRight=4;overflow=hidden;points=[[0,0.5],[1,0.5]];portConstraint=eastwest;rotatable=0;whiteSpace=wrap;html=1;" parent="f6eU2KvcjWXK0nryhtgM-116" vertex="1">
          <mxGeometry y="30" width="140" height="30" as="geometry" />
        </mxCell>
        <mxCell id="f6eU2KvcjWXK0nryhtgM-118" value="Item 2" style="text;strokeColor=none;fillColor=none;align=left;verticalAlign=middle;spacingLeft=4;spacingRight=4;overflow=hidden;points=[[0,0.5],[1,0.5]];portConstraint=eastwest;rotatable=0;whiteSpace=wrap;html=1;" parent="f6eU2KvcjWXK0nryhtgM-116" vertex="1">
          <mxGeometry y="60" width="140" height="30" as="geometry" />
        </mxCell>
        <mxCell id="f6eU2KvcjWXK0nryhtgM-119" value="Item 3" style="text;strokeColor=none;fillColor=none;align=left;verticalAlign=middle;spacingLeft=4;spacingRight=4;overflow=hidden;points=[[0,0.5],[1,0.5]];portConstraint=eastwest;rotatable=0;whiteSpace=wrap;html=1;" parent="f6eU2KvcjWXK0nryhtgM-116" vertex="1">
          <mxGeometry y="90" width="140" height="30" as="geometry" />
        </mxCell>
        <mxCell id="f6eU2KvcjWXK0nryhtgM-123" style="edgeStyle=orthogonalEdgeStyle;rounded=0;orthogonalLoop=1;jettySize=auto;html=1;exitX=1;exitY=0.5;exitDx=0;exitDy=0;" parent="1" source="f6eU2KvcjWXK0nryhtgM-117" target="f6eU2KvcjWXK0nryhtgM-34" edge="1">
          <mxGeometry relative="1" as="geometry" />
        </mxCell>
        <mxCell id="f6eU2KvcjWXK0nryhtgM-124" value="mmm_display&lt;div&gt;programmatic_untrackable&lt;/div&gt;" style="swimlane;fontStyle=0;childLayout=stackLayout;horizontal=1;startSize=30;horizontalStack=0;resizeParent=1;resizeParentMax=0;resizeLast=0;collapsible=1;marginBottom=0;whiteSpace=wrap;html=1;fillColor=#66FFFF;" parent="1" vertex="1">
          <mxGeometry x="402.5" y="630" width="150" height="120" as="geometry" />
        </mxCell>
        <mxCell id="f6eU2KvcjWXK0nryhtgM-125" value="Item 1" style="text;strokeColor=none;fillColor=none;align=left;verticalAlign=middle;spacingLeft=4;spacingRight=4;overflow=hidden;points=[[0,0.5],[1,0.5]];portConstraint=eastwest;rotatable=0;whiteSpace=wrap;html=1;" parent="f6eU2KvcjWXK0nryhtgM-124" vertex="1">
          <mxGeometry y="30" width="150" height="30" as="geometry" />
        </mxCell>
        <mxCell id="f6eU2KvcjWXK0nryhtgM-126" value="Item 2" style="text;strokeColor=none;fillColor=none;align=left;verticalAlign=middle;spacingLeft=4;spacingRight=4;overflow=hidden;points=[[0,0.5],[1,0.5]];portConstraint=eastwest;rotatable=0;whiteSpace=wrap;html=1;" parent="f6eU2KvcjWXK0nryhtgM-124" vertex="1">
          <mxGeometry y="60" width="150" height="30" as="geometry" />
        </mxCell>
        <mxCell id="f6eU2KvcjWXK0nryhtgM-127" value="Item 3" style="text;strokeColor=none;fillColor=none;align=left;verticalAlign=middle;spacingLeft=4;spacingRight=4;overflow=hidden;points=[[0,0.5],[1,0.5]];portConstraint=eastwest;rotatable=0;whiteSpace=wrap;html=1;" parent="f6eU2KvcjWXK0nryhtgM-124" vertex="1">
          <mxGeometry y="90" width="150" height="30" as="geometry" />
        </mxCell>
        <mxCell id="f6eU2KvcjWXK0nryhtgM-135" style="edgeStyle=orthogonalEdgeStyle;rounded=0;orthogonalLoop=1;jettySize=auto;html=1;exitX=0.5;exitY=0;exitDx=0;exitDy=0;entryX=0.75;entryY=1;entryDx=0;entryDy=0;" parent="1" source="f6eU2KvcjWXK0nryhtgM-131" target="f6eU2KvcjWXK0nryhtgM-75" edge="1">
          <mxGeometry relative="1" as="geometry" />
        </mxCell>
        <mxCell id="f6eU2KvcjWXK0nryhtgM-131" value="display_data_model&lt;div&gt;display_data&lt;/div&gt;" style="swimlane;fontStyle=0;childLayout=stackLayout;horizontal=1;startSize=30;horizontalStack=0;resizeParent=1;resizeParentMax=0;resizeLast=0;collapsible=1;marginBottom=0;whiteSpace=wrap;html=1;fillColor=#66FFFF;" parent="1" vertex="1">
          <mxGeometry x="10" y="760" width="140" height="120" as="geometry" />
        </mxCell>
        <mxCell id="f6eU2KvcjWXK0nryhtgM-132" value="Item 1" style="text;strokeColor=none;fillColor=none;align=left;verticalAlign=middle;spacingLeft=4;spacingRight=4;overflow=hidden;points=[[0,0.5],[1,0.5]];portConstraint=eastwest;rotatable=0;whiteSpace=wrap;html=1;" parent="f6eU2KvcjWXK0nryhtgM-131" vertex="1">
          <mxGeometry y="30" width="140" height="30" as="geometry" />
        </mxCell>
        <mxCell id="f6eU2KvcjWXK0nryhtgM-133" value="Item 2" style="text;strokeColor=none;fillColor=none;align=left;verticalAlign=middle;spacingLeft=4;spacingRight=4;overflow=hidden;points=[[0,0.5],[1,0.5]];portConstraint=eastwest;rotatable=0;whiteSpace=wrap;html=1;" parent="f6eU2KvcjWXK0nryhtgM-131" vertex="1">
          <mxGeometry y="60" width="140" height="30" as="geometry" />
        </mxCell>
        <mxCell id="f6eU2KvcjWXK0nryhtgM-134" value="Item 3" style="text;strokeColor=none;fillColor=none;align=left;verticalAlign=middle;spacingLeft=4;spacingRight=4;overflow=hidden;points=[[0,0.5],[1,0.5]];portConstraint=eastwest;rotatable=0;whiteSpace=wrap;html=1;" parent="f6eU2KvcjWXK0nryhtgM-131" vertex="1">
          <mxGeometry y="90" width="140" height="30" as="geometry" />
        </mxCell>
        <mxCell id="f6eU2KvcjWXK0nryhtgM-140" style="edgeStyle=orthogonalEdgeStyle;rounded=0;orthogonalLoop=1;jettySize=auto;html=1;entryX=0.25;entryY=1;entryDx=0;entryDy=0;" parent="1" source="f6eU2KvcjWXK0nryhtgM-136" target="f6eU2KvcjWXK0nryhtgM-75" edge="1">
          <mxGeometry relative="1" as="geometry" />
        </mxCell>
        <mxCell id="f6eU2KvcjWXK0nryhtgM-136" value="marketing_mix_model&lt;div&gt;display_mmm_conversion_rates&lt;/div&gt;" style="swimlane;fontStyle=0;childLayout=stackLayout;horizontal=1;startSize=30;horizontalStack=0;resizeParent=1;resizeParentMax=0;resizeLast=0;collapsible=1;marginBottom=0;whiteSpace=wrap;html=1;fillColor=#66FFFF;" parent="1" vertex="1">
          <mxGeometry x="175" y="760" width="180" height="120" as="geometry" />
        </mxCell>
        <mxCell id="f6eU2KvcjWXK0nryhtgM-137" value="Item 1" style="text;strokeColor=none;fillColor=none;align=left;verticalAlign=middle;spacingLeft=4;spacingRight=4;overflow=hidden;points=[[0,0.5],[1,0.5]];portConstraint=eastwest;rotatable=0;whiteSpace=wrap;html=1;" parent="f6eU2KvcjWXK0nryhtgM-136" vertex="1">
          <mxGeometry y="30" width="180" height="30" as="geometry" />
        </mxCell>
        <mxCell id="f6eU2KvcjWXK0nryhtgM-138" value="Item 2" style="text;strokeColor=none;fillColor=none;align=left;verticalAlign=middle;spacingLeft=4;spacingRight=4;overflow=hidden;points=[[0,0.5],[1,0.5]];portConstraint=eastwest;rotatable=0;whiteSpace=wrap;html=1;" parent="f6eU2KvcjWXK0nryhtgM-136" vertex="1">
          <mxGeometry y="60" width="180" height="30" as="geometry" />
        </mxCell>
        <mxCell id="f6eU2KvcjWXK0nryhtgM-139" value="Item 3" style="text;strokeColor=none;fillColor=none;align=left;verticalAlign=middle;spacingLeft=4;spacingRight=4;overflow=hidden;points=[[0,0.5],[1,0.5]];portConstraint=eastwest;rotatable=0;whiteSpace=wrap;html=1;" parent="f6eU2KvcjWXK0nryhtgM-136" vertex="1">
          <mxGeometry y="90" width="180" height="30" as="geometry" />
        </mxCell>
        <mxCell id="f6eU2KvcjWXK0nryhtgM-142" value="mmm_display&lt;div&gt;trackable&lt;/div&gt;" style="swimlane;fontStyle=0;childLayout=stackLayout;horizontal=1;startSize=30;horizontalStack=0;resizeParent=1;resizeParentMax=0;resizeLast=0;collapsible=1;marginBottom=0;whiteSpace=wrap;html=1;fillColor=#66FFFF;" parent="1" vertex="1">
          <mxGeometry x="402.5" y="770" width="140" height="120" as="geometry" />
        </mxCell>
        <mxCell id="f6eU2KvcjWXK0nryhtgM-143" value="Item 1" style="text;strokeColor=none;fillColor=none;align=left;verticalAlign=middle;spacingLeft=4;spacingRight=4;overflow=hidden;points=[[0,0.5],[1,0.5]];portConstraint=eastwest;rotatable=0;whiteSpace=wrap;html=1;" parent="f6eU2KvcjWXK0nryhtgM-142" vertex="1">
          <mxGeometry y="30" width="140" height="30" as="geometry" />
        </mxCell>
        <mxCell id="f6eU2KvcjWXK0nryhtgM-144" value="Item 2" style="text;strokeColor=none;fillColor=none;align=left;verticalAlign=middle;spacingLeft=4;spacingRight=4;overflow=hidden;points=[[0,0.5],[1,0.5]];portConstraint=eastwest;rotatable=0;whiteSpace=wrap;html=1;" parent="f6eU2KvcjWXK0nryhtgM-142" vertex="1">
          <mxGeometry y="60" width="140" height="30" as="geometry" />
        </mxCell>
        <mxCell id="f6eU2KvcjWXK0nryhtgM-145" value="Item 3" style="text;strokeColor=none;fillColor=none;align=left;verticalAlign=middle;spacingLeft=4;spacingRight=4;overflow=hidden;points=[[0,0.5],[1,0.5]];portConstraint=eastwest;rotatable=0;whiteSpace=wrap;html=1;" parent="f6eU2KvcjWXK0nryhtgM-142" vertex="1">
          <mxGeometry y="90" width="140" height="30" as="geometry" />
        </mxCell>
        <mxCell id="f6eU2KvcjWXK0nryhtgM-146" style="edgeStyle=orthogonalEdgeStyle;rounded=0;orthogonalLoop=1;jettySize=auto;html=1;exitX=1;exitY=0.5;exitDx=0;exitDy=0;entryX=0.011;entryY=0.067;entryDx=0;entryDy=0;entryPerimeter=0;" parent="1" source="f6eU2KvcjWXK0nryhtgM-75" target="f6eU2KvcjWXK0nryhtgM-144" edge="1">
          <mxGeometry relative="1" as="geometry" />
        </mxCell>
        <mxCell id="f6eU2KvcjWXK0nryhtgM-147" value="ma_di&lt;div&gt;display&lt;/div&gt;&lt;div&gt;datamodel&lt;/div&gt;" style="ellipse;whiteSpace=wrap;html=1;aspect=fixed;fillColor=#66FFFF;" parent="1" vertex="1">
          <mxGeometry x="610" y="670" width="100" height="100" as="geometry" />
        </mxCell>
        <mxCell id="f6eU2KvcjWXK0nryhtgM-149" style="edgeStyle=orthogonalEdgeStyle;rounded=0;orthogonalLoop=1;jettySize=auto;html=1;exitX=0.75;exitY=0;exitDx=0;exitDy=0;entryX=0.73;entryY=0.07;entryDx=0;entryDy=0;entryPerimeter=0;" parent="1" source="f6eU2KvcjWXK0nryhtgM-108" target="f6eU2KvcjWXK0nryhtgM-147" edge="1">
          <mxGeometry relative="1" as="geometry" />
        </mxCell>
        <mxCell id="f6eU2KvcjWXK0nryhtgM-150" style="edgeStyle=orthogonalEdgeStyle;rounded=0;orthogonalLoop=1;jettySize=auto;html=1;entryX=0.01;entryY=0.35;entryDx=0;entryDy=0;entryPerimeter=0;" parent="1" source="f6eU2KvcjWXK0nryhtgM-126" target="f6eU2KvcjWXK0nryhtgM-147" edge="1">
          <mxGeometry relative="1" as="geometry" />
        </mxCell>
        <mxCell id="f6eU2KvcjWXK0nryhtgM-151" style="edgeStyle=orthogonalEdgeStyle;rounded=0;orthogonalLoop=1;jettySize=auto;html=1;exitX=1;exitY=0.5;exitDx=0;exitDy=0;entryX=0.5;entryY=1;entryDx=0;entryDy=0;" parent="1" source="f6eU2KvcjWXK0nryhtgM-143" target="f6eU2KvcjWXK0nryhtgM-147" edge="1">
          <mxGeometry relative="1" as="geometry" />
        </mxCell>
        <mxCell id="c8S5r9njGLLlTQu-HQcc-9" style="edgeStyle=orthogonalEdgeStyle;rounded=0;orthogonalLoop=1;jettySize=auto;html=1;exitX=1;exitY=0.5;exitDx=0;exitDy=0;" parent="1" source="c8S5r9njGLLlTQu-HQcc-1" target="c8S5r9njGLLlTQu-HQcc-8" edge="1">
          <mxGeometry relative="1" as="geometry" />
        </mxCell>
        <mxCell id="c8S5r9njGLLlTQu-HQcc-1" value="regional_data_bf_search" style="rounded=1;whiteSpace=wrap;html=1;" parent="1" vertex="1">
          <mxGeometry x="45" y="960" width="195" height="30" as="geometry" />
        </mxCell>
        <mxCell id="c8S5r9njGLLlTQu-HQcc-10" style="edgeStyle=orthogonalEdgeStyle;rounded=0;orthogonalLoop=1;jettySize=auto;html=1;entryX=0.5;entryY=0;entryDx=0;entryDy=0;" parent="1" source="c8S5r9njGLLlTQu-HQcc-2" target="c8S5r9njGLLlTQu-HQcc-8" edge="1">
          <mxGeometry relative="1" as="geometry" />
        </mxCell>
        <mxCell id="c8S5r9njGLLlTQu-HQcc-2" value="regional_data_google_ads" style="rounded=1;whiteSpace=wrap;html=1;" parent="1" vertex="1">
          <mxGeometry x="45" y="1010" width="195" height="30" as="geometry" />
        </mxCell>
        <mxCell id="c8S5r9njGLLlTQu-HQcc-11" style="edgeStyle=orthogonalEdgeStyle;rounded=0;orthogonalLoop=1;jettySize=auto;html=1;exitX=1;exitY=0.5;exitDx=0;exitDy=0;" parent="1" source="c8S5r9njGLLlTQu-HQcc-3" target="c8S5r9njGLLlTQu-HQcc-8" edge="1">
          <mxGeometry relative="1" as="geometry" />
        </mxCell>
        <mxCell id="c8S5r9njGLLlTQu-HQcc-3" value="regional_data_market_size" style="rounded=1;whiteSpace=wrap;html=1;" parent="1" vertex="1">
          <mxGeometry x="45" y="1060" width="195" height="30" as="geometry" />
        </mxCell>
        <mxCell id="c8S5r9njGLLlTQu-HQcc-12" style="edgeStyle=orthogonalEdgeStyle;rounded=0;orthogonalLoop=1;jettySize=auto;html=1;exitX=1;exitY=0.5;exitDx=0;exitDy=0;entryX=0.5;entryY=1;entryDx=0;entryDy=0;" parent="1" source="c8S5r9njGLLlTQu-HQcc-4" target="c8S5r9njGLLlTQu-HQcc-8" edge="1">
          <mxGeometry relative="1" as="geometry" />
        </mxCell>
        <mxCell id="c8S5r9njGLLlTQu-HQcc-4" value="regional_data_offline" style="rounded=1;whiteSpace=wrap;html=1;" parent="1" vertex="1">
          <mxGeometry x="45" y="1110" width="195" height="30" as="geometry" />
        </mxCell>
        <mxCell id="c8S5r9njGLLlTQu-HQcc-13" style="edgeStyle=orthogonalEdgeStyle;rounded=0;orthogonalLoop=1;jettySize=auto;html=1;exitX=1;exitY=0.5;exitDx=0;exitDy=0;entryX=0.5;entryY=1;entryDx=0;entryDy=0;" parent="1" source="c8S5r9njGLLlTQu-HQcc-5" target="c8S5r9njGLLlTQu-HQcc-8" edge="1">
          <mxGeometry relative="1" as="geometry" />
        </mxCell>
        <mxCell id="c8S5r9njGLLlTQu-HQcc-5" value="regional_data_orders" style="rounded=1;whiteSpace=wrap;html=1;" parent="1" vertex="1">
          <mxGeometry x="45" y="1160" width="195" height="30" as="geometry" />
        </mxCell>
        <mxCell id="c8S5r9njGLLlTQu-HQcc-14" style="edgeStyle=orthogonalEdgeStyle;rounded=0;orthogonalLoop=1;jettySize=auto;html=1;exitX=1;exitY=0.5;exitDx=0;exitDy=0;entryX=0.5;entryY=1;entryDx=0;entryDy=0;" parent="1" source="c8S5r9njGLLlTQu-HQcc-6" target="c8S5r9njGLLlTQu-HQcc-8" edge="1">
          <mxGeometry relative="1" as="geometry" />
        </mxCell>
        <mxCell id="c8S5r9njGLLlTQu-HQcc-6" value="regional_data_social" style="rounded=1;whiteSpace=wrap;html=1;" parent="1" vertex="1">
          <mxGeometry x="45" y="1210" width="195" height="30" as="geometry" />
        </mxCell>
        <mxCell id="c8S5r9njGLLlTQu-HQcc-15" style="edgeStyle=orthogonalEdgeStyle;rounded=0;orthogonalLoop=1;jettySize=auto;html=1;entryX=0.5;entryY=1;entryDx=0;entryDy=0;" parent="1" source="c8S5r9njGLLlTQu-HQcc-7" target="c8S5r9njGLLlTQu-HQcc-8" edge="1">
          <mxGeometry relative="1" as="geometry" />
        </mxCell>
        <mxCell id="c8S5r9njGLLlTQu-HQcc-7" value="regional_data_video_ga" style="rounded=1;whiteSpace=wrap;html=1;" parent="1" vertex="1">
          <mxGeometry x="45" y="1260" width="195" height="30" as="geometry" />
        </mxCell>
        <mxCell id="c8S5r9njGLLlTQu-HQcc-8" value="regional_marketing_mix_model_data" style="rounded=1;whiteSpace=wrap;html=1;" parent="1" vertex="1">
          <mxGeometry x="320" y="1070" width="230" height="30" as="geometry" />
        </mxCell>
      </root>
    </mxGraphModel>
  </diagram>
  <diagram name="attribution_bayesian_dag_mmm" id="5P8NU-odAXHUH9JIDdW0">
    <mxGraphModel dx="1674" dy="761" grid="1" gridSize="10" guides="1" tooltips="1" connect="1" arrows="1" fold="1" page="1" pageScale="1" pageWidth="850" pageHeight="1100" math="0" shadow="0">
      <root>
        <mxCell id="Rz7fzVzhmolXz_tKs0rD-0" />
        <mxCell id="Rz7fzVzhmolXz_tKs0rD-1" parent="Rz7fzVzhmolXz_tKs0rD-0" />
        <mxCell id="vn17IyW-fjxWGuu_XfIY-0" value="" style="rounded=0;whiteSpace=wrap;html=1;fillColor=#CCFFFF;" vertex="1" parent="Rz7fzVzhmolXz_tKs0rD-1">
          <mxGeometry x="370" y="180" width="160" height="140" as="geometry" />
        </mxCell>
        <mxCell id="Rz7fzVzhmolXz_tKs0rD-2" style="edgeStyle=orthogonalEdgeStyle;rounded=0;orthogonalLoop=1;jettySize=auto;html=1;entryX=0;entryY=0.5;entryDx=0;entryDy=0;" parent="Rz7fzVzhmolXz_tKs0rD-1" source="Rz7fzVzhmolXz_tKs0rD-7" target="Rz7fzVzhmolXz_tKs0rD-12" edge="1">
          <mxGeometry relative="1" as="geometry" />
        </mxCell>
        <mxCell id="Rz7fzVzhmolXz_tKs0rD-3" style="edgeStyle=orthogonalEdgeStyle;rounded=0;orthogonalLoop=1;jettySize=auto;html=1;exitX=1;exitY=0.5;exitDx=0;exitDy=0;entryX=0;entryY=0.5;entryDx=0;entryDy=0;" parent="Rz7fzVzhmolXz_tKs0rD-1" source="Rz7fzVzhmolXz_tKs0rD-7" target="Rz7fzVzhmolXz_tKs0rD-20" edge="1">
          <mxGeometry relative="1" as="geometry" />
        </mxCell>
        <mxCell id="Rz7fzVzhmolXz_tKs0rD-4" style="edgeStyle=orthogonalEdgeStyle;rounded=0;orthogonalLoop=1;jettySize=auto;html=1;exitX=1;exitY=0.5;exitDx=0;exitDy=0;entryX=0;entryY=0.5;entryDx=0;entryDy=0;" parent="Rz7fzVzhmolXz_tKs0rD-1" source="Rz7fzVzhmolXz_tKs0rD-7" target="Rz7fzVzhmolXz_tKs0rD-28" edge="1">
          <mxGeometry relative="1" as="geometry" />
        </mxCell>
        <mxCell id="Rz7fzVzhmolXz_tKs0rD-5" style="edgeStyle=orthogonalEdgeStyle;rounded=0;orthogonalLoop=1;jettySize=auto;html=1;exitX=1;exitY=0.5;exitDx=0;exitDy=0;entryX=0;entryY=0.5;entryDx=0;entryDy=0;" parent="Rz7fzVzhmolXz_tKs0rD-1" source="Rz7fzVzhmolXz_tKs0rD-7" target="Rz7fzVzhmolXz_tKs0rD-51" edge="1">
          <mxGeometry relative="1" as="geometry" />
        </mxCell>
        <mxCell id="Rz7fzVzhmolXz_tKs0rD-6" style="edgeStyle=orthogonalEdgeStyle;rounded=0;orthogonalLoop=1;jettySize=auto;html=1;exitX=1;exitY=0.5;exitDx=0;exitDy=0;entryX=0;entryY=0.5;entryDx=0;entryDy=0;" parent="Rz7fzVzhmolXz_tKs0rD-1" source="Rz7fzVzhmolXz_tKs0rD-7" target="Rz7fzVzhmolXz_tKs0rD-26" edge="1">
          <mxGeometry relative="1" as="geometry" />
        </mxCell>
        <mxCell id="Rz7fzVzhmolXz_tKs0rD-7" value="mmm_decay_effect" style="rounded=1;whiteSpace=wrap;html=1;" parent="Rz7fzVzhmolXz_tKs0rD-1" vertex="1">
          <mxGeometry x="70" y="260" width="130" height="40" as="geometry" />
        </mxCell>
        <mxCell id="Rz7fzVzhmolXz_tKs0rD-8" style="edgeStyle=orthogonalEdgeStyle;rounded=0;orthogonalLoop=1;jettySize=auto;html=1;exitX=1;exitY=0.5;exitDx=0;exitDy=0;entryX=0;entryY=0.5;entryDx=0;entryDy=0;" parent="Rz7fzVzhmolXz_tKs0rD-1" source="Rz7fzVzhmolXz_tKs0rD-9" target="Rz7fzVzhmolXz_tKs0rD-52" edge="1">
          <mxGeometry relative="1" as="geometry" />
        </mxCell>
        <mxCell id="Rz7fzVzhmolXz_tKs0rD-9" value="mmm_diminishing_returns" style="rounded=1;whiteSpace=wrap;html=1;" parent="Rz7fzVzhmolXz_tKs0rD-1" vertex="1">
          <mxGeometry x="50" y="320" width="150" height="40" as="geometry" />
        </mxCell>
        <mxCell id="OF6AfKX3plGfRN8sSOIg-0" style="edgeStyle=orthogonalEdgeStyle;rounded=0;orthogonalLoop=1;jettySize=auto;html=1;exitX=1;exitY=0.5;exitDx=0;exitDy=0;entryX=0;entryY=0.5;entryDx=0;entryDy=0;" edge="1" parent="Rz7fzVzhmolXz_tKs0rD-1" source="Rz7fzVzhmolXz_tKs0rD-12" target="A5mq1q71OgkTQPKw5XMW-5">
          <mxGeometry relative="1" as="geometry" />
        </mxCell>
        <mxCell id="Za2SJy8QyKdaQlohPJP_-5" style="edgeStyle=orthogonalEdgeStyle;rounded=0;orthogonalLoop=1;jettySize=auto;html=1;exitX=0.5;exitY=0;exitDx=0;exitDy=0;entryX=0;entryY=0.5;entryDx=0;entryDy=0;" edge="1" parent="Rz7fzVzhmolXz_tKs0rD-1" source="Rz7fzVzhmolXz_tKs0rD-12" target="Za2SJy8QyKdaQlohPJP_-2">
          <mxGeometry relative="1" as="geometry" />
        </mxCell>
        <mxCell id="Rz7fzVzhmolXz_tKs0rD-12" value="mmm_social" style="rounded=1;whiteSpace=wrap;html=1;fillColor=#FFCC99;" parent="Rz7fzVzhmolXz_tKs0rD-1" vertex="1">
          <mxGeometry x="260" y="200" width="100" height="40" as="geometry" />
        </mxCell>
        <mxCell id="A5mq1q71OgkTQPKw5XMW-2" value="" style="edgeStyle=orthogonalEdgeStyle;rounded=0;orthogonalLoop=1;jettySize=auto;html=1;" edge="1" parent="Rz7fzVzhmolXz_tKs0rD-1" source="Rz7fzVzhmolXz_tKs0rD-20" target="A5mq1q71OgkTQPKw5XMW-1">
          <mxGeometry relative="1" as="geometry" />
        </mxCell>
        <mxCell id="Whm-rnRkTMfM7RXwqzS--4" style="edgeStyle=orthogonalEdgeStyle;rounded=0;orthogonalLoop=1;jettySize=auto;html=1;exitX=0.5;exitY=1;exitDx=0;exitDy=0;entryX=0;entryY=0.5;entryDx=0;entryDy=0;" edge="1" parent="Rz7fzVzhmolXz_tKs0rD-1" source="Rz7fzVzhmolXz_tKs0rD-20" target="Whm-rnRkTMfM7RXwqzS--0">
          <mxGeometry relative="1" as="geometry" />
        </mxCell>
        <mxCell id="Rz7fzVzhmolXz_tKs0rD-20" value="mmm_offline" style="rounded=1;whiteSpace=wrap;html=1;fillColor=#FFFF33;" parent="Rz7fzVzhmolXz_tKs0rD-1" vertex="1">
          <mxGeometry x="260" y="260" width="100" height="40" as="geometry" />
        </mxCell>
        <mxCell id="Rz7fzVzhmolXz_tKs0rD-26" value="mmm_video" style="rounded=1;whiteSpace=wrap;html=1;fillColor=#FF00FF;" parent="Rz7fzVzhmolXz_tKs0rD-1" vertex="1">
          <mxGeometry x="259" y="330" width="100" height="40" as="geometry" />
        </mxCell>
        <mxCell id="Rz7fzVzhmolXz_tKs0rD-28" value="mmm_display&lt;div&gt;programmatic&lt;/div&gt;&lt;div&gt;untrackable&lt;/div&gt;" style="rounded=1;whiteSpace=wrap;html=1;fillColor=#66FFFF;" parent="Rz7fzVzhmolXz_tKs0rD-1" vertex="1">
          <mxGeometry x="259" y="460" width="100" height="40" as="geometry" />
        </mxCell>
        <mxCell id="A5mq1q71OgkTQPKw5XMW-4" value="" style="edgeStyle=orthogonalEdgeStyle;rounded=0;orthogonalLoop=1;jettySize=auto;html=1;" edge="1" parent="Rz7fzVzhmolXz_tKs0rD-1" source="Rz7fzVzhmolXz_tKs0rD-36" target="Rz7fzVzhmolXz_tKs0rD-38">
          <mxGeometry relative="1" as="geometry" />
        </mxCell>
        <mxCell id="Rz7fzVzhmolXz_tKs0rD-36" value="mmm_offline_spot_level" style="rounded=1;whiteSpace=wrap;html=1;fillColor=#FFFF33;" parent="Rz7fzVzhmolXz_tKs0rD-1" vertex="1">
          <mxGeometry x="530" y="260" width="150" height="40" as="geometry" />
        </mxCell>
        <mxCell id="Rz7fzVzhmolXz_tKs0rD-38" value="mmm_daily_feed" style="rounded=1;whiteSpace=wrap;html=1;fillColor=#7EA6E0;" parent="Rz7fzVzhmolXz_tKs0rD-1" vertex="1">
          <mxGeometry x="710" y="260" width="100" height="40" as="geometry" />
        </mxCell>
        <mxCell id="Rz7fzVzhmolXz_tKs0rD-51" value="mmm_display&lt;div&gt;buy_direct_untrackable&lt;/div&gt;" style="rounded=1;whiteSpace=wrap;html=1;fillColor=#66FFFF;" parent="Rz7fzVzhmolXz_tKs0rD-1" vertex="1">
          <mxGeometry x="259" y="400" width="121" height="40" as="geometry" />
        </mxCell>
        <mxCell id="Rz7fzVzhmolXz_tKs0rD-52" value="mmm_display&lt;div&gt;trackable&lt;/div&gt;" style="rounded=1;whiteSpace=wrap;html=1;fillColor=#66FFFF;" parent="Rz7fzVzhmolXz_tKs0rD-1" vertex="1">
          <mxGeometry x="260" y="520" width="100" height="40" as="geometry" />
        </mxCell>
        <mxCell id="A5mq1q71OgkTQPKw5XMW-3" value="" style="edgeStyle=orthogonalEdgeStyle;rounded=0;orthogonalLoop=1;jettySize=auto;html=1;" edge="1" parent="Rz7fzVzhmolXz_tKs0rD-1" source="A5mq1q71OgkTQPKw5XMW-1" target="Rz7fzVzhmolXz_tKs0rD-36">
          <mxGeometry relative="1" as="geometry" />
        </mxCell>
        <mxCell id="-4z7rBKDp99qxz8O43Pi-1" style="edgeStyle=orthogonalEdgeStyle;rounded=0;orthogonalLoop=1;jettySize=auto;html=1;exitX=0.75;exitY=1;exitDx=0;exitDy=0;entryX=0.75;entryY=0;entryDx=0;entryDy=0;" edge="1" parent="Rz7fzVzhmolXz_tKs0rD-1" source="A5mq1q71OgkTQPKw5XMW-1" target="Whm-rnRkTMfM7RXwqzS--0">
          <mxGeometry relative="1" as="geometry" />
        </mxCell>
        <mxCell id="A5mq1q71OgkTQPKw5XMW-1" value="att_bayesian_offline" style="rounded=1;whiteSpace=wrap;html=1;fillColor=#FFFF33;strokeColor=#009900;shadow=0;" vertex="1" parent="Rz7fzVzhmolXz_tKs0rD-1">
          <mxGeometry x="390" y="260" width="110" height="40" as="geometry" />
        </mxCell>
        <mxCell id="OF6AfKX3plGfRN8sSOIg-1" style="edgeStyle=orthogonalEdgeStyle;rounded=0;orthogonalLoop=1;jettySize=auto;html=1;exitX=1;exitY=0.5;exitDx=0;exitDy=0;entryX=0.5;entryY=0;entryDx=0;entryDy=0;" edge="1" parent="Rz7fzVzhmolXz_tKs0rD-1" source="A5mq1q71OgkTQPKw5XMW-5" target="Rz7fzVzhmolXz_tKs0rD-38">
          <mxGeometry relative="1" as="geometry" />
        </mxCell>
        <mxCell id="A5mq1q71OgkTQPKw5XMW-5" value="att_bayesian_social" style="rounded=1;whiteSpace=wrap;html=1;fillColor=#FFCC99;strokeColor=#009900;shadow=0;" vertex="1" parent="Rz7fzVzhmolXz_tKs0rD-1">
          <mxGeometry x="390" y="200" width="110" height="40" as="geometry" />
        </mxCell>
        <mxCell id="Za2SJy8QyKdaQlohPJP_-6" style="edgeStyle=orthogonalEdgeStyle;rounded=0;orthogonalLoop=1;jettySize=auto;html=1;entryX=0.5;entryY=0;entryDx=0;entryDy=0;" edge="1" parent="Rz7fzVzhmolXz_tKs0rD-1" source="Za2SJy8QyKdaQlohPJP_-0" target="A5mq1q71OgkTQPKw5XMW-5">
          <mxGeometry relative="1" as="geometry" />
        </mxCell>
        <mxCell id="Za2SJy8QyKdaQlohPJP_-0" value="mmm_social" style="swimlane;fontStyle=0;childLayout=stackLayout;horizontal=1;startSize=30;horizontalStack=0;resizeParent=1;resizeParentMax=0;resizeLast=0;collapsible=1;marginBottom=0;whiteSpace=wrap;html=1;fillColor=#FFCC99;strokeColor=default;align=center;verticalAlign=middle;fontFamily=Helvetica;fontSize=12;fontColor=default;" vertex="1" parent="Rz7fzVzhmolXz_tKs0rD-1">
          <mxGeometry x="390" y="50" width="100" height="120" as="geometry" />
        </mxCell>
        <mxCell id="Za2SJy8QyKdaQlohPJP_-1" value="impression_date" style="text;strokeColor=none;fillColor=none;align=left;verticalAlign=middle;spacingLeft=4;spacingRight=4;overflow=hidden;points=[[0,0.5],[1,0.5]];portConstraint=eastwest;rotatable=0;whiteSpace=wrap;html=1;fontFamily=Helvetica;fontSize=12;fontColor=default;fontStyle=0;" vertex="1" parent="Za2SJy8QyKdaQlohPJP_-0">
          <mxGeometry y="30" width="100" height="30" as="geometry" />
        </mxCell>
        <mxCell id="Za2SJy8QyKdaQlohPJP_-2" value="order_date" style="text;strokeColor=none;fillColor=none;align=left;verticalAlign=middle;spacingLeft=4;spacingRight=4;overflow=hidden;points=[[0,0.5],[1,0.5]];portConstraint=eastwest;rotatable=0;whiteSpace=wrap;html=1;fontFamily=Helvetica;fontSize=12;fontColor=default;fontStyle=0;" vertex="1" parent="Za2SJy8QyKdaQlohPJP_-0">
          <mxGeometry y="60" width="100" height="30" as="geometry" />
        </mxCell>
        <mxCell id="Za2SJy8QyKdaQlohPJP_-3" value="device" style="text;strokeColor=none;fillColor=none;align=left;verticalAlign=middle;spacingLeft=4;spacingRight=4;overflow=hidden;points=[[0,0.5],[1,0.5]];portConstraint=eastwest;rotatable=0;whiteSpace=wrap;html=1;fontFamily=Helvetica;fontSize=12;fontColor=default;fontStyle=0;" vertex="1" parent="Za2SJy8QyKdaQlohPJP_-0">
          <mxGeometry y="90" width="100" height="30" as="geometry" />
        </mxCell>
        <mxCell id="Whm-rnRkTMfM7RXwqzS--5" style="edgeStyle=orthogonalEdgeStyle;rounded=0;orthogonalLoop=1;jettySize=auto;html=1;exitX=0.5;exitY=0;exitDx=0;exitDy=0;entryX=0.5;entryY=1;entryDx=0;entryDy=0;" edge="1" parent="Rz7fzVzhmolXz_tKs0rD-1" source="Whm-rnRkTMfM7RXwqzS--0" target="A5mq1q71OgkTQPKw5XMW-1">
          <mxGeometry relative="1" as="geometry" />
        </mxCell>
        <mxCell id="Whm-rnRkTMfM7RXwqzS--0" value="mmm_offline" style="swimlane;fontStyle=0;childLayout=stackLayout;horizontal=1;startSize=30;horizontalStack=0;resizeParent=1;resizeParentMax=0;resizeLast=0;collapsible=1;marginBottom=0;whiteSpace=wrap;html=1;fillColor=#FFFF33;" vertex="1" parent="Rz7fzVzhmolXz_tKs0rD-1">
          <mxGeometry x="390" y="330" width="100" height="110" as="geometry" />
        </mxCell>
        <mxCell id="Whm-rnRkTMfM7RXwqzS--1" value="impression_date" style="text;strokeColor=none;fillColor=none;align=left;verticalAlign=middle;spacingLeft=4;spacingRight=4;overflow=hidden;points=[[0,0.5],[1,0.5]];portConstraint=eastwest;rotatable=0;whiteSpace=wrap;html=1;" vertex="1" parent="Whm-rnRkTMfM7RXwqzS--0">
          <mxGeometry y="30" width="100" height="30" as="geometry" />
        </mxCell>
        <mxCell id="Whm-rnRkTMfM7RXwqzS--2" value="order_date" style="text;strokeColor=none;fillColor=none;align=left;verticalAlign=middle;spacingLeft=4;spacingRight=4;overflow=hidden;points=[[0,0.5],[1,0.5]];portConstraint=eastwest;rotatable=0;whiteSpace=wrap;html=1;" vertex="1" parent="Whm-rnRkTMfM7RXwqzS--0">
          <mxGeometry y="60" width="100" height="30" as="geometry" />
        </mxCell>
        <mxCell id="Whm-rnRkTMfM7RXwqzS--3" value="orders" style="text;strokeColor=none;fillColor=none;align=left;verticalAlign=middle;spacingLeft=4;spacingRight=4;overflow=hidden;points=[[0,0.5],[1,0.5]];portConstraint=eastwest;rotatable=0;whiteSpace=wrap;html=1;" vertex="1" parent="Whm-rnRkTMfM7RXwqzS--0">
          <mxGeometry y="90" width="100" height="20" as="geometry" />
        </mxCell>
        <mxCell id="-4z7rBKDp99qxz8O43Pi-0" style="edgeStyle=orthogonalEdgeStyle;rounded=0;orthogonalLoop=1;jettySize=auto;html=1;exitX=0.75;exitY=0;exitDx=0;exitDy=0;entryX=0.73;entryY=1.1;entryDx=0;entryDy=0;entryPerimeter=0;" edge="1" parent="Rz7fzVzhmolXz_tKs0rD-1" source="A5mq1q71OgkTQPKw5XMW-5" target="Za2SJy8QyKdaQlohPJP_-3">
          <mxGeometry relative="1" as="geometry" />
        </mxCell>
        <mxCell id="PdzdpEY9a1QehbpyVy8V-4" style="edgeStyle=orthogonalEdgeStyle;rounded=0;orthogonalLoop=1;jettySize=auto;html=1;exitX=0.5;exitY=0;exitDx=0;exitDy=0;entryX=1;entryY=0.25;entryDx=0;entryDy=0;" edge="1" parent="Rz7fzVzhmolXz_tKs0rD-1" source="PdzdpEY9a1QehbpyVy8V-0" target="A5mq1q71OgkTQPKw5XMW-5">
          <mxGeometry relative="1" as="geometry" />
        </mxCell>
        <mxCell id="PdzdpEY9a1QehbpyVy8V-0" value="dsci&lt;div&gt;mmm_social&lt;/div&gt;" style="swimlane;fontStyle=0;childLayout=stackLayout;horizontal=1;startSize=30;horizontalStack=0;resizeParent=1;resizeParentMax=0;resizeLast=0;collapsible=1;marginBottom=0;whiteSpace=wrap;html=1;fillColor=#FFCC99;strokeColor=default;align=center;verticalAlign=middle;fontFamily=Helvetica;fontSize=12;fontColor=default;" vertex="1" parent="Rz7fzVzhmolXz_tKs0rD-1">
          <mxGeometry x="520" y="50" width="100" height="120" as="geometry" />
        </mxCell>
        <mxCell id="PdzdpEY9a1QehbpyVy8V-1" value="impression_date" style="text;strokeColor=none;fillColor=none;align=left;verticalAlign=middle;spacingLeft=4;spacingRight=4;overflow=hidden;points=[[0,0.5],[1,0.5]];portConstraint=eastwest;rotatable=0;whiteSpace=wrap;html=1;fontFamily=Helvetica;fontSize=12;fontColor=default;fontStyle=0;" vertex="1" parent="PdzdpEY9a1QehbpyVy8V-0">
          <mxGeometry y="30" width="100" height="30" as="geometry" />
        </mxCell>
        <mxCell id="PdzdpEY9a1QehbpyVy8V-2" value="order_date" style="text;strokeColor=none;fillColor=none;align=left;verticalAlign=middle;spacingLeft=4;spacingRight=4;overflow=hidden;points=[[0,0.5],[1,0.5]];portConstraint=eastwest;rotatable=0;whiteSpace=wrap;html=1;fontFamily=Helvetica;fontSize=12;fontColor=default;fontStyle=0;" vertex="1" parent="PdzdpEY9a1QehbpyVy8V-0">
          <mxGeometry y="60" width="100" height="30" as="geometry" />
        </mxCell>
        <mxCell id="PdzdpEY9a1QehbpyVy8V-3" value="device" style="text;strokeColor=none;fillColor=none;align=left;verticalAlign=middle;spacingLeft=4;spacingRight=4;overflow=hidden;points=[[0,0.5],[1,0.5]];portConstraint=eastwest;rotatable=0;whiteSpace=wrap;html=1;fontFamily=Helvetica;fontSize=12;fontColor=default;fontStyle=0;" vertex="1" parent="PdzdpEY9a1QehbpyVy8V-0">
          <mxGeometry y="90" width="100" height="30" as="geometry" />
        </mxCell>
        <mxCell id="PdzdpEY9a1QehbpyVy8V-9" style="edgeStyle=orthogonalEdgeStyle;rounded=0;orthogonalLoop=1;jettySize=auto;html=1;exitX=0.5;exitY=0;exitDx=0;exitDy=0;entryX=1;entryY=1;entryDx=0;entryDy=0;" edge="1" parent="Rz7fzVzhmolXz_tKs0rD-1" source="PdzdpEY9a1QehbpyVy8V-5" target="A5mq1q71OgkTQPKw5XMW-1">
          <mxGeometry relative="1" as="geometry" />
        </mxCell>
        <mxCell id="PdzdpEY9a1QehbpyVy8V-5" value="dsci_offline" style="swimlane;fontStyle=0;childLayout=stackLayout;horizontal=1;startSize=30;horizontalStack=0;resizeParent=1;resizeParentMax=0;resizeLast=0;collapsible=1;marginBottom=0;whiteSpace=wrap;html=1;fillColor=#FFFF33;" vertex="1" parent="Rz7fzVzhmolXz_tKs0rD-1">
          <mxGeometry x="510" y="330" width="100" height="110" as="geometry" />
        </mxCell>
        <mxCell id="PdzdpEY9a1QehbpyVy8V-6" value="impression_date" style="text;strokeColor=none;fillColor=none;align=left;verticalAlign=middle;spacingLeft=4;spacingRight=4;overflow=hidden;points=[[0,0.5],[1,0.5]];portConstraint=eastwest;rotatable=0;whiteSpace=wrap;html=1;" vertex="1" parent="PdzdpEY9a1QehbpyVy8V-5">
          <mxGeometry y="30" width="100" height="30" as="geometry" />
        </mxCell>
        <mxCell id="PdzdpEY9a1QehbpyVy8V-7" value="order_date" style="text;strokeColor=none;fillColor=none;align=left;verticalAlign=middle;spacingLeft=4;spacingRight=4;overflow=hidden;points=[[0,0.5],[1,0.5]];portConstraint=eastwest;rotatable=0;whiteSpace=wrap;html=1;" vertex="1" parent="PdzdpEY9a1QehbpyVy8V-5">
          <mxGeometry y="60" width="100" height="30" as="geometry" />
        </mxCell>
        <mxCell id="PdzdpEY9a1QehbpyVy8V-8" value="orders" style="text;strokeColor=none;fillColor=none;align=left;verticalAlign=middle;spacingLeft=4;spacingRight=4;overflow=hidden;points=[[0,0.5],[1,0.5]];portConstraint=eastwest;rotatable=0;whiteSpace=wrap;html=1;" vertex="1" parent="PdzdpEY9a1QehbpyVy8V-5">
          <mxGeometry y="90" width="100" height="20" as="geometry" />
        </mxCell>
      </root>
    </mxGraphModel>
  </diagram>
  <diagram id="z8YcvUOw2CHG6i3rcu3j" name="dsci_attribution_dag (current)">
    <mxGraphModel dx="2924" dy="2314" grid="1" gridSize="10" guides="1" tooltips="1" connect="1" arrows="1" fold="1" page="1" pageScale="1" pageWidth="850" pageHeight="1100" math="0" shadow="0">
      <root>
        <mxCell id="0" />
        <mxCell id="1" parent="0" />
        <mxCell id="1w20sKevjoY8h1HV6ib_-15" style="edgeStyle=orthogonalEdgeStyle;rounded=0;orthogonalLoop=1;jettySize=auto;html=1;exitX=1;exitY=0.5;exitDx=0;exitDy=0;entryX=0;entryY=0.5;entryDx=0;entryDy=0;" edge="1" parent="1" source="XL9ARD7MZIX_3yWXJvwH-1" target="1w20sKevjoY8h1HV6ib_-11">
          <mxGeometry relative="1" as="geometry" />
        </mxCell>
        <mxCell id="XL9ARD7MZIX_3yWXJvwH-1" value="dsci_bayesian_social" style="rounded=1;whiteSpace=wrap;html=1;fillColor=#FFCC99;" parent="1" vertex="1">
          <mxGeometry x="110" y="170" width="160" height="70" as="geometry" />
        </mxCell>
        <mxCell id="1w20sKevjoY8h1HV6ib_-16" style="edgeStyle=orthogonalEdgeStyle;rounded=0;orthogonalLoop=1;jettySize=auto;html=1;exitX=1;exitY=0.5;exitDx=0;exitDy=0;entryX=0;entryY=0.5;entryDx=0;entryDy=0;" edge="1" parent="1" source="dZ90Ee60siCMoXg5OTCC-15" target="1w20sKevjoY8h1HV6ib_-11">
          <mxGeometry relative="1" as="geometry" />
        </mxCell>
        <mxCell id="dZ90Ee60siCMoXg5OTCC-15" value="dsci_bayesian_offline" style="rounded=1;whiteSpace=wrap;html=1;fillColor=#FFFF33;" parent="1" vertex="1">
          <mxGeometry x="110" y="260" width="160" height="70" as="geometry" />
        </mxCell>
        <mxCell id="Cw1X6N8UgOYcv2LrqHEj-4" style="edgeStyle=orthogonalEdgeStyle;rounded=0;orthogonalLoop=1;jettySize=auto;html=1;exitX=1;exitY=0.5;exitDx=0;exitDy=0;entryX=0;entryY=0.5;entryDx=0;entryDy=0;" parent="1" source="Cw1X6N8UgOYcv2LrqHEj-3" target="XL9ARD7MZIX_3yWXJvwH-1" edge="1">
          <mxGeometry relative="1" as="geometry" />
        </mxCell>
        <mxCell id="Cw1X6N8UgOYcv2LrqHEj-5" style="edgeStyle=orthogonalEdgeStyle;rounded=0;orthogonalLoop=1;jettySize=auto;html=1;exitX=1;exitY=0.5;exitDx=0;exitDy=0;entryX=0;entryY=0.5;entryDx=0;entryDy=0;" parent="1" source="Cw1X6N8UgOYcv2LrqHEj-3" target="dZ90Ee60siCMoXg5OTCC-15" edge="1">
          <mxGeometry relative="1" as="geometry" />
        </mxCell>
        <mxCell id="Cw1X6N8UgOYcv2LrqHEj-3" value="Bayesian Model" style="label;whiteSpace=wrap;html=1;image=img/clipart/Gear_128x128.png" parent="1" vertex="1">
          <mxGeometry x="-140" y="225" width="160" height="60" as="geometry" />
        </mxCell>
        <mxCell id="Cw1X6N8UgOYcv2LrqHEj-10" style="edgeStyle=orthogonalEdgeStyle;rounded=0;orthogonalLoop=1;jettySize=auto;html=1;exitX=0.5;exitY=0;exitDx=0;exitDy=0;entryX=0.5;entryY=0;entryDx=0;entryDy=0;" parent="1" source="Cw1X6N8UgOYcv2LrqHEj-6" target="XL9ARD7MZIX_3yWXJvwH-1" edge="1">
          <mxGeometry relative="1" as="geometry" />
        </mxCell>
        <mxCell id="Cw1X6N8UgOYcv2LrqHEj-6" value="social&lt;div&gt;smartly_province_data&lt;/div&gt;" style="swimlane;fontStyle=0;childLayout=stackLayout;horizontal=1;startSize=30;horizontalStack=0;resizeParent=1;resizeParentMax=0;resizeLast=0;collapsible=1;marginBottom=0;whiteSpace=wrap;html=1;fillColor=#FFCC99;" parent="1" vertex="1">
          <mxGeometry y="-20" width="140" height="120" as="geometry" />
        </mxCell>
        <mxCell id="Cw1X6N8UgOYcv2LrqHEj-7" value="Campaign" style="text;strokeColor=none;fillColor=none;align=left;verticalAlign=middle;spacingLeft=4;spacingRight=4;overflow=hidden;points=[[0,0.5],[1,0.5]];portConstraint=eastwest;rotatable=0;whiteSpace=wrap;html=1;" parent="Cw1X6N8UgOYcv2LrqHEj-6" vertex="1">
          <mxGeometry y="30" width="140" height="30" as="geometry" />
        </mxCell>
        <mxCell id="Cw1X6N8UgOYcv2LrqHEj-8" value="Impressions" style="text;strokeColor=none;fillColor=none;align=left;verticalAlign=middle;spacingLeft=4;spacingRight=4;overflow=hidden;points=[[0,0.5],[1,0.5]];portConstraint=eastwest;rotatable=0;whiteSpace=wrap;html=1;" parent="Cw1X6N8UgOYcv2LrqHEj-6" vertex="1">
          <mxGeometry y="60" width="140" height="30" as="geometry" />
        </mxCell>
        <mxCell id="Cw1X6N8UgOYcv2LrqHEj-9" value="Region" style="text;strokeColor=none;fillColor=none;align=left;verticalAlign=middle;spacingLeft=4;spacingRight=4;overflow=hidden;points=[[0,0.5],[1,0.5]];portConstraint=eastwest;rotatable=0;whiteSpace=wrap;html=1;" parent="Cw1X6N8UgOYcv2LrqHEj-6" vertex="1">
          <mxGeometry y="90" width="140" height="30" as="geometry" />
        </mxCell>
        <mxCell id="Cw1X6N8UgOYcv2LrqHEj-11" value="&lt;div&gt;mmm_input&lt;/div&gt;&lt;div&gt;social_mmm_input&lt;/div&gt;" style="swimlane;fontStyle=0;childLayout=stackLayout;horizontal=1;startSize=30;horizontalStack=0;resizeParent=1;resizeParentMax=0;resizeLast=0;collapsible=1;marginBottom=0;whiteSpace=wrap;html=1;fillColor=#FFCC99;" parent="1" vertex="1">
          <mxGeometry x="250" y="-20" width="140" height="120" as="geometry" />
        </mxCell>
        <mxCell id="Cw1X6N8UgOYcv2LrqHEj-12" value="campaign" style="text;strokeColor=none;fillColor=none;align=left;verticalAlign=middle;spacingLeft=4;spacingRight=4;overflow=hidden;points=[[0,0.5],[1,0.5]];portConstraint=eastwest;rotatable=0;whiteSpace=wrap;html=1;" parent="Cw1X6N8UgOYcv2LrqHEj-11" vertex="1">
          <mxGeometry y="30" width="140" height="30" as="geometry" />
        </mxCell>
        <mxCell id="Cw1X6N8UgOYcv2LrqHEj-13" value="Device" style="text;strokeColor=none;fillColor=none;align=left;verticalAlign=middle;spacingLeft=4;spacingRight=4;overflow=hidden;points=[[0,0.5],[1,0.5]];portConstraint=eastwest;rotatable=0;whiteSpace=wrap;html=1;" parent="Cw1X6N8UgOYcv2LrqHEj-11" vertex="1">
          <mxGeometry y="60" width="140" height="30" as="geometry" />
        </mxCell>
        <mxCell id="Cw1X6N8UgOYcv2LrqHEj-14" value="Region" style="text;strokeColor=none;fillColor=none;align=left;verticalAlign=middle;spacingLeft=4;spacingRight=4;overflow=hidden;points=[[0,0.5],[1,0.5]];portConstraint=eastwest;rotatable=0;whiteSpace=wrap;html=1;" parent="Cw1X6N8UgOYcv2LrqHEj-11" vertex="1">
          <mxGeometry y="90" width="140" height="30" as="geometry" />
        </mxCell>
        <mxCell id="Cw1X6N8UgOYcv2LrqHEj-15" style="edgeStyle=orthogonalEdgeStyle;rounded=0;orthogonalLoop=1;jettySize=auto;html=1;exitX=0.5;exitY=0;exitDx=0;exitDy=0;entryX=0.706;entryY=-0.029;entryDx=0;entryDy=0;entryPerimeter=0;" parent="1" source="Cw1X6N8UgOYcv2LrqHEj-11" target="XL9ARD7MZIX_3yWXJvwH-1" edge="1">
          <mxGeometry relative="1" as="geometry" />
        </mxCell>
        <mxCell id="HW6QfqaCKzpxnV2oXTJ7-7" style="edgeStyle=orthogonalEdgeStyle;rounded=0;orthogonalLoop=1;jettySize=auto;html=1;entryX=0.5;entryY=1;entryDx=0;entryDy=0;" parent="1" source="HW6QfqaCKzpxnV2oXTJ7-1" target="dZ90Ee60siCMoXg5OTCC-15" edge="1">
          <mxGeometry relative="1" as="geometry" />
        </mxCell>
        <mxCell id="HW6QfqaCKzpxnV2oXTJ7-1" value="&lt;div&gt;marketing_mix_model&lt;/div&gt;&lt;div&gt;regional_marketing_mix-model_data&lt;/div&gt;" style="swimlane;fontStyle=0;childLayout=stackLayout;horizontal=1;startSize=30;horizontalStack=0;resizeParent=1;resizeParentMax=0;resizeLast=0;collapsible=1;marginBottom=0;whiteSpace=wrap;html=1;fillColor=#FFCC99;" parent="1" vertex="1">
          <mxGeometry x="90" y="410" width="200" height="120" as="geometry" />
        </mxCell>
        <mxCell id="HW6QfqaCKzpxnV2oXTJ7-2" value="campaign" style="text;strokeColor=none;fillColor=none;align=left;verticalAlign=middle;spacingLeft=4;spacingRight=4;overflow=hidden;points=[[0,0.5],[1,0.5]];portConstraint=eastwest;rotatable=0;whiteSpace=wrap;html=1;" parent="HW6QfqaCKzpxnV2oXTJ7-1" vertex="1">
          <mxGeometry y="30" width="200" height="30" as="geometry" />
        </mxCell>
        <mxCell id="HW6QfqaCKzpxnV2oXTJ7-3" value="Device" style="text;strokeColor=none;fillColor=none;align=left;verticalAlign=middle;spacingLeft=4;spacingRight=4;overflow=hidden;points=[[0,0.5],[1,0.5]];portConstraint=eastwest;rotatable=0;whiteSpace=wrap;html=1;" parent="HW6QfqaCKzpxnV2oXTJ7-1" vertex="1">
          <mxGeometry y="60" width="200" height="30" as="geometry" />
        </mxCell>
        <mxCell id="HW6QfqaCKzpxnV2oXTJ7-4" value="Region" style="text;strokeColor=none;fillColor=none;align=left;verticalAlign=middle;spacingLeft=4;spacingRight=4;overflow=hidden;points=[[0,0.5],[1,0.5]];portConstraint=eastwest;rotatable=0;whiteSpace=wrap;html=1;" parent="HW6QfqaCKzpxnV2oXTJ7-1" vertex="1">
          <mxGeometry y="90" width="200" height="30" as="geometry" />
        </mxCell>
        <mxCell id="HW6QfqaCKzpxnV2oXTJ7-12" style="edgeStyle=orthogonalEdgeStyle;rounded=0;orthogonalLoop=1;jettySize=auto;html=1;entryX=0;entryY=0.5;entryDx=0;entryDy=0;" parent="1" source="HW6QfqaCKzpxnV2oXTJ7-11" target="Cw1X6N8UgOYcv2LrqHEj-3" edge="1">
          <mxGeometry relative="1" as="geometry" />
        </mxCell>
        <mxCell id="HW6QfqaCKzpxnV2oXTJ7-11" value="" style="editableCssRules=.*;html=1;shape=image;verticalLabelPosition=bottom;labelBackgroundColor=#ffffff;verticalAlign=top;aspect=fixed;imageAspect=0;image=data:image/svg+xml,PHN2ZyB4bWxucz0iaHR0cDovL3d3dy53My5vcmcvMjAwMC9zdmciIHhtbG5zOnY9Imh0dHBzOi8vdmVjdGEuaW8vbmFubyIgd2lkdGg9IjMyOS45MjU5OTcyMzE3OTM4IiBoZWlnaHQ9IjM3OC4yODQ5OTAzMTEyNzg4IiB2aWV3Qm94PSIwIDAgODcuMjkyOTk5MjY3NTc4MTIgMTAwLjA4Nzk5NzQzNjUyMzQ0Ij4mI3hhOzxzdHlsZSB0eXBlPSJ0ZXh0L2NzcyI+JiN4YTsJLnN0MHtmaWxsOiNhZWNiZmE7fSYjeGE7CS5zdDF7ZmlsbDojNjY5ZGY2O30mI3hhOwkuc3Qye2ZpbGw6IzQyODVmNDt9JiN4YTs8L3N0eWxlPiYjeGE7CTxwYXRoIGNsYXNzPSJzdDAiIGQ9Ik00My43NTEgMEwwIDI1LjQ2NXYyLjU4OCA0Ni45Mmw0My43NTIgMjUuMTE1IDQzLjU0MS0yNS4xMjFWMjUuNDczem0yLjQzOCAxMS44NTNsMzIuMTAzIDE4Ljc4MlY2OS43N0w0My43MzkgODkuNzA1IDkgNjkuNzYyVjMwLjY0MWwzMi4xOS0xOC43MzZ2MTQuMTU0TDI0LjUwMyAzNi4xNTNsMTkuMTcyIDExLjUwMiAxOC44ODYtMTEuNTU0LTE2LjM3Mi0xMC4wMjR6Ii8+JiN4YTsJPHBhdGggY2xhc3M9InN0MSIgZD0iTTIyLjAyNSA0MC40OTZsLjE2NiAxOS4xNDMtMTMuMjQ3IDcuMzN2Mi43NDJsMi42MzcgMS41MTQgMTIuNjQ4LTYuOTk5TDQxLjE5IDc0LjgyOFY1MS45OTN6Ii8+JiN4YTsJPHBhdGggY2xhc3M9InN0MiIgZD0iTTY1LjM0NCA0MC4yNkw0Ni4xODkgNTEuOTc5djIyLjg0N0w2My4wODggNjQuMjVsMTIuNTM5IDYuOTc0IDIuNjA5LTEuNTA1di0yLjc2NWwtMTIuNzg0LTcuMTEyeiIvPiYjeGE7PC9zdmc+;" parent="1" vertex="1">
          <mxGeometry x="-250" y="222.5" width="58.5" height="65" as="geometry" />
        </mxCell>
        <mxCell id="1w20sKevjoY8h1HV6ib_-1" value="marketing_mix_model&lt;div&gt;output_bayesian_attribution&lt;/div&gt;" style="swimlane;fontStyle=0;childLayout=stackLayout;horizontal=1;startSize=30;horizontalStack=0;resizeParent=1;resizeParentMax=0;resizeLast=0;collapsible=1;marginBottom=0;whiteSpace=wrap;html=1;" vertex="1" parent="1">
          <mxGeometry x="450" y="60" width="190" height="390" as="geometry" />
        </mxCell>
        <mxCell id="1w20sKevjoY8h1HV6ib_-2" value="impression_date" style="text;strokeColor=none;fillColor=none;align=left;verticalAlign=middle;spacingLeft=4;spacingRight=4;overflow=hidden;points=[[0,0.5],[1,0.5]];portConstraint=eastwest;rotatable=0;whiteSpace=wrap;html=1;" vertex="1" parent="1w20sKevjoY8h1HV6ib_-1">
          <mxGeometry y="30" width="190" height="30" as="geometry" />
        </mxCell>
        <mxCell id="1w20sKevjoY8h1HV6ib_-3" value="order_date" style="text;strokeColor=none;fillColor=none;align=left;verticalAlign=middle;spacingLeft=4;spacingRight=4;overflow=hidden;points=[[0,0.5],[1,0.5]];portConstraint=eastwest;rotatable=0;whiteSpace=wrap;html=1;" vertex="1" parent="1w20sKevjoY8h1HV6ib_-1">
          <mxGeometry y="60" width="190" height="30" as="geometry" />
        </mxCell>
        <mxCell id="1w20sKevjoY8h1HV6ib_-5" value="channel" style="text;html=1;align=left;verticalAlign=middle;whiteSpace=wrap;rounded=0;" vertex="1" parent="1w20sKevjoY8h1HV6ib_-1">
          <mxGeometry y="90" width="190" height="30" as="geometry" />
        </mxCell>
        <mxCell id="1w20sKevjoY8h1HV6ib_-10" value="region_id" style="text;html=1;align=left;verticalAlign=middle;whiteSpace=wrap;rounded=0;" vertex="1" parent="1w20sKevjoY8h1HV6ib_-1">
          <mxGeometry y="120" width="190" height="30" as="geometry" />
        </mxCell>
        <mxCell id="1w20sKevjoY8h1HV6ib_-7" value="campaign_type" style="text;html=1;align=left;verticalAlign=middle;whiteSpace=wrap;rounded=0;" vertex="1" parent="1w20sKevjoY8h1HV6ib_-1">
          <mxGeometry y="150" width="190" height="30" as="geometry" />
        </mxCell>
        <mxCell id="1w20sKevjoY8h1HV6ib_-11" value="strategy" style="text;html=1;align=left;verticalAlign=middle;whiteSpace=wrap;rounded=0;" vertex="1" parent="1w20sKevjoY8h1HV6ib_-1">
          <mxGeometry y="180" width="190" height="30" as="geometry" />
        </mxCell>
        <mxCell id="1w20sKevjoY8h1HV6ib_-6" value="device" style="text;html=1;align=left;verticalAlign=middle;whiteSpace=wrap;rounded=0;" vertex="1" parent="1w20sKevjoY8h1HV6ib_-1">
          <mxGeometry y="210" width="190" height="30" as="geometry" />
        </mxCell>
        <mxCell id="1w20sKevjoY8h1HV6ib_-9" value="coefficient" style="text;html=1;align=left;verticalAlign=middle;whiteSpace=wrap;rounded=0;fillColor=#f8cecc;strokeColor=#b85450;" vertex="1" parent="1w20sKevjoY8h1HV6ib_-1">
          <mxGeometry y="240" width="190" height="30" as="geometry" />
        </mxCell>
        <mxCell id="1w20sKevjoY8h1HV6ib_-8" value="impressions" style="text;html=1;align=left;verticalAlign=middle;whiteSpace=wrap;rounded=0;" vertex="1" parent="1w20sKevjoY8h1HV6ib_-1">
          <mxGeometry y="270" width="190" height="30" as="geometry" />
        </mxCell>
        <mxCell id="1w20sKevjoY8h1HV6ib_-4" value="orders" style="text;strokeColor=none;fillColor=none;align=left;verticalAlign=middle;spacingLeft=4;spacingRight=4;overflow=hidden;points=[[0,0.5],[1,0.5]];portConstraint=eastwest;rotatable=0;whiteSpace=wrap;html=1;" vertex="1" parent="1w20sKevjoY8h1HV6ib_-1">
          <mxGeometry y="300" width="190" height="30" as="geometry" />
        </mxCell>
        <mxCell id="1w20sKevjoY8h1HV6ib_-13" value="run_date" style="text;html=1;align=left;verticalAlign=middle;whiteSpace=wrap;rounded=0;" vertex="1" parent="1w20sKevjoY8h1HV6ib_-1">
          <mxGeometry y="330" width="190" height="30" as="geometry" />
        </mxCell>
        <mxCell id="1w20sKevjoY8h1HV6ib_-14" value="execution_datetime" style="text;html=1;align=left;verticalAlign=middle;whiteSpace=wrap;rounded=0;" vertex="1" parent="1w20sKevjoY8h1HV6ib_-1">
          <mxGeometry y="360" width="190" height="30" as="geometry" />
        </mxCell>
      </root>
    </mxGraphModel>
  </diagram>
  <diagram name="Copy of dsci_attribution_dag (goal)" id="ArLcVCsHNMrexy0fJrkD">
    <mxGraphModel dx="2924" dy="2314" grid="1" gridSize="10" guides="1" tooltips="1" connect="1" arrows="1" fold="1" page="1" pageScale="1" pageWidth="850" pageHeight="1100" math="0" shadow="0">
      <root>
        <mxCell id="otmVsOUsUmoHgW7tO8n4-0" />
        <mxCell id="otmVsOUsUmoHgW7tO8n4-1" parent="otmVsOUsUmoHgW7tO8n4-0" />
        <mxCell id="otmVsOUsUmoHgW7tO8n4-2" style="edgeStyle=orthogonalEdgeStyle;rounded=0;orthogonalLoop=1;jettySize=auto;html=1;exitX=1;exitY=0.5;exitDx=0;exitDy=0;entryX=0;entryY=0.5;entryDx=0;entryDy=0;" edge="1" parent="otmVsOUsUmoHgW7tO8n4-1" source="otmVsOUsUmoHgW7tO8n4-3" target="otmVsOUsUmoHgW7tO8n4-32">
          <mxGeometry relative="1" as="geometry" />
        </mxCell>
        <mxCell id="otmVsOUsUmoHgW7tO8n4-3" value="dsci_bayesian_social" style="rounded=1;whiteSpace=wrap;html=1;fillColor=#FFCC99;" vertex="1" parent="otmVsOUsUmoHgW7tO8n4-1">
          <mxGeometry x="110" y="170" width="160" height="70" as="geometry" />
        </mxCell>
        <mxCell id="otmVsOUsUmoHgW7tO8n4-4" style="edgeStyle=orthogonalEdgeStyle;rounded=0;orthogonalLoop=1;jettySize=auto;html=1;exitX=1;exitY=0.5;exitDx=0;exitDy=0;entryX=0;entryY=0.5;entryDx=0;entryDy=0;" edge="1" parent="otmVsOUsUmoHgW7tO8n4-1" source="otmVsOUsUmoHgW7tO8n4-5" target="otmVsOUsUmoHgW7tO8n4-32">
          <mxGeometry relative="1" as="geometry" />
        </mxCell>
        <mxCell id="otmVsOUsUmoHgW7tO8n4-5" value="dsci_bayesian_offline" style="rounded=1;whiteSpace=wrap;html=1;fillColor=#FFFF33;" vertex="1" parent="otmVsOUsUmoHgW7tO8n4-1">
          <mxGeometry x="110" y="260" width="160" height="70" as="geometry" />
        </mxCell>
        <mxCell id="otmVsOUsUmoHgW7tO8n4-6" style="edgeStyle=orthogonalEdgeStyle;rounded=0;orthogonalLoop=1;jettySize=auto;html=1;exitX=1;exitY=0.5;exitDx=0;exitDy=0;entryX=0;entryY=0.5;entryDx=0;entryDy=0;" edge="1" parent="otmVsOUsUmoHgW7tO8n4-1" source="otmVsOUsUmoHgW7tO8n4-8" target="otmVsOUsUmoHgW7tO8n4-3">
          <mxGeometry relative="1" as="geometry" />
        </mxCell>
        <mxCell id="otmVsOUsUmoHgW7tO8n4-7" style="edgeStyle=orthogonalEdgeStyle;rounded=0;orthogonalLoop=1;jettySize=auto;html=1;exitX=1;exitY=0.5;exitDx=0;exitDy=0;entryX=0;entryY=0.5;entryDx=0;entryDy=0;" edge="1" parent="otmVsOUsUmoHgW7tO8n4-1" source="otmVsOUsUmoHgW7tO8n4-8" target="otmVsOUsUmoHgW7tO8n4-5">
          <mxGeometry relative="1" as="geometry" />
        </mxCell>
        <mxCell id="otmVsOUsUmoHgW7tO8n4-8" value="Bayesian Model" style="label;whiteSpace=wrap;html=1;image=img/clipart/Gear_128x128.png" vertex="1" parent="otmVsOUsUmoHgW7tO8n4-1">
          <mxGeometry x="-140" y="225" width="160" height="60" as="geometry" />
        </mxCell>
        <mxCell id="otmVsOUsUmoHgW7tO8n4-24" style="edgeStyle=orthogonalEdgeStyle;rounded=0;orthogonalLoop=1;jettySize=auto;html=1;entryX=0;entryY=0.5;entryDx=0;entryDy=0;" edge="1" parent="otmVsOUsUmoHgW7tO8n4-1" source="otmVsOUsUmoHgW7tO8n4-25" target="otmVsOUsUmoHgW7tO8n4-8">
          <mxGeometry relative="1" as="geometry" />
        </mxCell>
        <mxCell id="otmVsOUsUmoHgW7tO8n4-25" value="" style="editableCssRules=.*;html=1;shape=image;verticalLabelPosition=bottom;labelBackgroundColor=#ffffff;verticalAlign=top;aspect=fixed;imageAspect=0;image=data:image/svg+xml,PHN2ZyB4bWxucz0iaHR0cDovL3d3dy53My5vcmcvMjAwMC9zdmciIHhtbG5zOnY9Imh0dHBzOi8vdmVjdGEuaW8vbmFubyIgd2lkdGg9IjMyOS45MjU5OTcyMzE3OTM4IiBoZWlnaHQ9IjM3OC4yODQ5OTAzMTEyNzg4IiB2aWV3Qm94PSIwIDAgODcuMjkyOTk5MjY3NTc4MTIgMTAwLjA4Nzk5NzQzNjUyMzQ0Ij4mI3hhOzxzdHlsZSB0eXBlPSJ0ZXh0L2NzcyI+JiN4YTsJLnN0MHtmaWxsOiNhZWNiZmE7fSYjeGE7CS5zdDF7ZmlsbDojNjY5ZGY2O30mI3hhOwkuc3Qye2ZpbGw6IzQyODVmNDt9JiN4YTs8L3N0eWxlPiYjeGE7CTxwYXRoIGNsYXNzPSJzdDAiIGQ9Ik00My43NTEgMEwwIDI1LjQ2NXYyLjU4OCA0Ni45Mmw0My43NTIgMjUuMTE1IDQzLjU0MS0yNS4xMjFWMjUuNDczem0yLjQzOCAxMS44NTNsMzIuMTAzIDE4Ljc4MlY2OS43N0w0My43MzkgODkuNzA1IDkgNjkuNzYyVjMwLjY0MWwzMi4xOS0xOC43MzZ2MTQuMTU0TDI0LjUwMyAzNi4xNTNsMTkuMTcyIDExLjUwMiAxOC44ODYtMTEuNTU0LTE2LjM3Mi0xMC4wMjR6Ii8+JiN4YTsJPHBhdGggY2xhc3M9InN0MSIgZD0iTTIyLjAyNSA0MC40OTZsLjE2NiAxOS4xNDMtMTMuMjQ3IDcuMzN2Mi43NDJsMi42MzcgMS41MTQgMTIuNjQ4LTYuOTk5TDQxLjE5IDc0LjgyOFY1MS45OTN6Ii8+JiN4YTsJPHBhdGggY2xhc3M9InN0MiIgZD0iTTY1LjM0NCA0MC4yNkw0Ni4xODkgNTEuOTc5djIyLjg0N0w2My4wODggNjQuMjVsMTIuNTM5IDYuOTc0IDIuNjA5LTEuNTA1di0yLjc2NWwtMTIuNzg0LTcuMTEyeiIvPiYjeGE7PC9zdmc+;" vertex="1" parent="otmVsOUsUmoHgW7tO8n4-1">
          <mxGeometry x="-250" y="222.5" width="58.5" height="65" as="geometry" />
        </mxCell>
        <mxCell id="otmVsOUsUmoHgW7tO8n4-26" value="marketing_mix_model&lt;div&gt;output_bayesian_attribution&lt;/div&gt;" style="swimlane;fontStyle=0;childLayout=stackLayout;horizontal=1;startSize=30;horizontalStack=0;resizeParent=1;resizeParentMax=0;resizeLast=0;collapsible=1;marginBottom=0;whiteSpace=wrap;html=1;" vertex="1" parent="otmVsOUsUmoHgW7tO8n4-1">
          <mxGeometry x="450" y="60" width="190" height="390" as="geometry" />
        </mxCell>
        <mxCell id="otmVsOUsUmoHgW7tO8n4-27" value="impression_date" style="text;strokeColor=none;fillColor=none;align=left;verticalAlign=middle;spacingLeft=4;spacingRight=4;overflow=hidden;points=[[0,0.5],[1,0.5]];portConstraint=eastwest;rotatable=0;whiteSpace=wrap;html=1;" vertex="1" parent="otmVsOUsUmoHgW7tO8n4-26">
          <mxGeometry y="30" width="190" height="30" as="geometry" />
        </mxCell>
        <mxCell id="otmVsOUsUmoHgW7tO8n4-28" value="order_date" style="text;strokeColor=none;fillColor=none;align=left;verticalAlign=middle;spacingLeft=4;spacingRight=4;overflow=hidden;points=[[0,0.5],[1,0.5]];portConstraint=eastwest;rotatable=0;whiteSpace=wrap;html=1;" vertex="1" parent="otmVsOUsUmoHgW7tO8n4-26">
          <mxGeometry y="60" width="190" height="30" as="geometry" />
        </mxCell>
        <mxCell id="otmVsOUsUmoHgW7tO8n4-29" value="channel" style="text;html=1;align=left;verticalAlign=middle;whiteSpace=wrap;rounded=0;" vertex="1" parent="otmVsOUsUmoHgW7tO8n4-26">
          <mxGeometry y="90" width="190" height="30" as="geometry" />
        </mxCell>
        <mxCell id="otmVsOUsUmoHgW7tO8n4-30" value="region_id" style="text;html=1;align=left;verticalAlign=middle;whiteSpace=wrap;rounded=0;" vertex="1" parent="otmVsOUsUmoHgW7tO8n4-26">
          <mxGeometry y="120" width="190" height="30" as="geometry" />
        </mxCell>
        <mxCell id="otmVsOUsUmoHgW7tO8n4-31" value="campaign_type" style="text;html=1;align=left;verticalAlign=middle;whiteSpace=wrap;rounded=0;" vertex="1" parent="otmVsOUsUmoHgW7tO8n4-26">
          <mxGeometry y="150" width="190" height="30" as="geometry" />
        </mxCell>
        <mxCell id="otmVsOUsUmoHgW7tO8n4-32" value="strategy" style="text;html=1;align=left;verticalAlign=middle;whiteSpace=wrap;rounded=0;" vertex="1" parent="otmVsOUsUmoHgW7tO8n4-26">
          <mxGeometry y="180" width="190" height="30" as="geometry" />
        </mxCell>
        <mxCell id="otmVsOUsUmoHgW7tO8n4-33" value="device" style="text;html=1;align=left;verticalAlign=middle;whiteSpace=wrap;rounded=0;" vertex="1" parent="otmVsOUsUmoHgW7tO8n4-26">
          <mxGeometry y="210" width="190" height="30" as="geometry" />
        </mxCell>
        <mxCell id="otmVsOUsUmoHgW7tO8n4-34" value="coefficient" style="text;html=1;align=left;verticalAlign=middle;whiteSpace=wrap;rounded=0;fillColor=#f8cecc;strokeColor=#b85450;" vertex="1" parent="otmVsOUsUmoHgW7tO8n4-26">
          <mxGeometry y="240" width="190" height="30" as="geometry" />
        </mxCell>
        <mxCell id="otmVsOUsUmoHgW7tO8n4-35" value="impressions" style="text;html=1;align=left;verticalAlign=middle;whiteSpace=wrap;rounded=0;" vertex="1" parent="otmVsOUsUmoHgW7tO8n4-26">
          <mxGeometry y="270" width="190" height="30" as="geometry" />
        </mxCell>
        <mxCell id="otmVsOUsUmoHgW7tO8n4-36" value="orders" style="text;strokeColor=none;fillColor=none;align=left;verticalAlign=middle;spacingLeft=4;spacingRight=4;overflow=hidden;points=[[0,0.5],[1,0.5]];portConstraint=eastwest;rotatable=0;whiteSpace=wrap;html=1;" vertex="1" parent="otmVsOUsUmoHgW7tO8n4-26">
          <mxGeometry y="300" width="190" height="30" as="geometry" />
        </mxCell>
        <mxCell id="otmVsOUsUmoHgW7tO8n4-37" value="run_date" style="text;html=1;align=left;verticalAlign=middle;whiteSpace=wrap;rounded=0;" vertex="1" parent="otmVsOUsUmoHgW7tO8n4-26">
          <mxGeometry y="330" width="190" height="30" as="geometry" />
        </mxCell>
        <mxCell id="otmVsOUsUmoHgW7tO8n4-38" value="execution_datetime" style="text;html=1;align=left;verticalAlign=middle;whiteSpace=wrap;rounded=0;" vertex="1" parent="otmVsOUsUmoHgW7tO8n4-26">
          <mxGeometry y="360" width="190" height="30" as="geometry" />
        </mxCell>
        <mxCell id="GU3HYsAkaJgYAgijkCwu-2" style="edgeStyle=orthogonalEdgeStyle;rounded=0;orthogonalLoop=1;jettySize=auto;html=1;exitX=0.5;exitY=1;exitDx=0;exitDy=0;exitPerimeter=0;entryX=0.5;entryY=0;entryDx=0;entryDy=0;" edge="1" parent="otmVsOUsUmoHgW7tO8n4-1" source="kkQi9RIw6sHXsyYCwHdZ-0" target="otmVsOUsUmoHgW7tO8n4-3">
          <mxGeometry relative="1" as="geometry" />
        </mxCell>
        <mxCell id="GU3HYsAkaJgYAgijkCwu-3" style="edgeStyle=orthogonalEdgeStyle;rounded=0;orthogonalLoop=1;jettySize=auto;html=1;exitX=0.5;exitY=1;exitDx=0;exitDy=0;exitPerimeter=0;entryX=0.5;entryY=1;entryDx=0;entryDy=0;" edge="1" parent="otmVsOUsUmoHgW7tO8n4-1" source="kkQi9RIw6sHXsyYCwHdZ-0" target="otmVsOUsUmoHgW7tO8n4-5">
          <mxGeometry relative="1" as="geometry" />
        </mxCell>
        <mxCell id="kkQi9RIw6sHXsyYCwHdZ-0" value="" style="shape=cylinder3;whiteSpace=wrap;html=1;boundedLbl=1;backgroundOutline=1;size=15;" vertex="1" parent="otmVsOUsUmoHgW7tO8n4-1">
          <mxGeometry x="170" y="-60" width="85" height="110" as="geometry" />
        </mxCell>
        <mxCell id="GU3HYsAkaJgYAgijkCwu-0" value="&lt;span style=&quot;color: rgb(0, 0, 0); font-family: Helvetica; font-size: 12px; font-style: normal; font-variant-ligatures: normal; font-variant-caps: normal; font-weight: 400; letter-spacing: normal; orphans: 2; text-indent: 0px; text-transform: none; widows: 2; word-spacing: 0px; -webkit-text-stroke-width: 0px; white-space: normal; background-color: rgb(251, 251, 251); text-decoration-thickness: initial; text-decoration-style: initial; text-decoration-color: initial; float: none; display: inline !important;&quot;&gt;marketing_mix_model&lt;/span&gt;&lt;div style=&quot;forced-color-adjust: none; color: rgb(0, 0, 0); font-family: Helvetica; font-size: 12px; font-style: normal; font-variant-ligatures: normal; font-variant-caps: normal; font-weight: 400; letter-spacing: normal; orphans: 2; text-indent: 0px; text-transform: none; widows: 2; word-spacing: 0px; -webkit-text-stroke-width: 0px; white-space: normal; background-color: rgb(251, 251, 251); text-decoration-thickness: initial; text-decoration-style: initial; text-decoration-color: initial;&quot;&gt;regional_marketing_mix_modeling_data&lt;/div&gt;" style="text;whiteSpace=wrap;html=1;align=center;" vertex="1" parent="otmVsOUsUmoHgW7tO8n4-1">
          <mxGeometry x="87.5" y="60" width="250" height="50" as="geometry" />
        </mxCell>
      </root>
    </mxGraphModel>
  </diagram>
  <diagram id="AOwghsU2oKszIihaz5qh" name="regional_data">
    <mxGraphModel dx="1674" dy="761" grid="1" gridSize="10" guides="1" tooltips="1" connect="1" arrows="1" fold="1" page="1" pageScale="1" pageWidth="850" pageHeight="1100" math="0" shadow="0">
      <root>
        <mxCell id="0" />
        <mxCell id="1" parent="0" />
        <mxCell id="Y4ncxvYQYkA7tc0O-MOa-1" value="" style="rounded=0;whiteSpace=wrap;html=1;fillColor=#FFFAD6;" vertex="1" parent="1">
          <mxGeometry x="70" y="620" width="540" height="380" as="geometry" />
        </mxCell>
        <mxCell id="Y4ncxvYQYkA7tc0O-MOa-2" style="edgeStyle=orthogonalEdgeStyle;rounded=0;orthogonalLoop=1;jettySize=auto;html=1;exitX=1;exitY=0.5;exitDx=0;exitDy=0;" edge="1" parent="1" source="Y4ncxvYQYkA7tc0O-MOa-3" target="Y4ncxvYQYkA7tc0O-MOa-16">
          <mxGeometry relative="1" as="geometry" />
        </mxCell>
        <mxCell id="Y4ncxvYQYkA7tc0O-MOa-3" value="regional_data_bf_search" style="rounded=1;whiteSpace=wrap;html=1;" vertex="1" parent="1">
          <mxGeometry x="85" y="650" width="195" height="30" as="geometry" />
        </mxCell>
        <mxCell id="Y4ncxvYQYkA7tc0O-MOa-4" style="edgeStyle=orthogonalEdgeStyle;rounded=0;orthogonalLoop=1;jettySize=auto;html=1;entryX=0.5;entryY=0;entryDx=0;entryDy=0;" edge="1" parent="1" source="Y4ncxvYQYkA7tc0O-MOa-5" target="Y4ncxvYQYkA7tc0O-MOa-16">
          <mxGeometry relative="1" as="geometry" />
        </mxCell>
        <mxCell id="Y4ncxvYQYkA7tc0O-MOa-5" value="regional_data_google_ads" style="rounded=1;whiteSpace=wrap;html=1;" vertex="1" parent="1">
          <mxGeometry x="85" y="700" width="195" height="30" as="geometry" />
        </mxCell>
        <mxCell id="Y4ncxvYQYkA7tc0O-MOa-6" style="edgeStyle=orthogonalEdgeStyle;rounded=0;orthogonalLoop=1;jettySize=auto;html=1;exitX=1;exitY=0.5;exitDx=0;exitDy=0;" edge="1" parent="1" source="Y4ncxvYQYkA7tc0O-MOa-7" target="Y4ncxvYQYkA7tc0O-MOa-16">
          <mxGeometry relative="1" as="geometry" />
        </mxCell>
        <mxCell id="Y4ncxvYQYkA7tc0O-MOa-7" value="regional_data_market_size" style="rounded=1;whiteSpace=wrap;html=1;" vertex="1" parent="1">
          <mxGeometry x="85" y="750" width="195" height="30" as="geometry" />
        </mxCell>
        <mxCell id="Y4ncxvYQYkA7tc0O-MOa-8" style="edgeStyle=orthogonalEdgeStyle;rounded=0;orthogonalLoop=1;jettySize=auto;html=1;exitX=1;exitY=0.5;exitDx=0;exitDy=0;entryX=0.5;entryY=1;entryDx=0;entryDy=0;" edge="1" parent="1" source="Y4ncxvYQYkA7tc0O-MOa-9" target="Y4ncxvYQYkA7tc0O-MOa-16">
          <mxGeometry relative="1" as="geometry" />
        </mxCell>
        <mxCell id="Y4ncxvYQYkA7tc0O-MOa-9" value="regional_data_offline" style="rounded=1;whiteSpace=wrap;html=1;" vertex="1" parent="1">
          <mxGeometry x="85" y="800" width="195" height="30" as="geometry" />
        </mxCell>
        <mxCell id="Y4ncxvYQYkA7tc0O-MOa-10" style="edgeStyle=orthogonalEdgeStyle;rounded=0;orthogonalLoop=1;jettySize=auto;html=1;exitX=1;exitY=0.5;exitDx=0;exitDy=0;entryX=0.5;entryY=1;entryDx=0;entryDy=0;" edge="1" parent="1" source="Y4ncxvYQYkA7tc0O-MOa-11" target="Y4ncxvYQYkA7tc0O-MOa-16">
          <mxGeometry relative="1" as="geometry" />
        </mxCell>
        <mxCell id="Y4ncxvYQYkA7tc0O-MOa-11" value="regional_data_orders" style="rounded=1;whiteSpace=wrap;html=1;" vertex="1" parent="1">
          <mxGeometry x="85" y="850" width="195" height="30" as="geometry" />
        </mxCell>
        <mxCell id="Y4ncxvYQYkA7tc0O-MOa-12" style="edgeStyle=orthogonalEdgeStyle;rounded=0;orthogonalLoop=1;jettySize=auto;html=1;exitX=1;exitY=0.5;exitDx=0;exitDy=0;entryX=0.5;entryY=1;entryDx=0;entryDy=0;" edge="1" parent="1" source="Y4ncxvYQYkA7tc0O-MOa-13" target="Y4ncxvYQYkA7tc0O-MOa-16">
          <mxGeometry relative="1" as="geometry" />
        </mxCell>
        <mxCell id="Y4ncxvYQYkA7tc0O-MOa-13" value="regional_data_social" style="rounded=1;whiteSpace=wrap;html=1;" vertex="1" parent="1">
          <mxGeometry x="85" y="900" width="195" height="30" as="geometry" />
        </mxCell>
        <mxCell id="Y4ncxvYQYkA7tc0O-MOa-14" style="edgeStyle=orthogonalEdgeStyle;rounded=0;orthogonalLoop=1;jettySize=auto;html=1;entryX=0.5;entryY=1;entryDx=0;entryDy=0;" edge="1" parent="1" source="Y4ncxvYQYkA7tc0O-MOa-15" target="Y4ncxvYQYkA7tc0O-MOa-16">
          <mxGeometry relative="1" as="geometry" />
        </mxCell>
        <mxCell id="Y4ncxvYQYkA7tc0O-MOa-15" value="regional_data_video_ga" style="rounded=1;whiteSpace=wrap;html=1;" vertex="1" parent="1">
          <mxGeometry x="85" y="950" width="195" height="30" as="geometry" />
        </mxCell>
        <mxCell id="Y4ncxvYQYkA7tc0O-MOa-16" value="regional_marketing_mix_model_data" style="rounded=1;whiteSpace=wrap;html=1;" vertex="1" parent="1">
          <mxGeometry x="360" y="760" width="230" height="30" as="geometry" />
        </mxCell>
      </root>
    </mxGraphModel>
  </diagram>
  <diagram id="DNHj3VqYWTkiBEJXsQBJ" name="Full Dag">
    <mxGraphModel dx="2074" dy="1214" grid="1" gridSize="10" guides="1" tooltips="1" connect="1" arrows="1" fold="1" page="1" pageScale="1" pageWidth="850" pageHeight="1100" math="0" shadow="0">
      <root>
        <mxCell id="0" />
        <mxCell id="1" parent="0" />
        <mxCell id="oRBzTA_e3q8j1ZqxOKPN-35" style="edgeStyle=orthogonalEdgeStyle;rounded=0;orthogonalLoop=1;jettySize=auto;html=1;exitX=1;exitY=0.5;exitDx=0;exitDy=0;entryX=0;entryY=0.5;entryDx=0;entryDy=0;" parent="1" source="oRBzTA_e3q8j1ZqxOKPN-33" target="w4CLHaQYjBZ19ITWc5R1-49" edge="1">
          <mxGeometry relative="1" as="geometry" />
        </mxCell>
        <mxCell id="oRBzTA_e3q8j1ZqxOKPN-33" value="" style="rounded=0;whiteSpace=wrap;html=1;fillColor=#FFFAD6;" parent="1" vertex="1">
          <mxGeometry x="830" y="230" width="760" height="640" as="geometry" />
        </mxCell>
        <mxCell id="w4CLHaQYjBZ19ITWc5R1-49" value="" style="rounded=0;whiteSpace=wrap;html=1;fillColor=#FFFAD6;" parent="1" vertex="1">
          <mxGeometry x="1680" y="210" width="960.5" height="690" as="geometry" />
        </mxCell>
        <mxCell id="YG2VLh0t06Ziu8axefHs-1" value="" style="rounded=0;whiteSpace=wrap;html=1;fillColor=#FFFAD6;" parent="1" vertex="1">
          <mxGeometry x="200" y="390" width="540" height="380" as="geometry" />
        </mxCell>
        <mxCell id="YG2VLh0t06Ziu8axefHs-2" style="edgeStyle=orthogonalEdgeStyle;rounded=0;orthogonalLoop=1;jettySize=auto;html=1;exitX=1;exitY=0.5;exitDx=0;exitDy=0;" parent="1" source="YG2VLh0t06Ziu8axefHs-3" target="YG2VLh0t06Ziu8axefHs-16" edge="1">
          <mxGeometry relative="1" as="geometry" />
        </mxCell>
        <mxCell id="YG2VLh0t06Ziu8axefHs-3" value="regional_data_bf_search" style="rounded=1;whiteSpace=wrap;html=1;" parent="1" vertex="1">
          <mxGeometry x="215" y="420" width="195" height="30" as="geometry" />
        </mxCell>
        <mxCell id="YG2VLh0t06Ziu8axefHs-4" style="edgeStyle=orthogonalEdgeStyle;rounded=0;orthogonalLoop=1;jettySize=auto;html=1;entryX=0.5;entryY=0;entryDx=0;entryDy=0;" parent="1" source="YG2VLh0t06Ziu8axefHs-5" target="YG2VLh0t06Ziu8axefHs-16" edge="1">
          <mxGeometry relative="1" as="geometry" />
        </mxCell>
        <mxCell id="YG2VLh0t06Ziu8axefHs-5" value="regional_data_google_ads" style="rounded=1;whiteSpace=wrap;html=1;" parent="1" vertex="1">
          <mxGeometry x="215" y="470" width="195" height="30" as="geometry" />
        </mxCell>
        <mxCell id="YG2VLh0t06Ziu8axefHs-6" style="edgeStyle=orthogonalEdgeStyle;rounded=0;orthogonalLoop=1;jettySize=auto;html=1;exitX=1;exitY=0.5;exitDx=0;exitDy=0;" parent="1" source="YG2VLh0t06Ziu8axefHs-7" target="YG2VLh0t06Ziu8axefHs-16" edge="1">
          <mxGeometry relative="1" as="geometry" />
        </mxCell>
        <mxCell id="YG2VLh0t06Ziu8axefHs-7" value="regional_data_market_size" style="rounded=1;whiteSpace=wrap;html=1;" parent="1" vertex="1">
          <mxGeometry x="215" y="520" width="195" height="30" as="geometry" />
        </mxCell>
        <mxCell id="YG2VLh0t06Ziu8axefHs-8" style="edgeStyle=orthogonalEdgeStyle;rounded=0;orthogonalLoop=1;jettySize=auto;html=1;exitX=1;exitY=0.5;exitDx=0;exitDy=0;entryX=0.5;entryY=1;entryDx=0;entryDy=0;" parent="1" source="YG2VLh0t06Ziu8axefHs-9" target="YG2VLh0t06Ziu8axefHs-16" edge="1">
          <mxGeometry relative="1" as="geometry" />
        </mxCell>
        <mxCell id="YG2VLh0t06Ziu8axefHs-9" value="regional_data_offline" style="rounded=1;whiteSpace=wrap;html=1;" parent="1" vertex="1">
          <mxGeometry x="215" y="570" width="195" height="30" as="geometry" />
        </mxCell>
        <mxCell id="YG2VLh0t06Ziu8axefHs-10" style="edgeStyle=orthogonalEdgeStyle;rounded=0;orthogonalLoop=1;jettySize=auto;html=1;exitX=1;exitY=0.5;exitDx=0;exitDy=0;entryX=0.5;entryY=1;entryDx=0;entryDy=0;" parent="1" source="YG2VLh0t06Ziu8axefHs-11" target="YG2VLh0t06Ziu8axefHs-16" edge="1">
          <mxGeometry relative="1" as="geometry" />
        </mxCell>
        <mxCell id="YG2VLh0t06Ziu8axefHs-11" value="regional_data_orders" style="rounded=1;whiteSpace=wrap;html=1;" parent="1" vertex="1">
          <mxGeometry x="215" y="620" width="195" height="30" as="geometry" />
        </mxCell>
        <mxCell id="YG2VLh0t06Ziu8axefHs-12" style="edgeStyle=orthogonalEdgeStyle;rounded=0;orthogonalLoop=1;jettySize=auto;html=1;exitX=1;exitY=0.5;exitDx=0;exitDy=0;entryX=0.5;entryY=1;entryDx=0;entryDy=0;" parent="1" source="YG2VLh0t06Ziu8axefHs-13" target="YG2VLh0t06Ziu8axefHs-16" edge="1">
          <mxGeometry relative="1" as="geometry" />
        </mxCell>
        <mxCell id="YG2VLh0t06Ziu8axefHs-13" value="regional_data_social" style="rounded=1;whiteSpace=wrap;html=1;" parent="1" vertex="1">
          <mxGeometry x="215" y="670" width="195" height="30" as="geometry" />
        </mxCell>
        <mxCell id="YG2VLh0t06Ziu8axefHs-14" style="edgeStyle=orthogonalEdgeStyle;rounded=0;orthogonalLoop=1;jettySize=auto;html=1;entryX=0.5;entryY=1;entryDx=0;entryDy=0;" parent="1" source="YG2VLh0t06Ziu8axefHs-15" target="YG2VLh0t06Ziu8axefHs-16" edge="1">
          <mxGeometry relative="1" as="geometry" />
        </mxCell>
        <mxCell id="YG2VLh0t06Ziu8axefHs-15" value="regional_data_video_ga" style="rounded=1;whiteSpace=wrap;html=1;" parent="1" vertex="1">
          <mxGeometry x="215" y="720" width="195" height="30" as="geometry" />
        </mxCell>
        <mxCell id="YG2VLh0t06Ziu8axefHs-16" value="regional_marketing_mix_model_data" style="rounded=1;whiteSpace=wrap;html=1;" parent="1" vertex="1">
          <mxGeometry x="490" y="530" width="230" height="30" as="geometry" />
        </mxCell>
        <mxCell id="w4CLHaQYjBZ19ITWc5R1-1" value="" style="rounded=0;whiteSpace=wrap;html=1;fillColor=#CCFFFF;" parent="1" vertex="1">
          <mxGeometry x="2140.5" y="385" width="160" height="140" as="geometry" />
        </mxCell>
        <mxCell id="w4CLHaQYjBZ19ITWc5R1-2" style="edgeStyle=orthogonalEdgeStyle;rounded=0;orthogonalLoop=1;jettySize=auto;html=1;entryX=0;entryY=0.5;entryDx=0;entryDy=0;" parent="1" source="w4CLHaQYjBZ19ITWc5R1-7" target="w4CLHaQYjBZ19ITWc5R1-12" edge="1">
          <mxGeometry relative="1" as="geometry" />
        </mxCell>
        <mxCell id="w4CLHaQYjBZ19ITWc5R1-3" style="edgeStyle=orthogonalEdgeStyle;rounded=0;orthogonalLoop=1;jettySize=auto;html=1;exitX=1;exitY=0.5;exitDx=0;exitDy=0;entryX=0;entryY=0.5;entryDx=0;entryDy=0;" parent="1" source="w4CLHaQYjBZ19ITWc5R1-7" target="w4CLHaQYjBZ19ITWc5R1-15" edge="1">
          <mxGeometry relative="1" as="geometry" />
        </mxCell>
        <mxCell id="w4CLHaQYjBZ19ITWc5R1-4" style="edgeStyle=orthogonalEdgeStyle;rounded=0;orthogonalLoop=1;jettySize=auto;html=1;exitX=1;exitY=0.5;exitDx=0;exitDy=0;entryX=0;entryY=0.5;entryDx=0;entryDy=0;" parent="1" source="w4CLHaQYjBZ19ITWc5R1-7" target="w4CLHaQYjBZ19ITWc5R1-17" edge="1">
          <mxGeometry relative="1" as="geometry" />
        </mxCell>
        <mxCell id="w4CLHaQYjBZ19ITWc5R1-5" style="edgeStyle=orthogonalEdgeStyle;rounded=0;orthogonalLoop=1;jettySize=auto;html=1;exitX=1;exitY=0.5;exitDx=0;exitDy=0;entryX=0;entryY=0.5;entryDx=0;entryDy=0;" parent="1" source="w4CLHaQYjBZ19ITWc5R1-7" target="w4CLHaQYjBZ19ITWc5R1-21" edge="1">
          <mxGeometry relative="1" as="geometry" />
        </mxCell>
        <mxCell id="w4CLHaQYjBZ19ITWc5R1-6" style="edgeStyle=orthogonalEdgeStyle;rounded=0;orthogonalLoop=1;jettySize=auto;html=1;exitX=1;exitY=0.5;exitDx=0;exitDy=0;entryX=0;entryY=0.5;entryDx=0;entryDy=0;" parent="1" source="w4CLHaQYjBZ19ITWc5R1-7" target="w4CLHaQYjBZ19ITWc5R1-16" edge="1">
          <mxGeometry relative="1" as="geometry" />
        </mxCell>
        <mxCell id="w4CLHaQYjBZ19ITWc5R1-7" value="mmm_decay_effect" style="rounded=1;whiteSpace=wrap;html=1;" parent="1" vertex="1">
          <mxGeometry x="1840.5" y="465" width="130" height="40" as="geometry" />
        </mxCell>
        <mxCell id="w4CLHaQYjBZ19ITWc5R1-8" style="edgeStyle=orthogonalEdgeStyle;rounded=0;orthogonalLoop=1;jettySize=auto;html=1;exitX=1;exitY=0.5;exitDx=0;exitDy=0;entryX=0;entryY=0.5;entryDx=0;entryDy=0;" parent="1" source="w4CLHaQYjBZ19ITWc5R1-9" target="w4CLHaQYjBZ19ITWc5R1-22" edge="1">
          <mxGeometry relative="1" as="geometry" />
        </mxCell>
        <mxCell id="w4CLHaQYjBZ19ITWc5R1-9" value="mmm_diminishing_returns" style="rounded=1;whiteSpace=wrap;html=1;" parent="1" vertex="1">
          <mxGeometry x="1820.5" y="525" width="150" height="40" as="geometry" />
        </mxCell>
        <mxCell id="w4CLHaQYjBZ19ITWc5R1-10" style="edgeStyle=orthogonalEdgeStyle;rounded=0;orthogonalLoop=1;jettySize=auto;html=1;exitX=1;exitY=0.5;exitDx=0;exitDy=0;entryX=0;entryY=0.5;entryDx=0;entryDy=0;" parent="1" source="w4CLHaQYjBZ19ITWc5R1-12" target="w4CLHaQYjBZ19ITWc5R1-27" edge="1">
          <mxGeometry relative="1" as="geometry" />
        </mxCell>
        <mxCell id="w4CLHaQYjBZ19ITWc5R1-11" style="edgeStyle=orthogonalEdgeStyle;rounded=0;orthogonalLoop=1;jettySize=auto;html=1;exitX=0.5;exitY=0;exitDx=0;exitDy=0;entryX=0;entryY=0.5;entryDx=0;entryDy=0;" parent="1" source="w4CLHaQYjBZ19ITWc5R1-12" target="w4CLHaQYjBZ19ITWc5R1-31" edge="1">
          <mxGeometry relative="1" as="geometry" />
        </mxCell>
        <mxCell id="w4CLHaQYjBZ19ITWc5R1-12" value="mmm_social" style="rounded=1;whiteSpace=wrap;html=1;fillColor=#FFCC99;" parent="1" vertex="1">
          <mxGeometry x="2030.5" y="405" width="100" height="40" as="geometry" />
        </mxCell>
        <mxCell id="w4CLHaQYjBZ19ITWc5R1-13" value="" style="edgeStyle=orthogonalEdgeStyle;rounded=0;orthogonalLoop=1;jettySize=auto;html=1;" parent="1" source="w4CLHaQYjBZ19ITWc5R1-15" target="w4CLHaQYjBZ19ITWc5R1-25" edge="1">
          <mxGeometry relative="1" as="geometry" />
        </mxCell>
        <mxCell id="w4CLHaQYjBZ19ITWc5R1-14" style="edgeStyle=orthogonalEdgeStyle;rounded=0;orthogonalLoop=1;jettySize=auto;html=1;exitX=0.5;exitY=1;exitDx=0;exitDy=0;entryX=0;entryY=0.5;entryDx=0;entryDy=0;" parent="1" source="w4CLHaQYjBZ19ITWc5R1-15" target="w4CLHaQYjBZ19ITWc5R1-34" edge="1">
          <mxGeometry relative="1" as="geometry" />
        </mxCell>
        <mxCell id="w4CLHaQYjBZ19ITWc5R1-15" value="mmm_offline" style="rounded=1;whiteSpace=wrap;html=1;fillColor=#FFFF33;" parent="1" vertex="1">
          <mxGeometry x="2030.5" y="465" width="100" height="40" as="geometry" />
        </mxCell>
        <mxCell id="w4CLHaQYjBZ19ITWc5R1-16" value="mmm_video" style="rounded=1;whiteSpace=wrap;html=1;fillColor=#FF00FF;" parent="1" vertex="1">
          <mxGeometry x="2029.5" y="535" width="100" height="40" as="geometry" />
        </mxCell>
        <mxCell id="w4CLHaQYjBZ19ITWc5R1-17" value="mmm_display&lt;div&gt;programmatic&lt;/div&gt;&lt;div&gt;untrackable&lt;/div&gt;" style="rounded=1;whiteSpace=wrap;html=1;fillColor=#66FFFF;" parent="1" vertex="1">
          <mxGeometry x="2029.5" y="665" width="100" height="40" as="geometry" />
        </mxCell>
        <mxCell id="w4CLHaQYjBZ19ITWc5R1-18" value="" style="edgeStyle=orthogonalEdgeStyle;rounded=0;orthogonalLoop=1;jettySize=auto;html=1;" parent="1" source="w4CLHaQYjBZ19ITWc5R1-19" target="w4CLHaQYjBZ19ITWc5R1-20" edge="1">
          <mxGeometry relative="1" as="geometry" />
        </mxCell>
        <mxCell id="w4CLHaQYjBZ19ITWc5R1-19" value="mmm_offline_spot_level" style="rounded=1;whiteSpace=wrap;html=1;fillColor=#FFFF33;" parent="1" vertex="1">
          <mxGeometry x="2300.5" y="465" width="150" height="40" as="geometry" />
        </mxCell>
        <mxCell id="w4CLHaQYjBZ19ITWc5R1-20" value="mmm_daily_feed" style="rounded=1;whiteSpace=wrap;html=1;fillColor=#7EA6E0;" parent="1" vertex="1">
          <mxGeometry x="2480.5" y="465" width="100" height="40" as="geometry" />
        </mxCell>
        <mxCell id="w4CLHaQYjBZ19ITWc5R1-21" value="mmm_display&lt;div&gt;buy_direct_untrackable&lt;/div&gt;" style="rounded=1;whiteSpace=wrap;html=1;fillColor=#66FFFF;" parent="1" vertex="1">
          <mxGeometry x="2029.5" y="605" width="121" height="40" as="geometry" />
        </mxCell>
        <mxCell id="w4CLHaQYjBZ19ITWc5R1-22" value="mmm_display&lt;div&gt;trackable&lt;/div&gt;" style="rounded=1;whiteSpace=wrap;html=1;fillColor=#66FFFF;" parent="1" vertex="1">
          <mxGeometry x="2030.5" y="725" width="100" height="40" as="geometry" />
        </mxCell>
        <mxCell id="w4CLHaQYjBZ19ITWc5R1-23" value="" style="edgeStyle=orthogonalEdgeStyle;rounded=0;orthogonalLoop=1;jettySize=auto;html=1;" parent="1" source="w4CLHaQYjBZ19ITWc5R1-25" target="w4CLHaQYjBZ19ITWc5R1-19" edge="1">
          <mxGeometry relative="1" as="geometry" />
        </mxCell>
        <mxCell id="w4CLHaQYjBZ19ITWc5R1-24" style="edgeStyle=orthogonalEdgeStyle;rounded=0;orthogonalLoop=1;jettySize=auto;html=1;exitX=0.75;exitY=1;exitDx=0;exitDy=0;entryX=0.75;entryY=0;entryDx=0;entryDy=0;" parent="1" source="w4CLHaQYjBZ19ITWc5R1-25" target="w4CLHaQYjBZ19ITWc5R1-34" edge="1">
          <mxGeometry relative="1" as="geometry" />
        </mxCell>
        <mxCell id="w4CLHaQYjBZ19ITWc5R1-25" value="att_bayesian_offline" style="rounded=1;whiteSpace=wrap;html=1;fillColor=#FFFF33;strokeColor=#009900;shadow=0;" parent="1" vertex="1">
          <mxGeometry x="2160.5" y="465" width="110" height="40" as="geometry" />
        </mxCell>
        <mxCell id="w4CLHaQYjBZ19ITWc5R1-26" style="edgeStyle=orthogonalEdgeStyle;rounded=0;orthogonalLoop=1;jettySize=auto;html=1;exitX=1;exitY=0.5;exitDx=0;exitDy=0;entryX=0.5;entryY=0;entryDx=0;entryDy=0;" parent="1" source="w4CLHaQYjBZ19ITWc5R1-27" target="w4CLHaQYjBZ19ITWc5R1-20" edge="1">
          <mxGeometry relative="1" as="geometry" />
        </mxCell>
        <mxCell id="w4CLHaQYjBZ19ITWc5R1-27" value="att_bayesian_social" style="rounded=1;whiteSpace=wrap;html=1;fillColor=#FFCC99;strokeColor=#009900;shadow=0;" parent="1" vertex="1">
          <mxGeometry x="2160.5" y="405" width="109.5" height="40" as="geometry" />
        </mxCell>
        <mxCell id="w4CLHaQYjBZ19ITWc5R1-28" style="edgeStyle=orthogonalEdgeStyle;rounded=0;orthogonalLoop=1;jettySize=auto;html=1;entryX=0.5;entryY=0;entryDx=0;entryDy=0;" parent="1" source="w4CLHaQYjBZ19ITWc5R1-29" target="w4CLHaQYjBZ19ITWc5R1-27" edge="1">
          <mxGeometry relative="1" as="geometry" />
        </mxCell>
        <mxCell id="w4CLHaQYjBZ19ITWc5R1-29" value="mmm_social" style="swimlane;fontStyle=0;childLayout=stackLayout;horizontal=1;startSize=30;horizontalStack=0;resizeParent=1;resizeParentMax=0;resizeLast=0;collapsible=1;marginBottom=0;whiteSpace=wrap;html=1;fillColor=#FFCC99;strokeColor=default;align=center;verticalAlign=middle;fontFamily=Helvetica;fontSize=12;fontColor=default;" parent="1" vertex="1">
          <mxGeometry x="2160.5" y="255" width="100" height="120" as="geometry" />
        </mxCell>
        <mxCell id="w4CLHaQYjBZ19ITWc5R1-30" value="impression_date" style="text;strokeColor=none;fillColor=none;align=left;verticalAlign=middle;spacingLeft=4;spacingRight=4;overflow=hidden;points=[[0,0.5],[1,0.5]];portConstraint=eastwest;rotatable=0;whiteSpace=wrap;html=1;fontFamily=Helvetica;fontSize=12;fontColor=default;fontStyle=0;" parent="w4CLHaQYjBZ19ITWc5R1-29" vertex="1">
          <mxGeometry y="30" width="100" height="30" as="geometry" />
        </mxCell>
        <mxCell id="w4CLHaQYjBZ19ITWc5R1-31" value="order_date" style="text;strokeColor=none;fillColor=none;align=left;verticalAlign=middle;spacingLeft=4;spacingRight=4;overflow=hidden;points=[[0,0.5],[1,0.5]];portConstraint=eastwest;rotatable=0;whiteSpace=wrap;html=1;fontFamily=Helvetica;fontSize=12;fontColor=default;fontStyle=0;" parent="w4CLHaQYjBZ19ITWc5R1-29" vertex="1">
          <mxGeometry y="60" width="100" height="30" as="geometry" />
        </mxCell>
        <mxCell id="w4CLHaQYjBZ19ITWc5R1-32" value="device" style="text;strokeColor=none;fillColor=none;align=left;verticalAlign=middle;spacingLeft=4;spacingRight=4;overflow=hidden;points=[[0,0.5],[1,0.5]];portConstraint=eastwest;rotatable=0;whiteSpace=wrap;html=1;fontFamily=Helvetica;fontSize=12;fontColor=default;fontStyle=0;" parent="w4CLHaQYjBZ19ITWc5R1-29" vertex="1">
          <mxGeometry y="90" width="100" height="30" as="geometry" />
        </mxCell>
        <mxCell id="w4CLHaQYjBZ19ITWc5R1-33" style="edgeStyle=orthogonalEdgeStyle;rounded=0;orthogonalLoop=1;jettySize=auto;html=1;exitX=0.5;exitY=0;exitDx=0;exitDy=0;entryX=0.5;entryY=1;entryDx=0;entryDy=0;" parent="1" source="w4CLHaQYjBZ19ITWc5R1-34" target="w4CLHaQYjBZ19ITWc5R1-25" edge="1">
          <mxGeometry relative="1" as="geometry" />
        </mxCell>
        <mxCell id="w4CLHaQYjBZ19ITWc5R1-34" value="mmm_offline" style="swimlane;fontStyle=0;childLayout=stackLayout;horizontal=1;startSize=30;horizontalStack=0;resizeParent=1;resizeParentMax=0;resizeLast=0;collapsible=1;marginBottom=0;whiteSpace=wrap;html=1;fillColor=#FFFF33;" parent="1" vertex="1">
          <mxGeometry x="2160.5" y="535" width="100" height="110" as="geometry" />
        </mxCell>
        <mxCell id="w4CLHaQYjBZ19ITWc5R1-35" value="impression_date" style="text;strokeColor=none;fillColor=none;align=left;verticalAlign=middle;spacingLeft=4;spacingRight=4;overflow=hidden;points=[[0,0.5],[1,0.5]];portConstraint=eastwest;rotatable=0;whiteSpace=wrap;html=1;" parent="w4CLHaQYjBZ19ITWc5R1-34" vertex="1">
          <mxGeometry y="30" width="100" height="30" as="geometry" />
        </mxCell>
        <mxCell id="w4CLHaQYjBZ19ITWc5R1-36" value="order_date" style="text;strokeColor=none;fillColor=none;align=left;verticalAlign=middle;spacingLeft=4;spacingRight=4;overflow=hidden;points=[[0,0.5],[1,0.5]];portConstraint=eastwest;rotatable=0;whiteSpace=wrap;html=1;" parent="w4CLHaQYjBZ19ITWc5R1-34" vertex="1">
          <mxGeometry y="60" width="100" height="30" as="geometry" />
        </mxCell>
        <mxCell id="w4CLHaQYjBZ19ITWc5R1-37" value="orders" style="text;strokeColor=none;fillColor=none;align=left;verticalAlign=middle;spacingLeft=4;spacingRight=4;overflow=hidden;points=[[0,0.5],[1,0.5]];portConstraint=eastwest;rotatable=0;whiteSpace=wrap;html=1;" parent="w4CLHaQYjBZ19ITWc5R1-34" vertex="1">
          <mxGeometry y="90" width="100" height="20" as="geometry" />
        </mxCell>
        <mxCell id="w4CLHaQYjBZ19ITWc5R1-38" style="edgeStyle=orthogonalEdgeStyle;rounded=0;orthogonalLoop=1;jettySize=auto;html=1;exitX=0.75;exitY=0;exitDx=0;exitDy=0;entryX=0.73;entryY=1.1;entryDx=0;entryDy=0;entryPerimeter=0;" parent="1" source="w4CLHaQYjBZ19ITWc5R1-27" target="w4CLHaQYjBZ19ITWc5R1-32" edge="1">
          <mxGeometry relative="1" as="geometry" />
        </mxCell>
        <mxCell id="w4CLHaQYjBZ19ITWc5R1-40" value="dsci&lt;div&gt;mmm_social&lt;/div&gt;" style="swimlane;fontStyle=0;childLayout=stackLayout;horizontal=1;startSize=30;horizontalStack=0;resizeParent=1;resizeParentMax=0;resizeLast=0;collapsible=1;marginBottom=0;whiteSpace=wrap;html=1;fillColor=#FFCC99;strokeColor=default;align=center;verticalAlign=middle;fontFamily=Helvetica;fontSize=12;fontColor=default;" parent="1" vertex="1">
          <mxGeometry x="2290.5" y="255" width="100" height="120" as="geometry" />
        </mxCell>
        <mxCell id="w4CLHaQYjBZ19ITWc5R1-41" value="impression_date" style="text;strokeColor=none;fillColor=none;align=left;verticalAlign=middle;spacingLeft=4;spacingRight=4;overflow=hidden;points=[[0,0.5],[1,0.5]];portConstraint=eastwest;rotatable=0;whiteSpace=wrap;html=1;fontFamily=Helvetica;fontSize=12;fontColor=default;fontStyle=0;" parent="w4CLHaQYjBZ19ITWc5R1-40" vertex="1">
          <mxGeometry y="30" width="100" height="30" as="geometry" />
        </mxCell>
        <mxCell id="w4CLHaQYjBZ19ITWc5R1-42" value="order_date" style="text;strokeColor=none;fillColor=none;align=left;verticalAlign=middle;spacingLeft=4;spacingRight=4;overflow=hidden;points=[[0,0.5],[1,0.5]];portConstraint=eastwest;rotatable=0;whiteSpace=wrap;html=1;fontFamily=Helvetica;fontSize=12;fontColor=default;fontStyle=0;" parent="w4CLHaQYjBZ19ITWc5R1-40" vertex="1">
          <mxGeometry y="60" width="100" height="30" as="geometry" />
        </mxCell>
        <mxCell id="w4CLHaQYjBZ19ITWc5R1-43" value="device" style="text;strokeColor=none;fillColor=none;align=left;verticalAlign=middle;spacingLeft=4;spacingRight=4;overflow=hidden;points=[[0,0.5],[1,0.5]];portConstraint=eastwest;rotatable=0;whiteSpace=wrap;html=1;fontFamily=Helvetica;fontSize=12;fontColor=default;fontStyle=0;" parent="w4CLHaQYjBZ19ITWc5R1-40" vertex="1">
          <mxGeometry y="90" width="100" height="30" as="geometry" />
        </mxCell>
        <mxCell id="w4CLHaQYjBZ19ITWc5R1-44" style="edgeStyle=orthogonalEdgeStyle;rounded=0;orthogonalLoop=1;jettySize=auto;html=1;exitX=0.5;exitY=0;exitDx=0;exitDy=0;entryX=1;entryY=1;entryDx=0;entryDy=0;" parent="1" source="w4CLHaQYjBZ19ITWc5R1-45" target="w4CLHaQYjBZ19ITWc5R1-25" edge="1">
          <mxGeometry relative="1" as="geometry" />
        </mxCell>
        <mxCell id="w4CLHaQYjBZ19ITWc5R1-45" value="dsci_offline" style="swimlane;fontStyle=0;childLayout=stackLayout;horizontal=1;startSize=30;horizontalStack=0;resizeParent=1;resizeParentMax=0;resizeLast=0;collapsible=1;marginBottom=0;whiteSpace=wrap;html=1;fillColor=#FFFF33;" parent="1" vertex="1">
          <mxGeometry x="2280.5" y="535" width="100" height="110" as="geometry" />
        </mxCell>
        <mxCell id="w4CLHaQYjBZ19ITWc5R1-46" value="impression_date" style="text;strokeColor=none;fillColor=none;align=left;verticalAlign=middle;spacingLeft=4;spacingRight=4;overflow=hidden;points=[[0,0.5],[1,0.5]];portConstraint=eastwest;rotatable=0;whiteSpace=wrap;html=1;" parent="w4CLHaQYjBZ19ITWc5R1-45" vertex="1">
          <mxGeometry y="30" width="100" height="30" as="geometry" />
        </mxCell>
        <mxCell id="w4CLHaQYjBZ19ITWc5R1-47" value="order_date" style="text;strokeColor=none;fillColor=none;align=left;verticalAlign=middle;spacingLeft=4;spacingRight=4;overflow=hidden;points=[[0,0.5],[1,0.5]];portConstraint=eastwest;rotatable=0;whiteSpace=wrap;html=1;" parent="w4CLHaQYjBZ19ITWc5R1-45" vertex="1">
          <mxGeometry y="60" width="100" height="30" as="geometry" />
        </mxCell>
        <mxCell id="w4CLHaQYjBZ19ITWc5R1-48" value="orders" style="text;strokeColor=none;fillColor=none;align=left;verticalAlign=middle;spacingLeft=4;spacingRight=4;overflow=hidden;points=[[0,0.5],[1,0.5]];portConstraint=eastwest;rotatable=0;whiteSpace=wrap;html=1;" parent="w4CLHaQYjBZ19ITWc5R1-45" vertex="1">
          <mxGeometry y="90" width="100" height="20" as="geometry" />
        </mxCell>
        <mxCell id="oRBzTA_e3q8j1ZqxOKPN-1" style="edgeStyle=orthogonalEdgeStyle;rounded=0;orthogonalLoop=1;jettySize=auto;html=1;entryX=0;entryY=0.5;entryDx=0;entryDy=0;" parent="1" source="oRBzTA_e3q8j1ZqxOKPN-2" target="oRBzTA_e3q8j1ZqxOKPN-5" edge="1">
          <mxGeometry relative="1" as="geometry" />
        </mxCell>
        <mxCell id="oRBzTA_e3q8j1ZqxOKPN-2" value="dsci_bayesian_social" style="rounded=1;whiteSpace=wrap;html=1;fillColor=#FFCC99;" parent="1" vertex="1">
          <mxGeometry x="1210" y="500" width="160" height="70" as="geometry" />
        </mxCell>
        <mxCell id="oRBzTA_e3q8j1ZqxOKPN-3" value="dsci&lt;div&gt;mmm_social&lt;/div&gt;" style="swimlane;fontStyle=0;childLayout=stackLayout;horizontal=1;startSize=30;horizontalStack=0;resizeParent=1;resizeParentMax=0;resizeLast=0;collapsible=1;marginBottom=0;whiteSpace=wrap;html=1;fillColor=#FFCC99;strokeColor=default;align=center;verticalAlign=middle;fontFamily=Helvetica;fontSize=12;fontColor=default;" parent="1" vertex="1">
          <mxGeometry x="1460" y="475" width="100" height="120" as="geometry" />
        </mxCell>
        <mxCell id="oRBzTA_e3q8j1ZqxOKPN-4" value="impression_date" style="text;strokeColor=none;fillColor=none;align=left;verticalAlign=middle;spacingLeft=4;spacingRight=4;overflow=hidden;points=[[0,0.5],[1,0.5]];portConstraint=eastwest;rotatable=0;whiteSpace=wrap;html=1;fontFamily=Helvetica;fontSize=12;fontColor=default;fontStyle=0;" parent="oRBzTA_e3q8j1ZqxOKPN-3" vertex="1">
          <mxGeometry y="30" width="100" height="30" as="geometry" />
        </mxCell>
        <mxCell id="oRBzTA_e3q8j1ZqxOKPN-5" value="order_date" style="text;strokeColor=none;fillColor=none;align=left;verticalAlign=middle;spacingLeft=4;spacingRight=4;overflow=hidden;points=[[0,0.5],[1,0.5]];portConstraint=eastwest;rotatable=0;whiteSpace=wrap;html=1;fontFamily=Helvetica;fontSize=12;fontColor=default;fontStyle=0;" parent="oRBzTA_e3q8j1ZqxOKPN-3" vertex="1">
          <mxGeometry y="60" width="100" height="30" as="geometry" />
        </mxCell>
        <mxCell id="oRBzTA_e3q8j1ZqxOKPN-6" value="device" style="text;strokeColor=none;fillColor=none;align=left;verticalAlign=middle;spacingLeft=4;spacingRight=4;overflow=hidden;points=[[0,0.5],[1,0.5]];portConstraint=eastwest;rotatable=0;whiteSpace=wrap;html=1;fontFamily=Helvetica;fontSize=12;fontColor=default;fontStyle=0;" parent="oRBzTA_e3q8j1ZqxOKPN-3" vertex="1">
          <mxGeometry y="90" width="100" height="30" as="geometry" />
        </mxCell>
        <mxCell id="oRBzTA_e3q8j1ZqxOKPN-7" value="dsci_offline" style="swimlane;fontStyle=0;childLayout=stackLayout;horizontal=1;startSize=30;horizontalStack=0;resizeParent=1;resizeParentMax=0;resizeLast=0;collapsible=1;marginBottom=0;whiteSpace=wrap;html=1;fillColor=#FFFF33;" parent="1" vertex="1">
          <mxGeometry x="1460" y="630" width="100" height="110" as="geometry" />
        </mxCell>
        <mxCell id="oRBzTA_e3q8j1ZqxOKPN-8" value="impression_date" style="text;strokeColor=none;fillColor=none;align=left;verticalAlign=middle;spacingLeft=4;spacingRight=4;overflow=hidden;points=[[0,0.5],[1,0.5]];portConstraint=eastwest;rotatable=0;whiteSpace=wrap;html=1;" parent="oRBzTA_e3q8j1ZqxOKPN-7" vertex="1">
          <mxGeometry y="30" width="100" height="30" as="geometry" />
        </mxCell>
        <mxCell id="oRBzTA_e3q8j1ZqxOKPN-9" value="order_date" style="text;strokeColor=none;fillColor=none;align=left;verticalAlign=middle;spacingLeft=4;spacingRight=4;overflow=hidden;points=[[0,0.5],[1,0.5]];portConstraint=eastwest;rotatable=0;whiteSpace=wrap;html=1;" parent="oRBzTA_e3q8j1ZqxOKPN-7" vertex="1">
          <mxGeometry y="60" width="100" height="30" as="geometry" />
        </mxCell>
        <mxCell id="oRBzTA_e3q8j1ZqxOKPN-10" value="orders" style="text;strokeColor=none;fillColor=none;align=left;verticalAlign=middle;spacingLeft=4;spacingRight=4;overflow=hidden;points=[[0,0.5],[1,0.5]];portConstraint=eastwest;rotatable=0;whiteSpace=wrap;html=1;" parent="oRBzTA_e3q8j1ZqxOKPN-7" vertex="1">
          <mxGeometry y="90" width="100" height="20" as="geometry" />
        </mxCell>
        <mxCell id="oRBzTA_e3q8j1ZqxOKPN-11" value="dsci_bayesian_offline" style="rounded=1;whiteSpace=wrap;html=1;fillColor=#FFFF33;" parent="1" vertex="1">
          <mxGeometry x="1210" y="590" width="160" height="70" as="geometry" />
        </mxCell>
        <mxCell id="oRBzTA_e3q8j1ZqxOKPN-12" style="edgeStyle=orthogonalEdgeStyle;rounded=0;orthogonalLoop=1;jettySize=auto;html=1;exitX=1;exitY=0.5;exitDx=0;exitDy=0;entryX=-0.02;entryY=0.833;entryDx=0;entryDy=0;entryPerimeter=0;" parent="1" source="oRBzTA_e3q8j1ZqxOKPN-11" target="oRBzTA_e3q8j1ZqxOKPN-8" edge="1">
          <mxGeometry relative="1" as="geometry" />
        </mxCell>
        <mxCell id="oRBzTA_e3q8j1ZqxOKPN-13" style="edgeStyle=orthogonalEdgeStyle;rounded=0;orthogonalLoop=1;jettySize=auto;html=1;exitX=1;exitY=0.5;exitDx=0;exitDy=0;entryX=0;entryY=0.5;entryDx=0;entryDy=0;" parent="1" source="oRBzTA_e3q8j1ZqxOKPN-15" target="oRBzTA_e3q8j1ZqxOKPN-2" edge="1">
          <mxGeometry relative="1" as="geometry" />
        </mxCell>
        <mxCell id="oRBzTA_e3q8j1ZqxOKPN-14" style="edgeStyle=orthogonalEdgeStyle;rounded=0;orthogonalLoop=1;jettySize=auto;html=1;exitX=1;exitY=0.5;exitDx=0;exitDy=0;entryX=0;entryY=0.5;entryDx=0;entryDy=0;" parent="1" source="oRBzTA_e3q8j1ZqxOKPN-15" target="oRBzTA_e3q8j1ZqxOKPN-11" edge="1">
          <mxGeometry relative="1" as="geometry" />
        </mxCell>
        <mxCell id="oRBzTA_e3q8j1ZqxOKPN-15" value="Bayesian Model" style="label;whiteSpace=wrap;html=1;image=img/clipart/Gear_128x128.png" parent="1" vertex="1">
          <mxGeometry x="960" y="555" width="160" height="60" as="geometry" />
        </mxCell>
        <mxCell id="oRBzTA_e3q8j1ZqxOKPN-16" style="edgeStyle=orthogonalEdgeStyle;rounded=0;orthogonalLoop=1;jettySize=auto;html=1;exitX=0.5;exitY=0;exitDx=0;exitDy=0;entryX=0.5;entryY=0;entryDx=0;entryDy=0;" parent="1" source="oRBzTA_e3q8j1ZqxOKPN-17" target="oRBzTA_e3q8j1ZqxOKPN-2" edge="1">
          <mxGeometry relative="1" as="geometry" />
        </mxCell>
        <mxCell id="oRBzTA_e3q8j1ZqxOKPN-17" value="social&lt;div&gt;smartly_province_data&lt;/div&gt;" style="swimlane;fontStyle=0;childLayout=stackLayout;horizontal=1;startSize=30;horizontalStack=0;resizeParent=1;resizeParentMax=0;resizeLast=0;collapsible=1;marginBottom=0;whiteSpace=wrap;html=1;fillColor=#FFCC99;" parent="1" vertex="1">
          <mxGeometry x="1100" y="310" width="140" height="120" as="geometry" />
        </mxCell>
        <mxCell id="oRBzTA_e3q8j1ZqxOKPN-18" value="Campaign" style="text;strokeColor=none;fillColor=none;align=left;verticalAlign=middle;spacingLeft=4;spacingRight=4;overflow=hidden;points=[[0,0.5],[1,0.5]];portConstraint=eastwest;rotatable=0;whiteSpace=wrap;html=1;" parent="oRBzTA_e3q8j1ZqxOKPN-17" vertex="1">
          <mxGeometry y="30" width="140" height="30" as="geometry" />
        </mxCell>
        <mxCell id="oRBzTA_e3q8j1ZqxOKPN-19" value="Impressions" style="text;strokeColor=none;fillColor=none;align=left;verticalAlign=middle;spacingLeft=4;spacingRight=4;overflow=hidden;points=[[0,0.5],[1,0.5]];portConstraint=eastwest;rotatable=0;whiteSpace=wrap;html=1;" parent="oRBzTA_e3q8j1ZqxOKPN-17" vertex="1">
          <mxGeometry y="60" width="140" height="30" as="geometry" />
        </mxCell>
        <mxCell id="oRBzTA_e3q8j1ZqxOKPN-20" value="Region" style="text;strokeColor=none;fillColor=none;align=left;verticalAlign=middle;spacingLeft=4;spacingRight=4;overflow=hidden;points=[[0,0.5],[1,0.5]];portConstraint=eastwest;rotatable=0;whiteSpace=wrap;html=1;" parent="oRBzTA_e3q8j1ZqxOKPN-17" vertex="1">
          <mxGeometry y="90" width="140" height="30" as="geometry" />
        </mxCell>
        <mxCell id="oRBzTA_e3q8j1ZqxOKPN-21" value="&lt;div&gt;mmm_input&lt;/div&gt;&lt;div&gt;social_mmm_input&lt;/div&gt;" style="swimlane;fontStyle=0;childLayout=stackLayout;horizontal=1;startSize=30;horizontalStack=0;resizeParent=1;resizeParentMax=0;resizeLast=0;collapsible=1;marginBottom=0;whiteSpace=wrap;html=1;fillColor=#FFCC99;" parent="1" vertex="1">
          <mxGeometry x="1350" y="310" width="140" height="120" as="geometry" />
        </mxCell>
        <mxCell id="oRBzTA_e3q8j1ZqxOKPN-22" value="campaign" style="text;strokeColor=none;fillColor=none;align=left;verticalAlign=middle;spacingLeft=4;spacingRight=4;overflow=hidden;points=[[0,0.5],[1,0.5]];portConstraint=eastwest;rotatable=0;whiteSpace=wrap;html=1;" parent="oRBzTA_e3q8j1ZqxOKPN-21" vertex="1">
          <mxGeometry y="30" width="140" height="30" as="geometry" />
        </mxCell>
        <mxCell id="oRBzTA_e3q8j1ZqxOKPN-23" value="Device" style="text;strokeColor=none;fillColor=none;align=left;verticalAlign=middle;spacingLeft=4;spacingRight=4;overflow=hidden;points=[[0,0.5],[1,0.5]];portConstraint=eastwest;rotatable=0;whiteSpace=wrap;html=1;" parent="oRBzTA_e3q8j1ZqxOKPN-21" vertex="1">
          <mxGeometry y="60" width="140" height="30" as="geometry" />
        </mxCell>
        <mxCell id="oRBzTA_e3q8j1ZqxOKPN-24" value="Region" style="text;strokeColor=none;fillColor=none;align=left;verticalAlign=middle;spacingLeft=4;spacingRight=4;overflow=hidden;points=[[0,0.5],[1,0.5]];portConstraint=eastwest;rotatable=0;whiteSpace=wrap;html=1;" parent="oRBzTA_e3q8j1ZqxOKPN-21" vertex="1">
          <mxGeometry y="90" width="140" height="30" as="geometry" />
        </mxCell>
        <mxCell id="oRBzTA_e3q8j1ZqxOKPN-25" style="edgeStyle=orthogonalEdgeStyle;rounded=0;orthogonalLoop=1;jettySize=auto;html=1;exitX=0.5;exitY=0;exitDx=0;exitDy=0;entryX=0.706;entryY=-0.029;entryDx=0;entryDy=0;entryPerimeter=0;" parent="1" source="oRBzTA_e3q8j1ZqxOKPN-21" target="oRBzTA_e3q8j1ZqxOKPN-2" edge="1">
          <mxGeometry relative="1" as="geometry" />
        </mxCell>
        <mxCell id="oRBzTA_e3q8j1ZqxOKPN-26" style="edgeStyle=orthogonalEdgeStyle;rounded=0;orthogonalLoop=1;jettySize=auto;html=1;entryX=0.5;entryY=1;entryDx=0;entryDy=0;" parent="1" source="oRBzTA_e3q8j1ZqxOKPN-27" target="oRBzTA_e3q8j1ZqxOKPN-11" edge="1">
          <mxGeometry relative="1" as="geometry" />
        </mxCell>
        <mxCell id="oRBzTA_e3q8j1ZqxOKPN-27" value="&lt;div&gt;marketing_mix_model&lt;/div&gt;&lt;div&gt;regional_marketing_mix-model_data&lt;/div&gt;" style="swimlane;fontStyle=0;childLayout=stackLayout;horizontal=1;startSize=30;horizontalStack=0;resizeParent=1;resizeParentMax=0;resizeLast=0;collapsible=1;marginBottom=0;whiteSpace=wrap;html=1;fillColor=#FFCC99;" parent="1" vertex="1">
          <mxGeometry x="1190" y="740" width="200" height="120" as="geometry" />
        </mxCell>
        <mxCell id="oRBzTA_e3q8j1ZqxOKPN-28" value="campaign" style="text;strokeColor=none;fillColor=none;align=left;verticalAlign=middle;spacingLeft=4;spacingRight=4;overflow=hidden;points=[[0,0.5],[1,0.5]];portConstraint=eastwest;rotatable=0;whiteSpace=wrap;html=1;" parent="oRBzTA_e3q8j1ZqxOKPN-27" vertex="1">
          <mxGeometry y="30" width="200" height="30" as="geometry" />
        </mxCell>
        <mxCell id="oRBzTA_e3q8j1ZqxOKPN-29" value="Device" style="text;strokeColor=none;fillColor=none;align=left;verticalAlign=middle;spacingLeft=4;spacingRight=4;overflow=hidden;points=[[0,0.5],[1,0.5]];portConstraint=eastwest;rotatable=0;whiteSpace=wrap;html=1;" parent="oRBzTA_e3q8j1ZqxOKPN-27" vertex="1">
          <mxGeometry y="60" width="200" height="30" as="geometry" />
        </mxCell>
        <mxCell id="oRBzTA_e3q8j1ZqxOKPN-30" value="Region" style="text;strokeColor=none;fillColor=none;align=left;verticalAlign=middle;spacingLeft=4;spacingRight=4;overflow=hidden;points=[[0,0.5],[1,0.5]];portConstraint=eastwest;rotatable=0;whiteSpace=wrap;html=1;" parent="oRBzTA_e3q8j1ZqxOKPN-27" vertex="1">
          <mxGeometry y="90" width="200" height="30" as="geometry" />
        </mxCell>
        <mxCell id="oRBzTA_e3q8j1ZqxOKPN-31" style="edgeStyle=orthogonalEdgeStyle;rounded=0;orthogonalLoop=1;jettySize=auto;html=1;entryX=0;entryY=0.5;entryDx=0;entryDy=0;" parent="1" source="oRBzTA_e3q8j1ZqxOKPN-32" target="oRBzTA_e3q8j1ZqxOKPN-15" edge="1">
          <mxGeometry relative="1" as="geometry" />
        </mxCell>
        <mxCell id="oRBzTA_e3q8j1ZqxOKPN-32" value="" style="editableCssRules=.*;html=1;shape=image;verticalLabelPosition=bottom;labelBackgroundColor=#ffffff;verticalAlign=top;aspect=fixed;imageAspect=0;image=data:image/svg+xml,PHN2ZyB4bWxucz0iaHR0cDovL3d3dy53My5vcmcvMjAwMC9zdmciIHhtbG5zOnY9Imh0dHBzOi8vdmVjdGEuaW8vbmFubyIgd2lkdGg9IjMyOS45MjU5OTcyMzE3OTM4IiBoZWlnaHQ9IjM3OC4yODQ5OTAzMTEyNzg4IiB2aWV3Qm94PSIwIDAgODcuMjkyOTk5MjY3NTc4MTIgMTAwLjA4Nzk5NzQzNjUyMzQ0Ij4mI3hhOzxzdHlsZSB0eXBlPSJ0ZXh0L2NzcyI+JiN4YTsJLnN0MHtmaWxsOiNhZWNiZmE7fSYjeGE7CS5zdDF7ZmlsbDojNjY5ZGY2O30mI3hhOwkuc3Qye2ZpbGw6IzQyODVmNDt9JiN4YTs8L3N0eWxlPiYjeGE7CTxwYXRoIGNsYXNzPSJzdDAiIGQ9Ik00My43NTEgMEwwIDI1LjQ2NXYyLjU4OCA0Ni45Mmw0My43NTIgMjUuMTE1IDQzLjU0MS0yNS4xMjFWMjUuNDczem0yLjQzOCAxMS44NTNsMzIuMTAzIDE4Ljc4MlY2OS43N0w0My43MzkgODkuNzA1IDkgNjkuNzYyVjMwLjY0MWwzMi4xOS0xOC43MzZ2MTQuMTU0TDI0LjUwMyAzNi4xNTNsMTkuMTcyIDExLjUwMiAxOC44ODYtMTEuNTU0LTE2LjM3Mi0xMC4wMjR6Ii8+JiN4YTsJPHBhdGggY2xhc3M9InN0MSIgZD0iTTIyLjAyNSA0MC40OTZsLjE2NiAxOS4xNDMtMTMuMjQ3IDcuMzN2Mi43NDJsMi42MzcgMS41MTQgMTIuNjQ4LTYuOTk5TDQxLjE5IDc0LjgyOFY1MS45OTN6Ii8+JiN4YTsJPHBhdGggY2xhc3M9InN0MiIgZD0iTTY1LjM0NCA0MC4yNkw0Ni4xODkgNTEuOTc5djIyLjg0N0w2My4wODggNjQuMjVsMTIuNTM5IDYuOTc0IDIuNjA5LTEuNTA1di0yLjc2NWwtMTIuNzg0LTcuMTEyeiIvPiYjeGE7PC9zdmc+;" parent="1" vertex="1">
          <mxGeometry x="850" y="552.5" width="58.5" height="65" as="geometry" />
        </mxCell>
        <mxCell id="oRBzTA_e3q8j1ZqxOKPN-34" style="edgeStyle=orthogonalEdgeStyle;rounded=0;orthogonalLoop=1;jettySize=auto;html=1;entryX=-0.004;entryY=0.547;entryDx=0;entryDy=0;entryPerimeter=0;" parent="1" source="YG2VLh0t06Ziu8axefHs-1" target="oRBzTA_e3q8j1ZqxOKPN-33" edge="1">
          <mxGeometry relative="1" as="geometry" />
        </mxCell>
        <mxCell id="jkMDx486q1_QgmlIeQHr-1" value="&lt;span style=&quot;font-size: 36px;&quot;&gt;MMM Data Input DAG&lt;/span&gt;" style="text;html=1;align=center;verticalAlign=middle;whiteSpace=wrap;rounded=0;" parent="1" vertex="1">
          <mxGeometry x="310" y="280" width="330" height="90" as="geometry" />
        </mxCell>
        <mxCell id="jkMDx486q1_QgmlIeQHr-2" value="&lt;span style=&quot;font-size: 36px;&quot;&gt;DSCI Attribution&lt;/span&gt;&lt;div&gt;&lt;span style=&quot;font-size: 36px;&quot;&gt;Orders Dag&lt;/span&gt;&lt;/div&gt;" style="text;html=1;align=center;verticalAlign=middle;whiteSpace=wrap;rounded=0;" parent="1" vertex="1">
          <mxGeometry x="1070" y="130" width="330" height="90" as="geometry" />
        </mxCell>
        <mxCell id="jkMDx486q1_QgmlIeQHr-3" value="&lt;span style=&quot;font-size: 36px;&quot;&gt;Attribution MMM&lt;/span&gt;&lt;div&gt;&lt;span style=&quot;font-size: 36px;&quot;&gt;DAG&lt;/span&gt;&lt;/div&gt;" style="text;html=1;align=center;verticalAlign=middle;whiteSpace=wrap;rounded=0;" parent="1" vertex="1">
          <mxGeometry x="2020" y="90" width="330" height="90" as="geometry" />
        </mxCell>
        <mxCell id="cNa2H3Xzf1N3XqfMzTeV-1" value="trigger_dag" style="text;html=1;align=center;verticalAlign=middle;whiteSpace=wrap;rounded=0;fontStyle=1" parent="1" vertex="1">
          <mxGeometry x="750" y="535" width="60" height="30" as="geometry" />
        </mxCell>
        <mxCell id="cNa2H3Xzf1N3XqfMzTeV-2" value="&lt;b&gt;trigger_dag&lt;/b&gt;" style="text;html=1;align=center;verticalAlign=middle;whiteSpace=wrap;rounded=0;" parent="1" vertex="1">
          <mxGeometry x="1620" y="530" width="30" height="5" as="geometry" />
        </mxCell>
        <mxCell id="HsIotJ8SGrUEWq9u03t1-1" style="edgeStyle=orthogonalEdgeStyle;rounded=0;orthogonalLoop=1;jettySize=auto;html=1;exitX=1;exitY=0.5;exitDx=0;exitDy=0;entryX=1;entryY=0.5;entryDx=0;entryDy=0;" edge="1" parent="1" source="w4CLHaQYjBZ19ITWc5R1-42" target="w4CLHaQYjBZ19ITWc5R1-27">
          <mxGeometry relative="1" as="geometry" />
        </mxCell>
      </root>
    </mxGraphModel>
  </diagram>
  <diagram id="YhpdXN-QvugbaFxkFq7I" name="Attribution DAG">
    <mxGraphModel dx="3290" dy="2528" grid="1" gridSize="10" guides="1" tooltips="1" connect="1" arrows="1" fold="1" page="1" pageScale="1" pageWidth="850" pageHeight="1100" math="0" shadow="0">
      <root>
        <mxCell id="0" />
        <mxCell id="1" parent="0" />
        <mxCell id="zd0zzYGOSGs3TznHO6---11" value="" style="rounded=0;whiteSpace=wrap;html=1;fillColor=#FFE6CC;" vertex="1" parent="1">
          <mxGeometry x="250" y="-40" width="240" height="410" as="geometry" />
        </mxCell>
        <mxCell id="E7jkrrYS0x6I2YV5gn_r-9" style="edgeStyle=orthogonalEdgeStyle;rounded=0;orthogonalLoop=1;jettySize=auto;html=1;exitX=1;exitY=0.5;exitDx=0;exitDy=0;entryX=0;entryY=0.5;entryDx=0;entryDy=0;" parent="1" source="wKBWaSexZYmqnP-gfvRQ-1" target="E7jkrrYS0x6I2YV5gn_r-4" edge="1">
          <mxGeometry relative="1" as="geometry" />
        </mxCell>
        <mxCell id="zd0zzYGOSGs3TznHO6---6" style="edgeStyle=orthogonalEdgeStyle;rounded=0;orthogonalLoop=1;jettySize=auto;html=1;exitX=1;exitY=0.5;exitDx=0;exitDy=0;entryX=0;entryY=0.5;entryDx=0;entryDy=0;" edge="1" parent="1" source="wKBWaSexZYmqnP-gfvRQ-1" target="zd0zzYGOSGs3TznHO6---1">
          <mxGeometry relative="1" as="geometry" />
        </mxCell>
        <mxCell id="wKBWaSexZYmqnP-gfvRQ-1" value="Social" style="rounded=1;whiteSpace=wrap;html=1;" parent="1" vertex="1">
          <mxGeometry x="330" y="40" width="100" height="40" as="geometry" />
        </mxCell>
        <mxCell id="E7jkrrYS0x6I2YV5gn_r-10" style="edgeStyle=orthogonalEdgeStyle;rounded=0;orthogonalLoop=1;jettySize=auto;html=1;exitX=1;exitY=0.5;exitDx=0;exitDy=0;entryX=0;entryY=0.5;entryDx=0;entryDy=0;" parent="1" source="U8dZPEK6RxQva4s8U-zz-3" target="E7jkrrYS0x6I2YV5gn_r-5" edge="1">
          <mxGeometry relative="1" as="geometry" />
        </mxCell>
        <mxCell id="zd0zzYGOSGs3TznHO6---7" style="edgeStyle=orthogonalEdgeStyle;rounded=0;orthogonalLoop=1;jettySize=auto;html=1;exitX=1;exitY=0.5;exitDx=0;exitDy=0;" edge="1" parent="1" source="U8dZPEK6RxQva4s8U-zz-3">
          <mxGeometry relative="1" as="geometry">
            <mxPoint x="510" y="130" as="targetPoint" />
          </mxGeometry>
        </mxCell>
        <mxCell id="U8dZPEK6RxQva4s8U-zz-3" value="Offline" style="rounded=1;whiteSpace=wrap;html=1;" parent="1" vertex="1">
          <mxGeometry x="330" y="110" width="100" height="40" as="geometry" />
        </mxCell>
        <mxCell id="E7jkrrYS0x6I2YV5gn_r-11" style="edgeStyle=orthogonalEdgeStyle;rounded=0;orthogonalLoop=1;jettySize=auto;html=1;exitX=1;exitY=0.5;exitDx=0;exitDy=0;entryX=0;entryY=0.5;entryDx=0;entryDy=0;" parent="1" source="U8dZPEK6RxQva4s8U-zz-6" target="E7jkrrYS0x6I2YV5gn_r-6" edge="1">
          <mxGeometry relative="1" as="geometry" />
        </mxCell>
        <mxCell id="zd0zzYGOSGs3TznHO6---8" style="edgeStyle=orthogonalEdgeStyle;rounded=0;orthogonalLoop=1;jettySize=auto;html=1;exitX=1;exitY=0.5;exitDx=0;exitDy=0;entryX=0;entryY=0.5;entryDx=0;entryDy=0;" edge="1" parent="1" source="U8dZPEK6RxQva4s8U-zz-6" target="zd0zzYGOSGs3TznHO6---3">
          <mxGeometry relative="1" as="geometry" />
        </mxCell>
        <mxCell id="U8dZPEK6RxQva4s8U-zz-6" value="Display" style="rounded=1;whiteSpace=wrap;html=1;" parent="1" vertex="1">
          <mxGeometry x="330" y="170" width="100" height="40" as="geometry" />
        </mxCell>
        <mxCell id="E7jkrrYS0x6I2YV5gn_r-12" style="edgeStyle=orthogonalEdgeStyle;rounded=0;orthogonalLoop=1;jettySize=auto;html=1;exitX=1;exitY=0.5;exitDx=0;exitDy=0;entryX=0;entryY=0.5;entryDx=0;entryDy=0;" parent="1" source="U8dZPEK6RxQva4s8U-zz-9" target="E7jkrrYS0x6I2YV5gn_r-7" edge="1">
          <mxGeometry relative="1" as="geometry" />
        </mxCell>
        <mxCell id="zd0zzYGOSGs3TznHO6---9" style="edgeStyle=orthogonalEdgeStyle;rounded=0;orthogonalLoop=1;jettySize=auto;html=1;exitX=1;exitY=0.5;exitDx=0;exitDy=0;entryX=0;entryY=0.5;entryDx=0;entryDy=0;" edge="1" parent="1" source="U8dZPEK6RxQva4s8U-zz-9" target="zd0zzYGOSGs3TznHO6---4">
          <mxGeometry relative="1" as="geometry" />
        </mxCell>
        <mxCell id="U8dZPEK6RxQva4s8U-zz-9" value="Google Ads" style="rounded=1;whiteSpace=wrap;html=1;" parent="1" vertex="1">
          <mxGeometry x="330" y="240" width="100" height="40" as="geometry" />
        </mxCell>
        <mxCell id="E7jkrrYS0x6I2YV5gn_r-13" style="edgeStyle=orthogonalEdgeStyle;rounded=0;orthogonalLoop=1;jettySize=auto;html=1;entryX=0;entryY=0.5;entryDx=0;entryDy=0;" parent="1" source="E7jkrrYS0x6I2YV5gn_r-1" target="E7jkrrYS0x6I2YV5gn_r-8" edge="1">
          <mxGeometry relative="1" as="geometry" />
        </mxCell>
        <mxCell id="zd0zzYGOSGs3TznHO6---10" style="edgeStyle=orthogonalEdgeStyle;rounded=0;orthogonalLoop=1;jettySize=auto;html=1;exitX=1;exitY=0.5;exitDx=0;exitDy=0;" edge="1" parent="1" source="E7jkrrYS0x6I2YV5gn_r-1" target="zd0zzYGOSGs3TznHO6---5">
          <mxGeometry relative="1" as="geometry" />
        </mxCell>
        <mxCell id="E7jkrrYS0x6I2YV5gn_r-1" value="Video" style="rounded=1;whiteSpace=wrap;html=1;" parent="1" vertex="1">
          <mxGeometry x="330" y="310" width="100" height="40" as="geometry" />
        </mxCell>
        <mxCell id="E7jkrrYS0x6I2YV5gn_r-16" style="edgeStyle=orthogonalEdgeStyle;rounded=0;orthogonalLoop=1;jettySize=auto;html=1;entryX=0;entryY=0.5;entryDx=0;entryDy=0;" parent="1" source="E7jkrrYS0x6I2YV5gn_r-4" target="E7jkrrYS0x6I2YV5gn_r-14" edge="1">
          <mxGeometry relative="1" as="geometry" />
        </mxCell>
        <mxCell id="E7jkrrYS0x6I2YV5gn_r-4" value="&lt;font style=&quot;font-size: 10px;&quot;&gt;Check Social outputs&lt;/font&gt;&lt;div&gt;&lt;font style=&quot;font-size: 10px;&quot;&gt;Non-critical&lt;/font&gt;&lt;/div&gt;" style="rounded=1;whiteSpace=wrap;html=1;" parent="1" vertex="1">
          <mxGeometry x="700" y="40" width="100" height="40" as="geometry" />
        </mxCell>
        <mxCell id="E7jkrrYS0x6I2YV5gn_r-17" style="edgeStyle=orthogonalEdgeStyle;rounded=0;orthogonalLoop=1;jettySize=auto;html=1;exitX=1;exitY=0.5;exitDx=0;exitDy=0;entryX=0;entryY=0.5;entryDx=0;entryDy=0;" parent="1" source="E7jkrrYS0x6I2YV5gn_r-5" target="E7jkrrYS0x6I2YV5gn_r-14" edge="1">
          <mxGeometry relative="1" as="geometry" />
        </mxCell>
        <mxCell id="E7jkrrYS0x6I2YV5gn_r-5" value="&lt;font style=&quot;font-size: 10px;&quot;&gt;Check Offline outputs&lt;/font&gt;&lt;div&gt;&lt;font style=&quot;font-size: 10px;&quot;&gt;Non-critical&lt;/font&gt;&lt;/div&gt;" style="rounded=1;whiteSpace=wrap;html=1;" parent="1" vertex="1">
          <mxGeometry x="700" y="110" width="100" height="40" as="geometry" />
        </mxCell>
        <mxCell id="E7jkrrYS0x6I2YV5gn_r-6" value="&lt;font style=&quot;font-size: 10px;&quot;&gt;Check Display Outputs&lt;/font&gt;&lt;div&gt;&lt;font style=&quot;font-size: 10px;&quot;&gt;Non-critical&lt;/font&gt;&lt;/div&gt;" style="rounded=1;whiteSpace=wrap;html=1;" parent="1" vertex="1">
          <mxGeometry x="700" y="170" width="100" height="40" as="geometry" />
        </mxCell>
        <mxCell id="E7jkrrYS0x6I2YV5gn_r-19" style="edgeStyle=orthogonalEdgeStyle;rounded=0;orthogonalLoop=1;jettySize=auto;html=1;exitX=1;exitY=0.5;exitDx=0;exitDy=0;entryX=0;entryY=0.5;entryDx=0;entryDy=0;" parent="1" source="E7jkrrYS0x6I2YV5gn_r-7" target="E7jkrrYS0x6I2YV5gn_r-14" edge="1">
          <mxGeometry relative="1" as="geometry" />
        </mxCell>
        <mxCell id="E7jkrrYS0x6I2YV5gn_r-7" value="&lt;font style=&quot;font-size: 10px;&quot;&gt;Check Google-Ads Outputs&lt;/font&gt;&lt;div&gt;&lt;font style=&quot;font-size: 10px;&quot;&gt;Non-critical&lt;/font&gt;&lt;/div&gt;" style="rounded=1;whiteSpace=wrap;html=1;" parent="1" vertex="1">
          <mxGeometry x="700" y="240" width="100" height="40" as="geometry" />
        </mxCell>
        <mxCell id="E7jkrrYS0x6I2YV5gn_r-20" style="edgeStyle=orthogonalEdgeStyle;rounded=0;orthogonalLoop=1;jettySize=auto;html=1;entryX=0;entryY=0.5;entryDx=0;entryDy=0;" parent="1" source="E7jkrrYS0x6I2YV5gn_r-8" target="E7jkrrYS0x6I2YV5gn_r-14" edge="1">
          <mxGeometry relative="1" as="geometry" />
        </mxCell>
        <mxCell id="E7jkrrYS0x6I2YV5gn_r-8" value="&lt;font style=&quot;font-size: 10px;&quot;&gt;Check Video Outputs&lt;/font&gt;&lt;div&gt;&lt;font style=&quot;font-size: 10px;&quot;&gt;Non-critical&lt;/font&gt;&lt;/div&gt;" style="rounded=1;whiteSpace=wrap;html=1;" parent="1" vertex="1">
          <mxGeometry x="700" y="310" width="100" height="40" as="geometry" />
        </mxCell>
        <mxCell id="CfuEprTmaxBf2OnXzes5-27" style="edgeStyle=orthogonalEdgeStyle;rounded=0;orthogonalLoop=1;jettySize=auto;html=1;exitX=1;exitY=0.5;exitDx=0;exitDy=0;entryX=0;entryY=0.75;entryDx=0;entryDy=0;" edge="1" parent="1" source="E7jkrrYS0x6I2YV5gn_r-14" target="6OV68PeqoUN1MhRXPWfW-5">
          <mxGeometry relative="1" as="geometry" />
        </mxCell>
        <mxCell id="E7jkrrYS0x6I2YV5gn_r-14" value="mmm_daily_feed" style="rounded=1;whiteSpace=wrap;html=1;" parent="1" vertex="1">
          <mxGeometry x="950" y="175" width="100" height="50" as="geometry" />
        </mxCell>
        <mxCell id="CfuEprTmaxBf2OnXzes5-16" style="edgeStyle=orthogonalEdgeStyle;rounded=0;orthogonalLoop=1;jettySize=auto;html=1;entryX=0;entryY=0.5;entryDx=0;entryDy=0;" edge="1" parent="1" source="E7jkrrYS0x6I2YV5gn_r-22" target="CfuEprTmaxBf2OnXzes5-4">
          <mxGeometry relative="1" as="geometry" />
        </mxCell>
        <mxCell id="E7jkrrYS0x6I2YV5gn_r-22" value="MA_ATT_mmm_input_data&lt;div&gt;&lt;br&gt;&lt;/div&gt;" style="rounded=0;whiteSpace=wrap;html=1;" parent="1" vertex="1">
          <mxGeometry x="-200" y="160" width="160" height="60" as="geometry" />
        </mxCell>
        <mxCell id="6OV68PeqoUN1MhRXPWfW-1" value="marketing_mix_modeling&lt;div&gt;daily_feed&lt;/div&gt;" style="swimlane;fontStyle=0;childLayout=stackLayout;horizontal=1;startSize=30;horizontalStack=0;resizeParent=1;resizeParentMax=0;resizeLast=0;collapsible=1;marginBottom=0;whiteSpace=wrap;html=1;" parent="1" vertex="1">
          <mxGeometry x="1100" y="50" width="140" height="300" as="geometry" />
        </mxCell>
        <mxCell id="6OV68PeqoUN1MhRXPWfW-2" value="impression_date" style="text;strokeColor=#666666;fillColor=#f5f5f5;align=left;verticalAlign=middle;spacingLeft=4;spacingRight=4;overflow=hidden;points=[[0,0.5],[1,0.5]];portConstraint=eastwest;rotatable=0;whiteSpace=wrap;html=1;fontStyle=1;fontColor=#333333;" parent="6OV68PeqoUN1MhRXPWfW-1" vertex="1">
          <mxGeometry y="30" width="140" height="30" as="geometry" />
        </mxCell>
        <mxCell id="6OV68PeqoUN1MhRXPWfW-3" value="order_date" style="text;strokeColor=#666666;fillColor=#f5f5f5;align=left;verticalAlign=middle;spacingLeft=4;spacingRight=4;overflow=hidden;points=[[0,0.5],[1,0.5]];portConstraint=eastwest;rotatable=0;whiteSpace=wrap;html=1;fontStyle=1;fontColor=#333333;" parent="6OV68PeqoUN1MhRXPWfW-1" vertex="1">
          <mxGeometry y="60" width="140" height="30" as="geometry" />
        </mxCell>
        <mxCell id="6OV68PeqoUN1MhRXPWfW-9" value="region_id" style="text;html=1;align=left;verticalAlign=middle;whiteSpace=wrap;rounded=0;fillColor=#f5f5f5;strokeColor=#666666;fontStyle=1;fontColor=#333333;" parent="6OV68PeqoUN1MhRXPWfW-1" vertex="1">
          <mxGeometry y="90" width="140" height="30" as="geometry" />
        </mxCell>
        <mxCell id="6OV68PeqoUN1MhRXPWfW-5" value="channel" style="text;html=1;align=left;verticalAlign=middle;whiteSpace=wrap;rounded=0;fillColor=#f5f5f5;strokeColor=#666666;fontStyle=1;fontColor=#333333;" parent="6OV68PeqoUN1MhRXPWfW-1" vertex="1">
          <mxGeometry y="120" width="140" height="30" as="geometry" />
        </mxCell>
        <mxCell id="6OV68PeqoUN1MhRXPWfW-7" value="sub_channel" style="text;html=1;align=left;verticalAlign=middle;whiteSpace=wrap;rounded=0;fillColor=#f5f5f5;strokeColor=#666666;fontStyle=1;fontColor=#333333;" parent="6OV68PeqoUN1MhRXPWfW-1" vertex="1">
          <mxGeometry y="150" width="140" height="30" as="geometry" />
        </mxCell>
        <mxCell id="6OV68PeqoUN1MhRXPWfW-6" value="goal" style="text;html=1;align=left;verticalAlign=middle;whiteSpace=wrap;rounded=0;fillColor=#f5f5f5;strokeColor=#666666;fontStyle=1;fontColor=#333333;" parent="6OV68PeqoUN1MhRXPWfW-1" vertex="1">
          <mxGeometry y="180" width="140" height="30" as="geometry" />
        </mxCell>
        <mxCell id="6OV68PeqoUN1MhRXPWfW-4" value="strategy" style="text;strokeColor=#666666;fillColor=#f5f5f5;align=left;verticalAlign=middle;spacingLeft=4;spacingRight=4;overflow=hidden;points=[[0,0.5],[1,0.5]];portConstraint=eastwest;rotatable=0;whiteSpace=wrap;html=1;fontStyle=1;fontColor=#333333;" parent="6OV68PeqoUN1MhRXPWfW-1" vertex="1">
          <mxGeometry y="210" width="140" height="30" as="geometry" />
        </mxCell>
        <mxCell id="6OV68PeqoUN1MhRXPWfW-11" value="impressions" style="text;html=1;align=left;verticalAlign=middle;whiteSpace=wrap;rounded=0;fontStyle=1" parent="6OV68PeqoUN1MhRXPWfW-1" vertex="1">
          <mxGeometry y="240" width="140" height="30" as="geometry" />
        </mxCell>
        <mxCell id="6OV68PeqoUN1MhRXPWfW-8" value="orders" style="text;html=1;align=left;verticalAlign=middle;whiteSpace=wrap;rounded=0;fontStyle=1" parent="6OV68PeqoUN1MhRXPWfW-1" vertex="1">
          <mxGeometry y="270" width="140" height="30" as="geometry" />
        </mxCell>
        <mxCell id="CfuEprTmaxBf2OnXzes5-18" style="edgeStyle=orthogonalEdgeStyle;rounded=0;orthogonalLoop=1;jettySize=auto;html=1;exitX=1;exitY=0.5;exitDx=0;exitDy=0;entryX=0;entryY=0.75;entryDx=0;entryDy=0;" edge="1" parent="1" source="CfuEprTmaxBf2OnXzes5-1" target="wKBWaSexZYmqnP-gfvRQ-1">
          <mxGeometry relative="1" as="geometry" />
        </mxCell>
        <mxCell id="CfuEprTmaxBf2OnXzes5-19" style="edgeStyle=orthogonalEdgeStyle;rounded=0;orthogonalLoop=1;jettySize=auto;html=1;exitX=1;exitY=0.5;exitDx=0;exitDy=0;" edge="1" parent="1" source="CfuEprTmaxBf2OnXzes5-1" target="U8dZPEK6RxQva4s8U-zz-3">
          <mxGeometry relative="1" as="geometry" />
        </mxCell>
        <mxCell id="CfuEprTmaxBf2OnXzes5-20" style="edgeStyle=orthogonalEdgeStyle;rounded=0;orthogonalLoop=1;jettySize=auto;html=1;exitX=1;exitY=0.5;exitDx=0;exitDy=0;" edge="1" parent="1" source="CfuEprTmaxBf2OnXzes5-1" target="U8dZPEK6RxQva4s8U-zz-6">
          <mxGeometry relative="1" as="geometry" />
        </mxCell>
        <mxCell id="CfuEprTmaxBf2OnXzes5-21" style="edgeStyle=orthogonalEdgeStyle;rounded=0;orthogonalLoop=1;jettySize=auto;html=1;exitX=1;exitY=0.5;exitDx=0;exitDy=0;entryX=0;entryY=0.5;entryDx=0;entryDy=0;" edge="1" parent="1" source="CfuEprTmaxBf2OnXzes5-1" target="U8dZPEK6RxQva4s8U-zz-9">
          <mxGeometry relative="1" as="geometry" />
        </mxCell>
        <mxCell id="CfuEprTmaxBf2OnXzes5-22" style="edgeStyle=orthogonalEdgeStyle;rounded=0;orthogonalLoop=1;jettySize=auto;html=1;exitX=1;exitY=0.5;exitDx=0;exitDy=0;entryX=0;entryY=0.5;entryDx=0;entryDy=0;" edge="1" parent="1" source="CfuEprTmaxBf2OnXzes5-1" target="E7jkrrYS0x6I2YV5gn_r-1">
          <mxGeometry relative="1" as="geometry" />
        </mxCell>
        <mxCell id="CfuEprTmaxBf2OnXzes5-1" value="marketing_mix_model&lt;div&gt;regional_marketing_mix_model_data&lt;/div&gt;" style="swimlane;fontStyle=0;childLayout=stackLayout;horizontal=1;startSize=30;horizontalStack=0;resizeParent=1;resizeParentMax=0;resizeLast=0;collapsible=1;marginBottom=0;whiteSpace=wrap;html=1;" vertex="1" parent="1">
          <mxGeometry x="10" y="85" width="210" height="210" as="geometry" />
        </mxCell>
        <mxCell id="CfuEprTmaxBf2OnXzes5-2" value="date" style="text;strokeColor=#d6b656;fillColor=#fff2cc;align=left;verticalAlign=middle;spacingLeft=4;spacingRight=4;overflow=hidden;points=[[0,0.5],[1,0.5]];portConstraint=eastwest;rotatable=0;whiteSpace=wrap;html=1;" vertex="1" parent="CfuEprTmaxBf2OnXzes5-1">
          <mxGeometry y="30" width="210" height="30" as="geometry" />
        </mxCell>
        <mxCell id="CfuEprTmaxBf2OnXzes5-3" value="subsidiary_id" style="text;strokeColor=#d6b656;fillColor=#fff2cc;align=left;verticalAlign=middle;spacingLeft=4;spacingRight=4;overflow=hidden;points=[[0,0.5],[1,0.5]];portConstraint=eastwest;rotatable=0;whiteSpace=wrap;html=1;" vertex="1" parent="CfuEprTmaxBf2OnXzes5-1">
          <mxGeometry y="60" width="210" height="30" as="geometry" />
        </mxCell>
        <mxCell id="CfuEprTmaxBf2OnXzes5-4" value="province" style="text;strokeColor=#d6b656;fillColor=#fff2cc;align=left;verticalAlign=middle;spacingLeft=4;spacingRight=4;overflow=hidden;points=[[0,0.5],[1,0.5]];portConstraint=eastwest;rotatable=0;whiteSpace=wrap;html=1;" vertex="1" parent="CfuEprTmaxBf2OnXzes5-1">
          <mxGeometry y="90" width="210" height="30" as="geometry" />
        </mxCell>
        <mxCell id="CfuEprTmaxBf2OnXzes5-6" value="label" style="text;html=1;align=left;verticalAlign=middle;whiteSpace=wrap;rounded=0;fillColor=#fff2cc;strokeColor=#d6b656;" vertex="1" parent="CfuEprTmaxBf2OnXzes5-1">
          <mxGeometry y="120" width="210" height="30" as="geometry" />
        </mxCell>
        <mxCell id="CfuEprTmaxBf2OnXzes5-5" value="inhabitants" style="text;html=1;align=left;verticalAlign=middle;whiteSpace=wrap;rounded=0;fillColor=#fff2cc;strokeColor=#d6b656;" vertex="1" parent="CfuEprTmaxBf2OnXzes5-1">
          <mxGeometry y="150" width="210" height="30" as="geometry" />
        </mxCell>
        <mxCell id="CfuEprTmaxBf2OnXzes5-7" value="...&lt;div&gt;&lt;br&gt;&lt;/div&gt;" style="text;html=1;align=left;verticalAlign=middle;whiteSpace=wrap;rounded=0;" vertex="1" parent="CfuEprTmaxBf2OnXzes5-1">
          <mxGeometry y="180" width="210" height="30" as="geometry" />
        </mxCell>
        <mxCell id="zd0zzYGOSGs3TznHO6---1" value="&lt;div&gt;Bayesian&lt;/div&gt;&lt;div&gt;Social&lt;/div&gt;" style="rounded=1;whiteSpace=wrap;html=1;" vertex="1" parent="1">
          <mxGeometry x="510" y="40" width="100" height="40" as="geometry" />
        </mxCell>
        <mxCell id="zd0zzYGOSGs3TznHO6---2" value="&lt;font style=&quot;font-size: 12px;&quot;&gt;Bayesian&lt;/font&gt;&lt;div&gt;&lt;font style=&quot;font-size: 12px;&quot;&gt;Offline&lt;/font&gt;&lt;/div&gt;" style="rounded=1;whiteSpace=wrap;html=1;" vertex="1" parent="1">
          <mxGeometry x="510" y="110" width="100" height="40" as="geometry" />
        </mxCell>
        <mxCell id="zd0zzYGOSGs3TznHO6---3" value="&lt;font style=&quot;font-size: 12px;&quot;&gt;Bayesian&lt;/font&gt;&lt;div&gt;&lt;font style=&quot;font-size: 12px;&quot;&gt;Display&lt;/font&gt;&lt;/div&gt;" style="rounded=1;whiteSpace=wrap;html=1;" vertex="1" parent="1">
          <mxGeometry x="510" y="170" width="100" height="40" as="geometry" />
        </mxCell>
        <mxCell id="zd0zzYGOSGs3TznHO6---4" value="&lt;font style=&quot;font-size: 12px;&quot;&gt;Bayesian&amp;nbsp;&lt;/font&gt;&lt;div&gt;&lt;font style=&quot;font-size: 12px;&quot;&gt;Google Ads&lt;/font&gt;&lt;/div&gt;" style="rounded=1;whiteSpace=wrap;html=1;" vertex="1" parent="1">
          <mxGeometry x="510" y="240" width="100" height="40" as="geometry" />
        </mxCell>
        <mxCell id="zd0zzYGOSGs3TznHO6---5" value="&lt;font style=&quot;font-size: 12px;&quot;&gt;Bayesian&lt;/font&gt;&lt;div&gt;&lt;font style=&quot;font-size: 12px;&quot;&gt;Video&lt;/font&gt;&lt;/div&gt;" style="rounded=1;whiteSpace=wrap;html=1;" vertex="1" parent="1">
          <mxGeometry x="510" y="310" width="100" height="40" as="geometry" />
        </mxCell>
        <mxCell id="zd0zzYGOSGs3TznHO6---12" value="&lt;b&gt;LEGACY&lt;/b&gt;" style="text;html=1;align=center;verticalAlign=middle;whiteSpace=wrap;rounded=0;" vertex="1" parent="1">
          <mxGeometry x="340" y="-20" width="60" height="30" as="geometry" />
        </mxCell>
        <mxCell id="zd0zzYGOSGs3TznHO6---35" style="edgeStyle=orthogonalEdgeStyle;rounded=0;orthogonalLoop=1;jettySize=auto;html=1;entryX=1;entryY=0.5;entryDx=0;entryDy=0;" edge="1" parent="1" source="zd0zzYGOSGs3TznHO6---14" target="6OV68PeqoUN1MhRXPWfW-1">
          <mxGeometry relative="1" as="geometry" />
        </mxCell>
        <mxCell id="zd0zzYGOSGs3TznHO6---14" value="" style="ellipse;whiteSpace=wrap;html=1;aspect=fixed;" vertex="1" parent="1">
          <mxGeometry x="1310" y="-35" width="100" height="100" as="geometry" />
        </mxCell>
        <mxCell id="zd0zzYGOSGs3TznHO6---15" value="Social&lt;div&gt;Data Model&lt;/div&gt;" style="text;html=1;align=center;verticalAlign=middle;whiteSpace=wrap;rounded=0;" vertex="1" parent="1">
          <mxGeometry x="1330" width="60" height="30" as="geometry" />
        </mxCell>
        <mxCell id="zd0zzYGOSGs3TznHO6---40" style="edgeStyle=orthogonalEdgeStyle;rounded=0;orthogonalLoop=1;jettySize=auto;html=1;entryX=1;entryY=0.5;entryDx=0;entryDy=0;" edge="1" parent="1" source="zd0zzYGOSGs3TznHO6---17" target="6OV68PeqoUN1MhRXPWfW-1">
          <mxGeometry relative="1" as="geometry" />
        </mxCell>
        <mxCell id="zd0zzYGOSGs3TznHO6---17" value="" style="ellipse;whiteSpace=wrap;html=1;aspect=fixed;" vertex="1" parent="1">
          <mxGeometry x="1310" y="335" width="100" height="100" as="geometry" />
        </mxCell>
        <mxCell id="zd0zzYGOSGs3TznHO6---18" value="Video&lt;div&gt;Data Model&lt;/div&gt;" style="text;html=1;align=center;verticalAlign=middle;whiteSpace=wrap;rounded=0;" vertex="1" parent="1">
          <mxGeometry x="1330" y="370" width="60" height="30" as="geometry" />
        </mxCell>
        <mxCell id="zd0zzYGOSGs3TznHO6---37" style="edgeStyle=orthogonalEdgeStyle;rounded=0;orthogonalLoop=1;jettySize=auto;html=1;entryX=1;entryY=0.5;entryDx=0;entryDy=0;" edge="1" parent="1" source="zd0zzYGOSGs3TznHO6---26" target="6OV68PeqoUN1MhRXPWfW-1">
          <mxGeometry relative="1" as="geometry" />
        </mxCell>
        <mxCell id="zd0zzYGOSGs3TznHO6---26" value="" style="ellipse;whiteSpace=wrap;html=1;aspect=fixed;" vertex="1" parent="1">
          <mxGeometry x="1310" y="205" width="100" height="100" as="geometry" />
        </mxCell>
        <mxCell id="zd0zzYGOSGs3TznHO6---27" value="&lt;div&gt;Offliine&lt;/div&gt;&lt;div&gt;Data Model&lt;/div&gt;" style="text;html=1;align=center;verticalAlign=middle;whiteSpace=wrap;rounded=0;" vertex="1" parent="1">
          <mxGeometry x="1330" y="240" width="60" height="30" as="geometry" />
        </mxCell>
        <mxCell id="zd0zzYGOSGs3TznHO6---36" style="edgeStyle=orthogonalEdgeStyle;rounded=0;orthogonalLoop=1;jettySize=auto;html=1;entryX=1;entryY=0.5;entryDx=0;entryDy=0;" edge="1" parent="1" source="zd0zzYGOSGs3TznHO6---31" target="6OV68PeqoUN1MhRXPWfW-1">
          <mxGeometry relative="1" as="geometry" />
        </mxCell>
        <mxCell id="zd0zzYGOSGs3TznHO6---31" value="" style="ellipse;whiteSpace=wrap;html=1;aspect=fixed;" vertex="1" parent="1">
          <mxGeometry x="1310" y="85" width="100" height="100" as="geometry" />
        </mxCell>
        <mxCell id="zd0zzYGOSGs3TznHO6---32" value="Display&lt;div&gt;Data Model&lt;/div&gt;" style="text;html=1;align=center;verticalAlign=middle;whiteSpace=wrap;rounded=0;" vertex="1" parent="1">
          <mxGeometry x="1330" y="120" width="60" height="30" as="geometry" />
        </mxCell>
      </root>
    </mxGraphModel>
  </diagram>
  <diagram id="adAErOa0mBaEVhLzT9dO" name="Social">
    <mxGraphModel dx="2074" dy="1214" grid="1" gridSize="10" guides="1" tooltips="1" connect="1" arrows="1" fold="1" page="1" pageScale="1" pageWidth="850" pageHeight="1100" math="0" shadow="0">
      <root>
        <mxCell id="0" />
        <mxCell id="1" parent="0" />
        <mxCell id="lvLLI_W0tJSgn29jQwp--6" value="marketing_mix_model&lt;div&gt;regional_marketing_mix_modeling_data&lt;/div&gt;" style="swimlane;fontStyle=0;childLayout=stackLayout;horizontal=1;startSize=30;horizontalStack=0;resizeParent=1;resizeParentMax=0;resizeLast=0;collapsible=1;marginBottom=0;whiteSpace=wrap;html=1;" parent="1" vertex="1">
          <mxGeometry x="440" y="285" width="310" height="190" as="geometry">
            <mxRectangle x="350" y="290" width="250" height="40" as="alternateBounds" />
          </mxGeometry>
        </mxCell>
        <mxCell id="lvLLI_W0tJSgn29jQwp--7" value="date" style="text;strokeColor=none;fillColor=#FFF2CC;align=left;verticalAlign=middle;spacingLeft=4;spacingRight=4;overflow=hidden;points=[[0,0.5],[1,0.5]];portConstraint=eastwest;rotatable=0;whiteSpace=wrap;html=1;" parent="lvLLI_W0tJSgn29jQwp--6" vertex="1">
          <mxGeometry y="30" width="310" height="30" as="geometry" />
        </mxCell>
        <mxCell id="lvLLI_W0tJSgn29jQwp--8" value="province" style="text;strokeColor=none;fillColor=#FFF2CC;align=left;verticalAlign=middle;spacingLeft=4;spacingRight=4;overflow=hidden;points=[[0,0.5],[1,0.5]];portConstraint=eastwest;rotatable=0;whiteSpace=wrap;html=1;" parent="lvLLI_W0tJSgn29jQwp--6" vertex="1">
          <mxGeometry y="60" width="310" height="30" as="geometry" />
        </mxCell>
        <mxCell id="0b5St3DUD4-I3IjODC29-8" value="region_id" style="text;html=1;align=left;verticalAlign=middle;whiteSpace=wrap;rounded=0;fillColor=#FFF2CC;" parent="lvLLI_W0tJSgn29jQwp--6" vertex="1">
          <mxGeometry y="90" width="310" height="30" as="geometry" />
        </mxCell>
        <mxCell id="lvLLI_W0tJSgn29jQwp--18" value="social_pm_impressions" style="text;html=1;align=left;verticalAlign=middle;whiteSpace=wrap;rounded=0;fillColor=none;" parent="lvLLI_W0tJSgn29jQwp--6" vertex="1">
          <mxGeometry y="120" width="310" height="30" as="geometry" />
        </mxCell>
        <mxCell id="lvLLI_W0tJSgn29jQwp--9" value="social_sales_impressions&lt;div&gt;&lt;br&gt;&lt;/div&gt;" style="text;strokeColor=none;fillColor=none;align=left;verticalAlign=middle;spacingLeft=4;spacingRight=4;overflow=hidden;points=[[0,0.5],[1,0.5]];portConstraint=eastwest;rotatable=0;whiteSpace=wrap;html=1;" parent="lvLLI_W0tJSgn29jQwp--6" vertex="1">
          <mxGeometry y="150" width="310" height="40" as="geometry" />
        </mxCell>
        <mxCell id="0b5St3DUD4-I3IjODC29-1" value="" style="edgeStyle=orthogonalEdgeStyle;rounded=0;orthogonalLoop=1;jettySize=auto;html=1;" parent="1" source="lvLLI_W0tJSgn29jQwp--10" target="lvLLI_W0tJSgn29jQwp--20" edge="1">
          <mxGeometry relative="1" as="geometry" />
        </mxCell>
        <mxCell id="lvLLI_W0tJSgn29jQwp--10" value="" style="shape=cylinder3;whiteSpace=wrap;html=1;boundedLbl=1;backgroundOutline=1;size=15;" parent="1" vertex="1">
          <mxGeometry x="90" y="320" width="70" height="100" as="geometry" />
        </mxCell>
        <mxCell id="lvLLI_W0tJSgn29jQwp--19" value="&lt;b&gt;mmm_social&lt;/b&gt;" style="text;html=1;align=center;verticalAlign=middle;whiteSpace=wrap;rounded=0;" parent="1" vertex="1">
          <mxGeometry x="90" y="440" width="60" height="30" as="geometry" />
        </mxCell>
        <mxCell id="lvLLI_W0tJSgn29jQwp--20" value="regional_data_social" style="rounded=1;whiteSpace=wrap;html=1;" parent="1" vertex="1">
          <mxGeometry x="230" y="340" width="120" height="60" as="geometry" />
        </mxCell>
        <mxCell id="lvLLI_W0tJSgn29jQwp--22" style="edgeStyle=orthogonalEdgeStyle;rounded=0;orthogonalLoop=1;jettySize=auto;html=1;entryX=0;entryY=0.833;entryDx=0;entryDy=0;entryPerimeter=0;" parent="1" source="lvLLI_W0tJSgn29jQwp--20" target="lvLLI_W0tJSgn29jQwp--8" edge="1">
          <mxGeometry relative="1" as="geometry" />
        </mxCell>
        <mxCell id="ZrEdLoHCo_wYvg3e7H5q-1" value="Smartly API" style="label;whiteSpace=wrap;html=1;image=img/clipart/Gear_128x128.png" parent="1" vertex="1">
          <mxGeometry x="55" y="190" width="140" height="70" as="geometry" />
        </mxCell>
        <mxCell id="ZrEdLoHCo_wYvg3e7H5q-3" style="edgeStyle=orthogonalEdgeStyle;rounded=0;orthogonalLoop=1;jettySize=auto;html=1;entryX=0.5;entryY=0;entryDx=0;entryDy=0;entryPerimeter=0;" parent="1" source="ZrEdLoHCo_wYvg3e7H5q-1" target="lvLLI_W0tJSgn29jQwp--10" edge="1">
          <mxGeometry relative="1" as="geometry" />
        </mxCell>
        <mxCell id="ZrEdLoHCo_wYvg3e7H5q-5" value="&lt;h3 style=&quot;box-sizing: border-box; font-family: &amp;quot;Helvetica Neue&amp;quot;, Helvetica, Arial, sans-serif; font-weight: 500; line-height: 1.1; color: rgb(81, 80, 79); margin-top: 20px; margin-bottom: 10px; font-size: 24px; text-align: start; background-color: rgb(255, 255, 255);&quot; class=&quot;pull-left&quot;&gt;DS_SM_marketing_mix_model&lt;/h3&gt;" style="rounded=0;whiteSpace=wrap;html=1;" parent="1" vertex="1">
          <mxGeometry x="440" y="540" width="340" height="60" as="geometry" />
        </mxCell>
        <mxCell id="bLovdLrPqOiku8LCbW90-1" value="marketing_mix_modeling&lt;div&gt;daily_feed&lt;/div&gt;" style="swimlane;fontStyle=0;childLayout=stackLayout;horizontal=1;startSize=30;horizontalStack=0;resizeParent=1;resizeParentMax=0;resizeLast=0;collapsible=1;marginBottom=0;whiteSpace=wrap;html=1;" parent="1" vertex="1">
          <mxGeometry x="950" y="1290" width="280" height="300" as="geometry" />
        </mxCell>
        <mxCell id="bLovdLrPqOiku8LCbW90-2" value="impression_date" style="text;strokeColor=none;fillColor=#FFF2CC;align=left;verticalAlign=middle;spacingLeft=4;spacingRight=4;overflow=hidden;points=[[0,0.5],[1,0.5]];portConstraint=eastwest;rotatable=0;whiteSpace=wrap;html=1;" parent="bLovdLrPqOiku8LCbW90-1" vertex="1">
          <mxGeometry y="30" width="280" height="30" as="geometry" />
        </mxCell>
        <mxCell id="bLovdLrPqOiku8LCbW90-3" value="order_date" style="text;strokeColor=none;fillColor=#FFF2CC;align=left;verticalAlign=middle;spacingLeft=4;spacingRight=4;overflow=hidden;points=[[0,0.5],[1,0.5]];portConstraint=eastwest;rotatable=0;whiteSpace=wrap;html=1;" parent="bLovdLrPqOiku8LCbW90-1" vertex="1">
          <mxGeometry y="60" width="280" height="30" as="geometry" />
        </mxCell>
        <mxCell id="bLovdLrPqOiku8LCbW90-4" value="region_id" style="text;html=1;align=left;verticalAlign=middle;whiteSpace=wrap;rounded=0;fillColor=#FFF2CC;" parent="bLovdLrPqOiku8LCbW90-1" vertex="1">
          <mxGeometry y="90" width="280" height="30" as="geometry" />
        </mxCell>
        <mxCell id="bLovdLrPqOiku8LCbW90-5" value="channel" style="text;html=1;align=left;verticalAlign=middle;whiteSpace=wrap;rounded=0;fillColor=#FFF2CC;" parent="bLovdLrPqOiku8LCbW90-1" vertex="1">
          <mxGeometry y="120" width="280" height="30" as="geometry" />
        </mxCell>
        <mxCell id="bLovdLrPqOiku8LCbW90-6" value="sub_channel" style="text;html=1;align=left;verticalAlign=middle;whiteSpace=wrap;rounded=0;fillColor=#FFF2CC;" parent="bLovdLrPqOiku8LCbW90-1" vertex="1">
          <mxGeometry y="150" width="280" height="30" as="geometry" />
        </mxCell>
        <mxCell id="bLovdLrPqOiku8LCbW90-7" value="goal" style="text;html=1;align=left;verticalAlign=middle;whiteSpace=wrap;rounded=0;fillColor=#FFF2CC;" parent="bLovdLrPqOiku8LCbW90-1" vertex="1">
          <mxGeometry y="180" width="280" height="30" as="geometry" />
        </mxCell>
        <mxCell id="bLovdLrPqOiku8LCbW90-8" value="strategy" style="text;strokeColor=none;fillColor=#FFF2CC;align=left;verticalAlign=middle;spacingLeft=4;spacingRight=4;overflow=hidden;points=[[0,0.5],[1,0.5]];portConstraint=eastwest;rotatable=0;whiteSpace=wrap;html=1;" parent="bLovdLrPqOiku8LCbW90-1" vertex="1">
          <mxGeometry y="210" width="280" height="30" as="geometry" />
        </mxCell>
        <mxCell id="bLovdLrPqOiku8LCbW90-9" value="impressions" style="text;html=1;align=left;verticalAlign=middle;whiteSpace=wrap;rounded=0;" parent="bLovdLrPqOiku8LCbW90-1" vertex="1">
          <mxGeometry y="240" width="280" height="30" as="geometry" />
        </mxCell>
        <mxCell id="bLovdLrPqOiku8LCbW90-10" value="orders" style="text;html=1;align=left;verticalAlign=middle;whiteSpace=wrap;rounded=0;" parent="bLovdLrPqOiku8LCbW90-1" vertex="1">
          <mxGeometry y="270" width="280" height="30" as="geometry" />
        </mxCell>
        <mxCell id="bLovdLrPqOiku8LCbW90-12" value="&lt;div&gt;marketing_mix_model&lt;/div&gt;output_bayesian_attribution" style="swimlane;fontStyle=0;childLayout=stackLayout;horizontal=1;startSize=30;horizontalStack=0;resizeParent=1;resizeParentMax=0;resizeLast=0;collapsible=1;marginBottom=0;whiteSpace=wrap;html=1;" parent="1" vertex="1">
          <mxGeometry x="460" y="660" width="270" height="420" as="geometry" />
        </mxCell>
        <mxCell id="bLovdLrPqOiku8LCbW90-13" value="impression_date" style="text;strokeColor=none;fillColor=#FFF2CC;align=left;verticalAlign=middle;spacingLeft=4;spacingRight=4;overflow=hidden;points=[[0,0.5],[1,0.5]];portConstraint=eastwest;rotatable=0;whiteSpace=wrap;html=1;" parent="bLovdLrPqOiku8LCbW90-12" vertex="1">
          <mxGeometry y="30" width="270" height="30" as="geometry" />
        </mxCell>
        <mxCell id="bLovdLrPqOiku8LCbW90-14" value="order_date" style="text;strokeColor=none;fillColor=#FFF2CC;align=left;verticalAlign=middle;spacingLeft=4;spacingRight=4;overflow=hidden;points=[[0,0.5],[1,0.5]];portConstraint=eastwest;rotatable=0;whiteSpace=wrap;html=1;" parent="bLovdLrPqOiku8LCbW90-12" vertex="1">
          <mxGeometry y="60" width="270" height="30" as="geometry" />
        </mxCell>
        <mxCell id="bLovdLrPqOiku8LCbW90-17" value="region_id" style="text;html=1;align=left;verticalAlign=middle;whiteSpace=wrap;rounded=0;fillColor=#FFF2CC;" parent="bLovdLrPqOiku8LCbW90-12" vertex="1">
          <mxGeometry y="90" width="270" height="30" as="geometry" />
        </mxCell>
        <mxCell id="bLovdLrPqOiku8LCbW90-58" value="label" style="text;html=1;align=left;verticalAlign=middle;whiteSpace=wrap;rounded=0;fillColor=#FFF2CC;" parent="bLovdLrPqOiku8LCbW90-12" vertex="1">
          <mxGeometry y="120" width="270" height="30" as="geometry" />
        </mxCell>
        <mxCell id="bLovdLrPqOiku8LCbW90-18" value="channel" style="text;html=1;align=left;verticalAlign=middle;whiteSpace=wrap;rounded=0;fillColor=#FFF2CC;" parent="bLovdLrPqOiku8LCbW90-12" vertex="1">
          <mxGeometry y="150" width="270" height="30" as="geometry" />
        </mxCell>
        <mxCell id="bLovdLrPqOiku8LCbW90-16" value="campaign_type" style="text;html=1;align=left;verticalAlign=middle;whiteSpace=wrap;rounded=0;fillColor=#FFF2CC;" parent="bLovdLrPqOiku8LCbW90-12" vertex="1">
          <mxGeometry y="180" width="270" height="30" as="geometry" />
        </mxCell>
        <mxCell id="bLovdLrPqOiku8LCbW90-15" value="strategy" style="text;strokeColor=none;fillColor=#FFF2CC;align=left;verticalAlign=middle;spacingLeft=4;spacingRight=4;overflow=hidden;points=[[0,0.5],[1,0.5]];portConstraint=eastwest;rotatable=0;whiteSpace=wrap;html=1;" parent="bLovdLrPqOiku8LCbW90-12" vertex="1">
          <mxGeometry y="210" width="270" height="30" as="geometry" />
        </mxCell>
        <mxCell id="bLovdLrPqOiku8LCbW90-20" value="device" style="text;html=1;align=left;verticalAlign=middle;whiteSpace=wrap;rounded=0;fillColor=#FFF2CC;" parent="bLovdLrPqOiku8LCbW90-12" vertex="1">
          <mxGeometry y="240" width="270" height="30" as="geometry" />
        </mxCell>
        <mxCell id="bLovdLrPqOiku8LCbW90-19" value="coefficient" style="text;html=1;align=left;verticalAlign=middle;whiteSpace=wrap;rounded=0;" parent="bLovdLrPqOiku8LCbW90-12" vertex="1">
          <mxGeometry y="270" width="270" height="30" as="geometry" />
        </mxCell>
        <mxCell id="bLovdLrPqOiku8LCbW90-22" value="impressions" style="text;html=1;align=left;verticalAlign=middle;whiteSpace=wrap;rounded=0;" parent="bLovdLrPqOiku8LCbW90-12" vertex="1">
          <mxGeometry y="300" width="270" height="30" as="geometry" />
        </mxCell>
        <mxCell id="bLovdLrPqOiku8LCbW90-21" value="orders" style="text;html=1;align=left;verticalAlign=middle;whiteSpace=wrap;rounded=0;" parent="bLovdLrPqOiku8LCbW90-12" vertex="1">
          <mxGeometry y="330" width="270" height="30" as="geometry" />
        </mxCell>
        <mxCell id="bLovdLrPqOiku8LCbW90-23" value="run_date" style="text;html=1;align=left;verticalAlign=middle;whiteSpace=wrap;rounded=0;fillColor=#CCFFCC;" parent="bLovdLrPqOiku8LCbW90-12" vertex="1">
          <mxGeometry y="360" width="270" height="30" as="geometry" />
        </mxCell>
        <mxCell id="bLovdLrPqOiku8LCbW90-24" value="execution_datetime" style="text;html=1;align=left;verticalAlign=middle;whiteSpace=wrap;rounded=0;fillColor=#CCFFCC;" parent="bLovdLrPqOiku8LCbW90-12" vertex="1">
          <mxGeometry y="390" width="270" height="30" as="geometry" />
        </mxCell>
        <mxCell id="bLovdLrPqOiku8LCbW90-26" style="edgeStyle=orthogonalEdgeStyle;rounded=0;orthogonalLoop=1;jettySize=auto;html=1;entryX=0.456;entryY=0;entryDx=0;entryDy=0;entryPerimeter=0;" parent="1" source="lvLLI_W0tJSgn29jQwp--6" target="ZrEdLoHCo_wYvg3e7H5q-5" edge="1">
          <mxGeometry relative="1" as="geometry" />
        </mxCell>
        <mxCell id="bLovdLrPqOiku8LCbW90-28" style="edgeStyle=orthogonalEdgeStyle;rounded=0;orthogonalLoop=1;jettySize=auto;html=1;entryX=0.556;entryY=0;entryDx=0;entryDy=0;entryPerimeter=0;" parent="1" source="ZrEdLoHCo_wYvg3e7H5q-5" target="bLovdLrPqOiku8LCbW90-12" edge="1">
          <mxGeometry relative="1" as="geometry" />
        </mxCell>
        <mxCell id="bLovdLrPqOiku8LCbW90-70" style="edgeStyle=orthogonalEdgeStyle;rounded=0;orthogonalLoop=1;jettySize=auto;html=1;exitX=1;exitY=0.5;exitDx=0;exitDy=0;entryX=0;entryY=0.5;entryDx=0;entryDy=0;" parent="1" source="bLovdLrPqOiku8LCbW90-30" target="bLovdLrPqOiku8LCbW90-64" edge="1">
          <mxGeometry relative="1" as="geometry" />
        </mxCell>
        <mxCell id="bLovdLrPqOiku8LCbW90-30" value="mmm_social_bayesian" style="rounded=1;whiteSpace=wrap;html=1;" parent="1" vertex="1">
          <mxGeometry x="790" y="780" width="160" height="80" as="geometry" />
        </mxCell>
        <mxCell id="bLovdLrPqOiku8LCbW90-32" style="edgeStyle=orthogonalEdgeStyle;rounded=0;orthogonalLoop=1;jettySize=auto;html=1;entryX=-0.018;entryY=0.588;entryDx=0;entryDy=0;entryPerimeter=0;" parent="1" source="bLovdLrPqOiku8LCbW90-16" target="bLovdLrPqOiku8LCbW90-30" edge="1">
          <mxGeometry relative="1" as="geometry" />
        </mxCell>
        <mxCell id="bLovdLrPqOiku8LCbW90-36" value="mmm_social (old results)" style="swimlane;fontStyle=0;childLayout=stackLayout;horizontal=1;startSize=30;horizontalStack=0;resizeParent=1;resizeParentMax=0;resizeLast=0;collapsible=1;marginBottom=0;whiteSpace=wrap;html=1;" parent="1" vertex="1">
          <mxGeometry x="990" y="390" width="200" height="340" as="geometry" />
        </mxCell>
        <mxCell id="bLovdLrPqOiku8LCbW90-37" value="impression_date" style="text;strokeColor=none;fillColor=#FFF2CC;align=left;verticalAlign=middle;spacingLeft=4;spacingRight=4;overflow=hidden;points=[[0,0.5],[1,0.5]];portConstraint=eastwest;rotatable=0;whiteSpace=wrap;html=1;" parent="bLovdLrPqOiku8LCbW90-36" vertex="1">
          <mxGeometry y="30" width="200" height="30" as="geometry" />
        </mxCell>
        <mxCell id="bLovdLrPqOiku8LCbW90-49" value="order_date" style="text;html=1;align=left;verticalAlign=middle;whiteSpace=wrap;rounded=0;fillColor=#FFF2CC;" parent="bLovdLrPqOiku8LCbW90-36" vertex="1">
          <mxGeometry y="60" width="200" height="30" as="geometry" />
        </mxCell>
        <mxCell id="bLovdLrPqOiku8LCbW90-50" value="channel" style="text;html=1;align=left;verticalAlign=middle;whiteSpace=wrap;rounded=0;fillColor=#FFF2CC;" parent="bLovdLrPqOiku8LCbW90-36" vertex="1">
          <mxGeometry y="90" width="200" height="30" as="geometry" />
        </mxCell>
        <mxCell id="bLovdLrPqOiku8LCbW90-38" value="region_id" style="text;strokeColor=none;fillColor=#FFF2CC;align=left;verticalAlign=middle;spacingLeft=4;spacingRight=4;overflow=hidden;points=[[0,0.5],[1,0.5]];portConstraint=eastwest;rotatable=0;whiteSpace=wrap;html=1;" parent="bLovdLrPqOiku8LCbW90-36" vertex="1">
          <mxGeometry y="120" width="200" height="30" as="geometry" />
        </mxCell>
        <mxCell id="bLovdLrPqOiku8LCbW90-39" value="campaign_type" style="text;strokeColor=none;fillColor=#FFF2CC;align=left;verticalAlign=middle;spacingLeft=4;spacingRight=4;overflow=hidden;points=[[0,0.5],[1,0.5]];portConstraint=eastwest;rotatable=0;whiteSpace=wrap;html=1;" parent="bLovdLrPqOiku8LCbW90-36" vertex="1">
          <mxGeometry y="150" width="200" height="40" as="geometry" />
        </mxCell>
        <mxCell id="bLovdLrPqOiku8LCbW90-54" value="device" style="text;html=1;align=left;verticalAlign=middle;whiteSpace=wrap;rounded=0;fillColor=#FFF2CC;" parent="bLovdLrPqOiku8LCbW90-36" vertex="1">
          <mxGeometry y="190" width="200" height="30" as="geometry" />
        </mxCell>
        <mxCell id="bLovdLrPqOiku8LCbW90-53" value="strategy" style="text;html=1;align=left;verticalAlign=middle;whiteSpace=wrap;rounded=0;fillColor=#FFF2CC;" parent="bLovdLrPqOiku8LCbW90-36" vertex="1">
          <mxGeometry y="220" width="200" height="30" as="geometry" />
        </mxCell>
        <mxCell id="bLovdLrPqOiku8LCbW90-55" value="coefficient" style="text;html=1;align=left;verticalAlign=middle;whiteSpace=wrap;rounded=0;" parent="bLovdLrPqOiku8LCbW90-36" vertex="1">
          <mxGeometry y="250" width="200" height="30" as="geometry" />
        </mxCell>
        <mxCell id="bLovdLrPqOiku8LCbW90-56" value="impressions" style="text;html=1;align=left;verticalAlign=middle;whiteSpace=wrap;rounded=0;" parent="bLovdLrPqOiku8LCbW90-36" vertex="1">
          <mxGeometry y="280" width="200" height="30" as="geometry" />
        </mxCell>
        <mxCell id="bLovdLrPqOiku8LCbW90-57" value="orders" style="text;html=1;align=left;verticalAlign=middle;whiteSpace=wrap;rounded=0;" parent="bLovdLrPqOiku8LCbW90-36" vertex="1">
          <mxGeometry y="310" width="200" height="30" as="geometry" />
        </mxCell>
        <mxCell id="bLovdLrPqOiku8LCbW90-51" style="edgeStyle=orthogonalEdgeStyle;rounded=0;orthogonalLoop=1;jettySize=auto;html=1;exitX=0;exitY=0.5;exitDx=0;exitDy=0;entryX=0.5;entryY=0;entryDx=0;entryDy=0;" parent="1" source="bLovdLrPqOiku8LCbW90-38" target="bLovdLrPqOiku8LCbW90-30" edge="1">
          <mxGeometry relative="1" as="geometry" />
        </mxCell>
        <mxCell id="bLovdLrPqOiku8LCbW90-59" value="mmm_social (updated results)" style="swimlane;fontStyle=0;childLayout=stackLayout;horizontal=1;startSize=30;horizontalStack=0;resizeParent=1;resizeParentMax=0;resizeLast=0;collapsible=1;marginBottom=0;whiteSpace=wrap;html=1;" parent="1" vertex="1">
          <mxGeometry x="990" y="770" width="200" height="340" as="geometry" />
        </mxCell>
        <mxCell id="bLovdLrPqOiku8LCbW90-60" value="impression_date" style="text;strokeColor=none;fillColor=#FFF2CC;align=left;verticalAlign=middle;spacingLeft=4;spacingRight=4;overflow=hidden;points=[[0,0.5],[1,0.5]];portConstraint=eastwest;rotatable=0;whiteSpace=wrap;html=1;" parent="bLovdLrPqOiku8LCbW90-59" vertex="1">
          <mxGeometry y="30" width="200" height="30" as="geometry" />
        </mxCell>
        <mxCell id="bLovdLrPqOiku8LCbW90-61" value="order_date" style="text;html=1;align=left;verticalAlign=middle;whiteSpace=wrap;rounded=0;fillColor=#FFF2CC;" parent="bLovdLrPqOiku8LCbW90-59" vertex="1">
          <mxGeometry y="60" width="200" height="30" as="geometry" />
        </mxCell>
        <mxCell id="bLovdLrPqOiku8LCbW90-62" value="channel" style="text;html=1;align=left;verticalAlign=middle;whiteSpace=wrap;rounded=0;fillColor=#FFF2CC;" parent="bLovdLrPqOiku8LCbW90-59" vertex="1">
          <mxGeometry y="90" width="200" height="30" as="geometry" />
        </mxCell>
        <mxCell id="bLovdLrPqOiku8LCbW90-63" value="region_id" style="text;strokeColor=none;fillColor=#FFF2CC;align=left;verticalAlign=middle;spacingLeft=4;spacingRight=4;overflow=hidden;points=[[0,0.5],[1,0.5]];portConstraint=eastwest;rotatable=0;whiteSpace=wrap;html=1;" parent="bLovdLrPqOiku8LCbW90-59" vertex="1">
          <mxGeometry y="120" width="200" height="30" as="geometry" />
        </mxCell>
        <mxCell id="bLovdLrPqOiku8LCbW90-64" value="campaign_type" style="text;strokeColor=none;fillColor=#FFF2CC;align=left;verticalAlign=middle;spacingLeft=4;spacingRight=4;overflow=hidden;points=[[0,0.5],[1,0.5]];portConstraint=eastwest;rotatable=0;whiteSpace=wrap;html=1;" parent="bLovdLrPqOiku8LCbW90-59" vertex="1">
          <mxGeometry y="150" width="200" height="40" as="geometry" />
        </mxCell>
        <mxCell id="bLovdLrPqOiku8LCbW90-65" value="device" style="text;html=1;align=left;verticalAlign=middle;whiteSpace=wrap;rounded=0;fillColor=#FFF2CC;" parent="bLovdLrPqOiku8LCbW90-59" vertex="1">
          <mxGeometry y="190" width="200" height="30" as="geometry" />
        </mxCell>
        <mxCell id="bLovdLrPqOiku8LCbW90-66" value="strategy" style="text;html=1;align=left;verticalAlign=middle;whiteSpace=wrap;rounded=0;fillColor=#FFF2CC;" parent="bLovdLrPqOiku8LCbW90-59" vertex="1">
          <mxGeometry y="220" width="200" height="30" as="geometry" />
        </mxCell>
        <mxCell id="bLovdLrPqOiku8LCbW90-67" value="coefficient" style="text;html=1;align=left;verticalAlign=middle;whiteSpace=wrap;rounded=0;" parent="bLovdLrPqOiku8LCbW90-59" vertex="1">
          <mxGeometry y="250" width="200" height="30" as="geometry" />
        </mxCell>
        <mxCell id="bLovdLrPqOiku8LCbW90-68" value="impressions" style="text;html=1;align=left;verticalAlign=middle;whiteSpace=wrap;rounded=0;" parent="bLovdLrPqOiku8LCbW90-59" vertex="1">
          <mxGeometry y="280" width="200" height="30" as="geometry" />
        </mxCell>
        <mxCell id="bLovdLrPqOiku8LCbW90-69" value="orders" style="text;html=1;align=left;verticalAlign=middle;whiteSpace=wrap;rounded=0;" parent="bLovdLrPqOiku8LCbW90-59" vertex="1">
          <mxGeometry y="310" width="200" height="30" as="geometry" />
        </mxCell>
        <mxCell id="bLovdLrPqOiku8LCbW90-75" style="edgeStyle=orthogonalEdgeStyle;rounded=0;orthogonalLoop=1;jettySize=auto;html=1;exitX=0.5;exitY=1;exitDx=0;exitDy=0;entryX=0.5;entryY=0;entryDx=0;entryDy=0;" parent="1" source="bLovdLrPqOiku8LCbW90-71" target="bLovdLrPqOiku8LCbW90-1" edge="1">
          <mxGeometry relative="1" as="geometry" />
        </mxCell>
        <mxCell id="bLovdLrPqOiku8LCbW90-71" value="mmm_daily_feed" style="rounded=1;whiteSpace=wrap;html=1;" parent="1" vertex="1">
          <mxGeometry x="1020" y="1170" width="120" height="70" as="geometry" />
        </mxCell>
        <mxCell id="bLovdLrPqOiku8LCbW90-72" style="edgeStyle=orthogonalEdgeStyle;rounded=0;orthogonalLoop=1;jettySize=auto;html=1;entryX=0.5;entryY=0;entryDx=0;entryDy=0;" parent="1" source="bLovdLrPqOiku8LCbW90-69" target="bLovdLrPqOiku8LCbW90-71" edge="1">
          <mxGeometry relative="1" as="geometry" />
        </mxCell>
      </root>
    </mxGraphModel>
  </diagram>
</mxfile>
